<svg height='100px' width='100px'  fill="#002642" xmlns="http://www.w3.org/2000/svg" xmlns:xlink="http://www.w3.org/1999/xlink" version="1.1" x="0px" y="0px" viewBox="0 0 100 100" enable-background="new 0 0 100 100" xml:space="preserve"><path fill="#002642" d="M50,42.936c3.751-7.314,9.543-13.046,15.481-17.41C59.155,13.241,50,5,50,5s-9.155,8.241-15.481,20.525  C40.458,29.89,46.249,35.621,50,42.936z"></path><path fill="#002642" d="M67.737,30.037c-5.938,4.364-11.73,10.096-15.481,17.41c10.687,20.836,0,47.553,0,47.553  s27.249-7.482,37.935-28.854c10.686-21.371,0-47.552,0-47.552S78.715,21.974,67.737,30.037z"></path><path fill="#002642" d="M47.744,47.447c-3.75-7.314-9.542-13.046-15.48-17.41C21.286,21.974,9.81,18.595,9.81,18.595  s-10.687,26.181,0,47.552C20.496,87.518,47.744,95,47.744,95S58.431,68.283,47.744,47.447z"></path></svg>