<?xml version="1.0" standalone="no"?>
<!DOCTYPE svg PUBLIC "-//W3C//DTD SVG 1.1//EN" "http://www.w3.org/Graphics/SVG/1.1/DTD/svg11.dtd">
<svg xmlns="http://www.w3.org/2000/svg">
<defs >
<font id="RedHatText" horiz-adv-x="548" ><font-face
    font-family="Red Hat Text Medium"
    units-per-em="1000"
    panose-1="2 1 6 3 4 2 1 13 3 3"
    ascent="1018"
    descent="-305"
    alphabetic="0" />
<glyph unicode=" " glyph-name="space" horiz-adv-x="225" />
<glyph unicode="!" glyph-name="exclam" horiz-adv-x="240" d="M68 215L166 730H275L151 215H68ZM70 -9Q44 -9 27 8T10 52Q10 84 33 107T87 131Q112 131 129 113T146 69Q146 38 123 15T70 -9Z" />
<glyph unicode="&quot;" glyph-name="quotedbl" horiz-adv-x="424" d="M123 489L163 750H269L201 489H123ZM300 489L340 750H446L378 489H300Z" />
<glyph unicode="#" glyph-name="numbersign" horiz-adv-x="702" d="M-6 0L106 203H21L39 286H151L222 414H112L130 497H267L379 700H476L365 497H520L631 700H728L617 497H701L683 414H571L501 286H609L591 203H455L344 0H247L358 203H203L92 0H-6ZM249 286H404L474
414H319L249 286Z" />
<glyph unicode="$" glyph-name="dollar" horiz-adv-x="558" d="M176 -75L197 23Q146 31 100 53T10 113L73 194Q110 163 145 144T217 118L259 315L210 331Q153 350 121 391T88 483Q88 576 153 629T330 683H337L353 759H409L392 677Q439 667 483 643T563 584L495
508Q467 536 436 555T372 582L333 402L378 386Q441 363 474 323T508 232Q508 136 439 77T256 18H252L232 -75H176ZM251 425L280 415L317 590H314Q257 590 224 565T190 498Q190 473 206 454T251 425ZM333 292L312 300L272 113Q332 114 367 141T403 213Q403 239 386
259T333 292Z" />
<glyph unicode="%" glyph-name="percent" horiz-adv-x="787" d="M209 345Q150 345 115 383T80 485Q80 531 94 571T132 641T188 688T257 706Q315 706 350 668T386 566Q386 520 372 480T334 410T278 363T209 345ZM216 407Q258 407 288 452T318 561Q318 599 300 621T250
644Q208 644 178 598T148 489Q148 451 166 429T216 407ZM180 0H102L638 700H718L180 0ZM568 -5Q509 -5 474 33T439 135Q439 181 453 221T491 291T547 338T616 356Q674 356 709 318T745 216Q745 170 731 130T693 60T637 13T568 -5ZM575 57Q617 57 647 102T677 211Q677
249 659 271T609 294Q567 294 537 248T507 139Q507 101 525 79T575 57Z" />
<glyph unicode="&amp;" glyph-name="ampersand" horiz-adv-x="668" d="M612 65L537 -13Q517 3 497 22T455 61Q409 26 356 8T246 -10Q143 -10 81 40T18 172Q18 241 59 293T189 386L203 392Q186 425 178 454T170 515Q170 599 227 654T371 709Q443 709 488 670T534
570Q534 516 500 472T397 394L341 366Q367 326 399 285T467 205Q492 237 515 277T558 365L652 341Q625 278 595 228T531 139Q551 119 572 100T612 65ZM273 528Q273 506 279 485T301 436L353 461Q392 480 411 504T431 558Q431 587 412 605T361 623Q322 623 298 597T273
528ZM124 188Q124 139 161 110T258 81Q294 81 327 92T394 126Q353 172 315 222T244 321L233 316Q177 290 151 259T124 188Z" />
<glyph unicode="&apos;" glyph-name="quotesingle" horiz-adv-x="244" d="M123 489L163 750H269L201 489H123Z" />
<glyph unicode="(" glyph-name="parenleft" horiz-adv-x="406" d="M55 136Q55 229 79 316T148 478T257 613T400 711L444 634Q379 602 326 551T235 436T177 299T156 147Q156 53 188 -23T281 -152L208 -218Q133 -157 94 -67T55 136Z" />
<glyph unicode=")" glyph-name="parenright" horiz-adv-x="405" d="M350 357Q350 264 326 177T257 15T148 -120T5 -218L-39 -141Q26 -109 79 -58T170 57T228 194T249 346Q249 440 217 516T124 645L197 711Q272 650 311 560T350 357Z" />
<glyph unicode="*" glyph-name="asterisk" horiz-adv-x="463" d="M392 373L306 448L282 326H211L239 450L125 390L99 458L222 519L129 596L179 654L266 579L290 700H360L333 576L447 637L475 570L351 508L444 433L392 373Z" />
<glyph unicode="+" glyph-name="plus" horiz-adv-x="533" d="M283 135H198L236 313H73L92 403H255L293 578H378L340 403H503L484 313H321L283 135Z" />
<glyph unicode="," glyph-name="comma" horiz-adv-x="240" d="M46 98H159L11 -166H-71L46 98Z" />
<glyph unicode="-" glyph-name="hyphen" horiz-adv-x="453" d="M72 331H413L392 236H51L72 331Z" />
<glyph unicode="." glyph-name="period" horiz-adv-x="240" d="M87 136Q112 136 129 118T147 72Q147 40 124 16T70 -9Q44 -9 27 9T9 55Q9 88 32 112T87 136Z" />
<glyph unicode="/" glyph-name="slash" horiz-adv-x="493" d="M-149 -208L437 700H551L-34 -208H-149Z" />
<glyph unicode="0" glyph-name="zero" horiz-adv-x="664" d="M305 -10Q195 -10 129 66T62 267Q62 357 89 438T161 579T269 674T400 710Q509 710 575 635T642 434Q642 344 615 263T543 122T436 26T305 -10ZM317 87Q361 87 400 114T469 188T516 297T534 429Q534
515 495 564T388 614Q344 614 304 587T235 513T188 403T170 271Q170 186 209 137T317 87Z" />
<glyph unicode="1" glyph-name="one" horiz-adv-x="336" d="M359 700L210 0H103L227 586L94 532L115 629L292 700H359Z" />
<glyph unicode="2" glyph-name="two" horiz-adv-x="559" d="M-5 0L13 78L373 397Q412 432 431 464T450 527Q450 565 418 589T333 614Q292 614 251 596T155 538L110 616Q173 662 233 685T353 709Q443 709 500 663T557 545Q557 491 531 444T444 344L156 92L480 93L460
0H-5Z" />
<glyph unicode="3" glyph-name="three" horiz-adv-x="595" d="M530 208Q530 162 509 123T452 54T368 7T263 -10Q176 -10 111 22T5 114L88 178Q119 131 163 109T270 87Q335 87 379 121T423 205Q423 250 395 278T322 307H237L256 399H333Q392 399 429 429T467 505Q467
551 432 581T344 612Q298 612 256 595T170 542L113 615Q167 661 230 684T359 708Q406 708 446 695T515 657T560 599T577 525Q577 461 528 412T405 349Q463 333 496 296T530 208Z" />
<glyph unicode="4" glyph-name="four" horiz-adv-x="637" d="M608 700L516 267H606L585 173H496L459 0H353L390 173H21L41 262L487 700H608ZM159 267H409L475 579L159 267Z" />
<glyph unicode="5" glyph-name="five" horiz-adv-x="579" d="M85 354L172 700H591L571 606H244L194 410Q224 423 253 430T314 437Q410 437 469 385T529 246Q529 193 508 147T449 66T360 11T251 -9Q174 -9 110 20T3 104L80 174Q118 128 161 107T258 85Q326 85 372
127T418 231Q418 286 379 319T274 353Q246 353 217 346T153 325L85 354Z" />
<glyph unicode="6" glyph-name="six" horiz-adv-x="624" d="M306 -8Q196 -8 129 67T62 267Q62 357 92 437T173 577T293 672T439 708Q496 708 546 689T634 636L561 561Q533 586 499 599T424 612Q379 612 338 592T264 535T208 450T175 343Q216 387 266 410T368 434Q456
434 513 380T571 243Q571 192 550 146T493 66T408 12T306 -8ZM168 263Q168 182 207 134T313 86Q376 86 420 128T465 229Q465 281 429 315T339 349Q294 349 250 332T168 280V263Z" />
<glyph unicode="7" glyph-name="seven" horiz-adv-x="574" d="M47 0L493 603H105L126 700H636L617 618L181 0H47Z" />
<glyph unicode="8" glyph-name="eight" horiz-adv-x="613" d="M278 -10Q171 -10 104 41T37 174Q37 245 90 300T221 372Q178 391 153 425T128 502Q128 545 148 583T202 649T282 693T379 710Q472 710 533 661T594 535Q594 474 549 425T434 357Q486 339 518 300T550
210Q550 164 529 124T471 54T385 7T278 -10ZM351 404Q406 404 446 439T487 522Q487 565 454 593T370 621Q314 621 274 587T233 503Q233 460 266 432T351 404ZM285 81Q350 81 396 119T443 210Q443 258 403 289T303 321Q238 321 193 284T147 193Q147 144 186 113T285
81Z" />
<glyph unicode="9" glyph-name="nine" horiz-adv-x="620" d="M352 706Q462 706 529 631T596 431Q596 341 566 261T485 121T365 26T219 -10Q162 -10 112 9T24 62L97 137Q125 112 159 99T234 86Q279 86 320 106T394 163T450 248T483 355Q442 311 392 288T290 264Q202
264 145 318T87 455Q87 506 108 552T165 632T250 686T352 706ZM490 435Q490 516 451 564T345 612Q282 612 238 570T193 469Q193 417 229 383T319 349Q364 349 408 366T490 418V435Z" />
<glyph unicode=":" glyph-name="colon" horiz-adv-x="245" d="M88 136Q113 136 130 118T148 72Q148 40 125 16T71 -9Q45 -9 28 9T10 55Q10 88 33 112T88 136ZM170 511Q195 511 212 493T230 447Q230 415 207 391T153 366Q127 366 110 384T92 430Q92 463 115 487T170 511Z" />
<glyph unicode=";" glyph-name="semicolon" horiz-adv-x="248" d="M173 511Q198 511 215 493T233 447Q233 415 210 391T156 366Q130 366 113 384T95 430Q95 463 118 487T173 511ZM298 98H411L263 -166H181L298 98Z" />
<glyph unicode="&lt;" glyph-name="less" horiz-adv-x="497" d="M312 76L42 348L428 620L472 549L173 345L383 141L312 76Z" />
<glyph unicode="=" glyph-name="equal" horiz-adv-x="534" d="M739 565L720 475H309L328 565H739ZM522 489L503 399H92L111 489H522Z" />
<glyph unicode="&gt;" glyph-name="greater" horiz-adv-x="497" d="M230 620L500 348L114 76L70 147L369 351L159 555L230 620Z" />
<glyph unicode="?" glyph-name="question" horiz-adv-x="513" d="M387 352L342 326Q305 305 288 281T264 217H173Q183 282 209 321T286 391L346 428Q382 450 401 476T420 531Q420 567 391 589T316 611Q275 611 236 591T169 533L94 581Q138 641 201 674T331 708Q418
708 473 664T528 547Q528 490 495 443T387 352ZM198 131Q224 131 241 113T258 69Q258 38 235 15T182 -9Q156 -9 139 8T121 52Q121 84 144 107T198 131Z" />
<glyph unicode="@" glyph-name="at" horiz-adv-x="765" d="M342 49Q284 49 244 93T204 203Q204 240 217 273T252 330T305 369T370 383Q396 383 419 374T461 348L465 370H540L501 171Q494 140 506 124T546 108Q593 108 623 154T654 269Q654 324 634 371T578 452T494
506T389 526Q329 526 277 502T187 435T126 335T104 211Q104 146 125 91T185 -3T278 -65T395 -88Q438 -88 478 -78T554 -49L575 -100Q532 -122 487 -133T394 -144Q319 -144 256 -118T146 -45T73 67T47 207Q47 287 73 355T145 473T254 551T392 579Q460 579 518 556T620
491T687 394T712 273Q712 225 699 184T663 114T607 68T537 51Q503 51 479 61T442 91Q419 71 394 60T342 49ZM276 209Q276 166 299 140T359 113Q377 113 394 120T426 142Q425 150 426 160T429 180L448 278Q435 297 416 307T371 317Q333 317 305 285T276 209Z" />
<glyph unicode="A" glyph-name="A" horiz-adv-x="683" d="M-48 0L366 700H503L623 0H502L472 196H192L81 0H-48ZM245 290H458L412 587L245 290Z" />
<glyph unicode="B" glyph-name="B" horiz-adv-x="683" d="M177 700H462Q550 700 603 656T656 540Q656 477 618 428T516 357Q565 338 592 302T620 216Q620 170 601 131T547 62T467 17T367 0H28L177 700ZM438 602H273L231 406H410Q465 406 500 437T536 518Q536 557
510 579T438 602ZM364 98Q424 98 463 132T502 221Q502 264 473 288T394 313H212L166 98H364Z" />
<glyph unicode="C" glyph-name="C" horiz-adv-x="712" d="M410 97Q461 97 511 119T601 182L665 103Q611 49 541 20T398 -10Q329 -10 269 15T164 85T95 190T70 321Q70 401 100 472T181 595T302 678T448 709Q536 709 605 675T717 575L626 499Q597 549 549 576T442
603Q390 603 344 582T264 523T211 435T191 327Q191 277 207 235T253 163T322 115T410 97Z" />
<glyph unicode="D" glyph-name="D" horiz-adv-x="730" d="M28 0L177 700H396Q462 700 518 677T614 613T676 515T699 389Q699 310 668 239T585 115T462 31T312 0H28ZM386 596H272L167 104H325Q377 104 423 126T503 185T557 274T577 382Q577 476 524 536T386 596Z" />
<glyph unicode="E" glyph-name="E" horiz-adv-x="630" d="M28 0L177 700H668L645 598H272L231 403H492L471 303H209L167 102H545L523 0H28Z" />
<glyph unicode="F" glyph-name="F" horiz-adv-x="623" d="M28 0L177 700H669L647 598H272L230 398H489L468 298H208L145 0H28Z" />
<glyph unicode="G" glyph-name="G" horiz-adv-x="787" d="M750 321Q737 248 704 187T623 82T516 14T390 -11Q321 -11 262 14T160 82T92 186T67 316Q67 396 98 468T181 594T303 679T450 711Q540 711 613 675T730 572L638 497Q609 546 557 575T441 604Q389 604 343
582T262 522T208 432T188 322Q188 273 204 232T248 160T316 113T401 96Q479 96 540 147T620 280H415L435 382H762L750 321Z" />
<glyph unicode="H" glyph-name="H" horiz-adv-x="731" d="M23 0L172 700H289L226 405H568L631 700H748L599 0H482L546 300H204L140 0H23Z" />
<glyph unicode="I" glyph-name="I" horiz-adv-x="272" d="M22 0L171 700H289L140 0H22Z" />
<glyph unicode="J" glyph-name="J" horiz-adv-x="619" d="M549 251Q524 129 447 60T261 -10Q160 -10 96 43T17 191L126 228Q136 163 169 130T259 96Q323 96 370 142T435 269L527 700H646L549 251Z" />
<glyph unicode="K" glyph-name="K" horiz-adv-x="654" d="M28 0L177 700H294L228 390L587 700H739L337 360L595 0H448L216 335L145 0H28Z" />
<glyph unicode="L" glyph-name="L" horiz-adv-x="614" d="M28 0L177 700H294L167 104H533L511 0H28Z" />
<glyph unicode="M" glyph-name="M" horiz-adv-x="872" d="M395 50L256 552L139 0H28L177 700H326L438 275L726 700H884L735 0H626L741 544L395 50Z" />
<glyph unicode="N" glyph-name="N" horiz-adv-x="747" d="M177 700H291L541 180L647 700H758L609 0H504L248 534L139 0H28L177 700Z" />
<glyph unicode="O" glyph-name="O" horiz-adv-x="796" d="M765 380Q765 300 736 229T655 104T536 20T392 -11Q323 -11 264 14T162 84T95 188T70 320Q70 400 99 471T180 596T299 680T443 711Q512 711 571 686T673 616T740 512T765 380ZM645 373Q645 423 629 465T586
538T520 586T436 604Q385 604 340 582T262 523T210 435T190 327Q190 278 206 236T250 163T316 115T400 97Q450 97 495 118T573 177T625 265T645 373Z" />
<glyph unicode="P" glyph-name="P" horiz-adv-x="666" d="M28 0L177 700H456Q552 700 610 648T668 506Q668 455 649 411T594 335T512 285T409 267H202L145 0H28ZM431 599H273L223 365H401Q467 365 508 402T549 498Q549 545 518 572T431 599Z" />
<glyph unicode="Q" glyph-name="Q" horiz-adv-x="795" d="M765 380Q765 289 727 210T626 76L674 0L585 -43L543 23Q509 7 471 -2T392 -11Q323 -11 264 14T162 84T95 188T70 320Q70 400 99 471T180 596T299 680T443 711Q512 711 571 686T673 616T740 512T765 380ZM509
260L566 170Q603 207 624 260T645 373Q645 423 629 465T586 538T520 586T436 604Q385 604 340 582T262 523T210 435T190 327Q190 278 206 236T250 163T316 115T400 97Q422 97 444 101T486 114L421 217L509 260Z" />
<glyph unicode="R" glyph-name="R" horiz-adv-x="659" d="M28 0L177 700H461Q554 700 610 648T667 511Q667 430 615 369T482 288L578 0H454L367 281H205L145 0H28ZM441 599H273L225 377H412Q471 377 509 412T548 502Q548 547 519 573T441 599Z" />
<glyph unicode="S" glyph-name="S" horiz-adv-x="626" d="M11 125L85 208Q148 146 204 117T320 88Q384 88 425 120T467 201Q467 236 442 257T357 296L235 328Q161 348 122 391T83 498Q83 594 152 652T336 710Q420 710 496 681T626 598L553 515Q506 561 449 586T329
611Q269 611 233 584T197 513Q197 480 219 459T291 424L408 394Q498 371 541 328T584 218Q584 168 564 126T509 53T423 7T312 -10Q225 -10 150 23T11 125Z" />
<glyph unicode="T" glyph-name="T" horiz-adv-x="626" d="M96 596L119 700H695L672 596H444L317 0H199L326 596H96Z" />
<glyph unicode="U" glyph-name="U" horiz-adv-x="714" d="M650 282Q621 144 537 67T331 -10Q260 -10 207 14T121 81T78 185T82 318L163 700H281L198 308Q178 215 217 157T338 98Q410 98 463 149T535 291L622 700H739L650 282Z" />
<glyph unicode="V" glyph-name="V" horiz-adv-x="683" d="M221 0L100 700H221L312 119L644 700H772L358 0H221Z" />
<glyph unicode="W" glyph-name="W" horiz-adv-x="918" d="M254 0H132L130 700H246L239 185L495 700H607L645 187L856 700H976L677 0H554L516 531L254 0Z" />
<glyph unicode="X" glyph-name="X" horiz-adv-x="687" d="M99 0H-46L299 365L123 700H256L383 451L613 700H757L432 356L619 0H487L349 271L99 0Z" />
<glyph unicode="Y" glyph-name="Y" horiz-adv-x="674" d="M223 0L281 277L100 700H225L358 380L624 700H763L398 274L341 0H223Z" />
<glyph unicode="Z" glyph-name="Z" horiz-adv-x="600" d="M-21 0L-4 80L482 601L107 598L130 700H661L643 620L157 99L540 102L518 0H-21Z" />
<glyph unicode="[" glyph-name="bracketleft" horiz-adv-x="382" d="M230 -215H-33L162 700H425L406 610H245L88 -125H250L230 -215Z" />
<glyph unicode="\" glyph-name="backslash" horiz-adv-x="463" d="M424 -208H319L119 700H224L424 -208Z" />
<glyph unicode="]" glyph-name="bracketright" horiz-adv-x="382" d="M145 700H408L213 -215H-50L-31 -125H130L287 610H125L145 700Z" />
<glyph unicode="^" glyph-name="asciicircum" horiz-adv-x="539" d="M70 350L317 700H409L507 350H419L347 611L164 350H70Z" />
<glyph unicode="_" glyph-name="underscore" horiz-adv-x="454" d="M384 -80L367 -162H-90L-73 -80H384Z" />
<glyph unicode="`" glyph-name="grave" horiz-adv-x="512" d="M269 724L391 591H290L127 724H269Z" />
<glyph unicode="a" glyph-name="a" horiz-adv-x="541" d="M185 -6Q112 -6 68 31T24 132Q24 205 77 249T221 293Q261 293 299 284T369 258L378 300Q391 357 364 386T271 415Q243 415 211 408T135 384L108 467Q162 487 208 497T298 508Q407 508 458 453T489 304L422
0H312L322 45Q286 18 253 6T185 -6ZM128 142Q128 109 153 91T225 73Q255 73 282 81T336 109L355 194Q331 207 301 213T235 220Q186 220 157 199T128 142Z" />
<glyph unicode="b" glyph-name="b" horiz-adv-x="598" d="M552 277Q552 219 532 167T477 77T396 17T296 -6Q245 -6 206 16T142 81L124 0H14L165 715L279 734L219 446Q246 474 282 489T358 504Q399 504 434 487T496 439T537 367T552 277ZM312 410Q281 410 254 398T202
363L159 156Q177 126 209 108T279 90Q348 90 395 141T443 267Q443 330 406 370T312 410Z" />
<glyph unicode="c" glyph-name="c" horiz-adv-x="511" d="M285 89Q317 89 346 100T401 134L455 63Q416 27 367 9T267 -10Q219 -10 178 7T108 54T62 126T45 217Q45 277 66 330T125 422T212 485T318 508Q379 508 432 481T516 407L436 341Q415 375 385 391T315 408Q283
408 254 394T203 354T169 296T156 226Q156 166 192 128T285 89Z" />
<glyph unicode="d" glyph-name="d" horiz-adv-x="598" d="M364 0L374 48Q348 23 314 9T241 -5Q200 -5 164 12T102 60T61 133T46 223Q46 281 66 332T121 422T202 482T302 505Q351 505 389 485T453 428L513 715L628 734L474 0H364ZM156 232Q156 169 192 129T286
89Q315 89 341 99T391 131L437 351Q418 378 387 393T319 409Q250 409 203 358T156 232Z" />
<glyph unicode="e" glyph-name="e" horiz-adv-x="562" d="M465 51Q419 19 375 5T281 -10Q230 -10 186 7T111 55T63 129T45 223Q45 281 66 333T122 424T206 485T309 508Q402 508 460 446T518 287Q518 268 517 253T514 223H153Q154 163 193 124T290 84Q322 84 352
94T404 125L465 51ZM303 415Q253 415 215 381T162 292H418Q414 346 383 380T303 415Z" />
<glyph unicode="f" glyph-name="f" horiz-adv-x="402" d="M84 501H185L206 602Q222 677 270 717T390 758Q415 758 439 754T480 743L460 647Q443 653 427 656T394 659Q360 659 342 643T316 592L297 501H433L412 411H278L191 0H80L166 411H63L84 501Z" />
<glyph unicode="g" glyph-name="g" horiz-adv-x="593" d="M241 -3Q200 -3 164 14T103 62T62 134T47 224Q47 282 67 333T122 423T203 483T302 505Q351 505 390 485T454 428L470 501H579L466 -43Q447 -129 389 -174T241 -220Q184 -220 123 -201T17 -147L68 -68Q111
-99 153 -114T236 -129Q285 -129 316 -104T358 -31L375 50Q348 25 314 11T241 -3ZM157 233Q157 170 193 130T287 90Q316 90 342 100T392 132L438 351Q419 378 388 393T319 409Q251 409 204 359T157 233Z" />
<glyph unicode="h" glyph-name="h" horiz-adv-x="571" d="M14 0L163 715L279 734L214 420Q249 463 291 485T379 507Q459 507 498 454T519 317L451 0H340L403 291Q415 347 391 382T316 418Q285 418 256 404T201 360L126 0H14Z" />
<glyph unicode="i" glyph-name="i" horiz-adv-x="249" d="M201 603Q175 603 158 620T140 664Q140 695 163 718T217 742Q242 742 260 724T279 680Q279 649 256 626T201 603ZM235 501L126 0H14L123 501H235Z" />
<glyph unicode="j" glyph-name="j" horiz-adv-x="249" d="M201 603Q175 603 158 620T140 664Q140 695 163 718T217 742Q242 742 260 724T279 680Q279 649 256 626T201 603ZM-52 -217Q-70 -217 -90 -214T-122 -206L-103 -116Q-94 -119 -83 -120T-57 -122Q-33 -122
-19 -110T1 -71L123 501H235L110 -81Q96 -146 54 -181T-52 -217Z" />
<glyph unicode="k" glyph-name="k" horiz-adv-x="525" d="M14 0L165 715L279 734L185 283L428 501H568L280 252L468 0H336L174 228L126 0H14Z" />
<glyph unicode="l" glyph-name="l" horiz-adv-x="249" d="M279 734L126 0H14L165 715L279 734Z" />
<glyph unicode="m" glyph-name="m" horiz-adv-x="858" d="M14 0L123 501H235L217 416Q252 462 291 484T372 507Q423 507 457 479T501 403Q541 454 586 480T681 507Q753 507 788 453T806 318L739 0H627L692 302Q702 353 681 385T615 418Q587 418 560 403T505 354Q504
345 503 336T500 318L432 0H321L385 298Q396 352 375 385T308 418Q280 418 255 404T205 362L126 0H14Z" />
<glyph unicode="n" glyph-name="n" horiz-adv-x="571" d="M14 0L123 501H235L219 426Q253 466 293 486T379 507Q459 507 498 454T519 317L451 0H340L403 291Q416 347 392 382T316 418Q285 418 258 405T205 364L126 0H14Z" />
<glyph unicode="o" glyph-name="o" horiz-adv-x="588" d="M46 224Q46 283 67 335T125 425T211 486T317 509Q366 509 407 492T478 444T524 370T541 276Q541 217 520 165T462 74T376 13T271 -10Q222 -10 181 7T110 56T63 130T46 224ZM277 88Q342 88 387 142T432
274Q432 336 399 374T310 413Q278 413 250 399T201 359T168 300T156 228Q156 165 189 127T277 88Z" />
<glyph unicode="p" glyph-name="p" horiz-adv-x="598" d="M-30 -212L123 501H233L222 448Q250 475 284 489T358 504Q399 504 434 487T496 439T537 367T552 277Q552 219 532 167T477 77T396 17T296 -6Q246 -6 207 15T143 76L81 -212H-30ZM312 410Q282 410 256 400T206
367L160 154Q178 125 210 108T279 90Q348 90 395 141T443 267Q443 330 406 370T312 410Z" />
<glyph unicode="q" glyph-name="q" horiz-adv-x="598" d="M241 -5Q200 -5 164 12T102 60T61 133T46 223Q46 281 66 332T121 422T202 482T302 505Q352 505 391 484T456 422L473 501H583L430 -212H318L374 47Q348 22 314 9T241 -5ZM156 232Q156 169 192 129T286
89Q315 89 342 99T392 132L439 347Q420 375 388 392T319 409Q250 409 203 358T156 232Z" />
<glyph unicode="r" glyph-name="r" horiz-adv-x="384" d="M13 0L122 501H234L212 401Q243 454 280 481T361 509Q376 509 391 506T417 497L395 398Q386 405 367 409T329 413Q292 413 258 393T198 337L125 0H13Z" />
<glyph unicode="s" glyph-name="s" horiz-adv-x="471" d="M-3 73L59 145Q107 107 143 92T221 76Q261 76 287 96T314 145Q314 164 300 177T255 198L170 221Q112 237 83 269T53 351Q53 423 104 466T241 509Q297 509 348 491T445 435L383 365Q346 393 308 408T234
424Q196 424 174 408T152 365Q152 343 165 331T210 310L295 287Q357 270 387 239T418 161Q418 88 361 39T219 -11Q154 -11 96 11T-3 73Z" />
<glyph unicode="t" glyph-name="t" horiz-adv-x="406" d="M106 140L164 411H66L86 501H183L212 639L329 663L294 501H431L411 411H275L221 160Q212 121 226 105T284 88Q296 88 307 89T341 96L321 2Q303 -2 281 -5T236 -8Q158 -8 124 30T106 140Z" />
<glyph unicode="u" glyph-name="u" horiz-adv-x="570" d="M230 501L167 210Q154 153 178 118T254 83Q285 83 313 96T366 138L444 501H556L447 0H336L352 76Q318 36 278 15T191 -6Q113 -6 73 48T51 184L119 501H230Z" />
<glyph unicode="v" glyph-name="v" horiz-adv-x="531" d="M156 0L66 501H182L239 133L454 501H574L263 0H156Z" />
<glyph unicode="w" glyph-name="w" horiz-adv-x="722" d="M209 0H102L77 501H181L192 147L368 501H462L488 147L648 501H754L513 0H406L383 353L209 0Z" />
<glyph unicode="x" glyph-name="x" horiz-adv-x="523" d="M-44 0L202 261L77 501H201L281 338L429 501H559L324 254L456 0H333L246 175L86 0H-44Z" />
<glyph unicode="y" glyph-name="y" horiz-adv-x="527" d="M113 -59L143 -7L63 501H179L229 121L448 501H570L217 -90Q179 -153 133 -182T27 -212Q12 -212 -4 -210T-43 -201L-23 -105Q-9 -108 2 -109T22 -111Q53 -111 75 -99T113 -59Z" />
<glyph unicode="z" glyph-name="z" horiz-adv-x="472" d="M-17 0L1 83L317 404L74 403L94 501H481L464 418L147 96L398 97L378 0H-17Z" />
<glyph unicode="{" glyph-name="braceleft" horiz-adv-x="414" d="M235 75L175 -25Q147 -72 158 -103T212 -136Q225 -137 237 -135T264 -129V-213Q242 -219 223 -221T183 -223Q136 -222 105 -205T60 -158T51 -91T83 -10L137 78Q168 127 156 163T97 200H21L39 286H116Q163
286 188 320T206 405L189 513Q182 555 192 591T225 654T283 695T361 708Q388 707 410 702T454 687L419 605Q406 612 391 616T363 620Q320 621 298 592T282 516L299 395Q306 338 273 294T180 239Q236 221 252 175T235 75Z" />
<glyph unicode="|" glyph-name="bar" horiz-adv-x="315" d="M9 -210L202 700H302L109 -210H9Z" />
<glyph unicode="}" glyph-name="braceright" horiz-adv-x="414" d="M172 412L232 512Q260 559 249 590T195 623Q182 624 170 622T143 616V700Q165 706 184 708T224 710Q271 709 302 692T347 645T356 578T324 497L270 409Q239 360 251 324T310 287H386L368 201H291Q244
201 219 167T201 82L218 -26Q225 -68 215 -104T182 -167T124 -208T46 -221Q19 -220 -3 -215T-47 -200L-12 -118Q1 -125 16 -129T44 -133Q87 -134 109 -105T125 -29L108 92Q101 149 134 193T227 248Q171 266 155 312T172 412Z" />
<glyph unicode="~" glyph-name="asciitilde" horiz-adv-x="585" d="M307 432L373 390Q393 377 406 372T431 367Q454 367 472 386T504 443L580 425Q557 355 519 317T433 279Q411 279 388 287T336 313L270 356Q249 369 237 373T212 378Q188 378 170 359T139 303L63
320Q86 390 124 428T209 467Q230 467 253 459T307 432Z" />
<glyph unicode="&#xa0;" glyph-name="nbspace" horiz-adv-x="225" />
<glyph unicode="&#xa1;" glyph-name="exclamdown" horiz-adv-x="239" d="M211 488L113 -27H4L128 488H211ZM209 712Q235 712 252 695T269 651Q269 619 246 596T192 572Q167 572 150 590T133 634Q133 665 156 688T209 712Z" />
<glyph unicode="&#xa2;" glyph-name="cent" horiz-adv-x="519" d="M187 -114L210 -3Q137 14 91 74T45 217Q45 277 66 330T125 422T212 485T318 508H319L342 616H397L373 502Q418 492 455 468T516 407L436 341Q420 366 399 382T352 404L285 89Q317 89 346 100T401
134L455 63Q416 27 367 9T267 -10H264L242 -114H187ZM156 226Q156 181 177 148T232 99L298 407Q239 400 198 348T156 226Z" />
<glyph unicode="&#xa3;" glyph-name="sterling" horiz-adv-x="629" d="M182 30Q139 43 106 32T42 -20L-30 41Q4 85 43 108T127 132Q143 142 151 160T161 204L164 295H65L82 373H166L168 444Q168 502 185 550T233 634T307 688T402 707Q498 707 556 657T627 512L527
487Q521 550 489 581T399 613Q341 613 307 571T272 455L270 373H451L435 295H268L267 233Q266 195 254 165T218 116L372 69Q413 56 445 66T506 113L578 56Q528 -7 469 -25T335 -18L182 30Z" />
<glyph unicode="&#xa4;" glyph-name="uni00A4" horiz-adv-x="703" d="M100 53L44 109L138 203Q113 236 100 276T86 362Q86 408 99 448T138 521L44 617L101 674L196 577Q229 601 269 614T352 627Q396 627 435 614T508 577L604 673L659 618L564 522Q589 489 603
449T617 362Q617 318 604 278T566 204L660 109L604 52L508 148Q475 124 436 111T352 98Q308 98 268 111T194 148L100 53ZM352 195Q418 195 464 244T510 362Q510 432 464 481T352 530Q286 530 240 481T193 362Q193 293 239 244T352 195Z" />
<glyph unicode="&#xa5;" glyph-name="yen" horiz-adv-x="684" d="M223 0L253 145H89L102 210H267L281 276H117L130 341H254L100 700H225L358 380L624 700H763L455 341H578L564 276H400L398 274L385 210H550L536 145H371L341 0H223Z" />
<glyph unicode="&#xa6;" glyph-name="uni00A6" horiz-adv-x="323" d="M220 285H116L204 700H309L220 285ZM11 -210L99 205H203L115 -210H11Z" />
<glyph unicode="&#xa7;" glyph-name="section" horiz-adv-x="563" d="M420 102Q420 35 370 -8T242 -52Q189 -52 138 -33T44 23L100 89Q139 58 175 42T245 25Q279 25 300 43T321 90Q321 109 310 123T276 150L183 199Q125 229 100 259T75 332Q75 387 110 426T203
480Q191 496 185 515T179 556Q179 623 228 666T356 709Q408 709 459 690T553 635L497 569Q458 600 422 616T352 632Q318 632 297 614T276 567Q276 548 287 534T321 507L415 459Q474 428 499 398T524 327Q524 270 489 231T395 177Q408 161 414 143T420 102ZM323
231Q325 230 327 229T331 227Q374 228 402 251T430 307Q430 329 417 345T374 378L273 427L267 430Q223 429 195 407T167 351Q167 329 180 313T224 280L323 231Z" />
<glyph unicode="&#xa8;" glyph-name="dieresis" horiz-adv-x="561" d="M260 597Q237 597 221 613T205 655Q205 684 226 705T275 727Q298 727 314 711T330 670Q330 642 309 620T260 597ZM460 597Q437 597 421 613T404 655Q404 683 425 705T475 727Q498 727 514
711T530 670Q530 642 509 620T460 597Z" />
<glyph unicode="&#xa9;" glyph-name="copyright" horiz-adv-x="774" d="M67 308Q67 389 97 462T178 589T297 676T441 708Q507 708 563 684T660 618T724 518T747 390Q747 309 717 236T636 109T517 22T373 -10Q307 -10 251 14T154 80T90 181T67 308ZM691 384Q691
442 672 492T619 577T538 633T436 654Q373 654 316 627T217 553T149 444T123 314Q123 256 142 206T195 120T276 64T377 43Q440 43 497 71T597 145T665 254T691 384ZM237 325Q237 367 253 405T297 473T361 519T437 537Q480 537 518 517T576 462L518 412Q502 437
480 451T432 465Q385 465 350 426T315 333Q315 291 340 264T404 236Q425 236 445 245T487 271L521 214Q493 190 460 177T391 164Q325 164 281 210T237 325Z" />
<glyph unicode="&#xaa;" glyph-name="ordfeminine" horiz-adv-x="418" d="M199 311Q140 311 105 340T70 419Q70 478 113 512T231 547Q259 547 287 541T341 522L347 549Q356 592 336 613T265 634Q244 634 218 628T154 608L132 676Q174 693 212 701T284 710Q370
710 410 667T435 551L385 316H297L303 344Q278 327 253 319T199 311ZM155 427Q155 402 175 389T231 376Q253 376 274 382T315 402L329 464Q309 474 286 480T238 486Q201 486 178 470T155 427Z" />
<glyph unicode="&#xab;" glyph-name="guillemotleft" horiz-adv-x="680" d="M427 501L152 249L315 0H205L36 251L314 501H427ZM681 501L406 249L569 0H459L290 251L568 501H681Z" />
<glyph unicode="&#xac;" glyph-name="uni00AC" horiz-adv-x="574" d="M70 332H536L466 0H356L407 235H50L70 332Z" />
<glyph unicode="&#xad;" glyph-name="uni00AD" horiz-adv-x="464" d="M72 331H413L392 236H51L72 331Z" />
<glyph unicode="&#xae;" glyph-name="registered" horiz-adv-x="487" d="M279 308Q205 308 157 359T108 488Q108 534 125 576T172 649T240 699T323 718Q397 718 445 667T494 538Q494 492 477 450T430 377T361 327T279 308ZM283 349Q317 349 348 364T401 404T437
463T451 537Q451 600 414 638T318 677Q283 677 253 662T200 622T164 563T151 489Q151 426 187 388T283 349ZM214 420L254 608H324Q349 608 363 594T377 555Q377 536 366 519T336 494L359 420H317L295 488H269L254 420H214ZM314 575H287L275 519H307Q320 519 328
528T337 550Q337 563 332 569T314 575Z" />
<glyph unicode="&#xaf;" glyph-name="overscore" horiz-adv-x="512" d="M499 692L483 618H191L207 692H499Z" />
<glyph unicode="&#xb0;" glyph-name="degree" horiz-adv-x="389" d="M246 420Q190 420 153 456T116 549Q116 581 129 610T163 660T213 695T274 708Q331 708 368 672T405 580Q405 548 392 519T358 468T307 433T246 420ZM250 482Q287 482 313 508T340 572Q340 603
320 624T270 645Q233 645 207 619T181 556Q181 525 201 504T250 482Z" />
<glyph unicode="&#xb1;" glyph-name="plusminus" horiz-adv-x="533" d="M295 189H210L245 354H82L101 443H264L299 605H383L349 443H512L493 354H330L295 189ZM437 89L418 -1H6L25 89H437Z" />
<glyph unicode="&#xb2;" glyph-name="twosuperior" horiz-adv-x="295" d="M49 350L60 400L231 538Q253 554 264 570T275 602Q275 621 260 632T219 644Q200 644 179 635T131 606L103 656Q135 680 168 693T232 706Q281 706 312 681T344 616Q344 587 329 562T278
509L154 409H308L295 350H49Z" />
<glyph unicode="&#xb3;" glyph-name="threesuperior" horiz-adv-x="316" d="M331 455Q331 409 290 377T190 345Q146 345 112 359T55 403L102 449Q121 428 144 418T194 407Q222 407 242 420T262 453Q262 473 248 484T210 496H174L186 552H215Q245 552 264 565T284
599Q284 618 268 630T229 643Q210 643 189 635T141 611L108 662Q139 684 173 695T239 706Q290 706 323 679T356 611Q356 581 331 557T269 524Q298 517 314 499T331 455Z" />
<glyph unicode="&#xb4;" glyph-name="acute" horiz-adv-x="511" d="M378 724H521L332 591H229L378 724Z" />
<glyph unicode="&#xb5;" glyph-name="uni00B5" horiz-adv-x="597" d="M232 514L168 211Q156 155 182 122T262 88Q300 88 334 104T393 150L470 514H584L476 0H362L372 48Q337 20 296 5T210 -10Q185 -10 164 -4T126 13L79 -208H-35L119 514H232Z" />
<glyph unicode="&#xb6;" glyph-name="paragraph" horiz-adv-x="669" d="M255 0L311 266H294Q204 266 149 318T93 454Q93 507 111 552T162 630T240 681T340 700H682L533 0H443L500 266H402L346 0H255ZM519 358L572 607H475L422 358H519ZM300 358H331L384 607H326Q267
607 228 567T189 467Q189 417 219 388T300 358Z" />
<glyph unicode="&#xb7;" glyph-name="middot" horiz-adv-x="244" d="M146 358Q171 358 188 340T206 294Q206 262 183 238T129 213Q103 213 86 231T68 277Q68 310 91 334T146 358Z" />
<glyph unicode="&#xb8;" glyph-name="cedilla" horiz-adv-x="511" d="M313 -137Q313 -183 277 -214T187 -245Q149 -245 119 -234T69 -201L110 -159Q125 -175 144 -183T185 -192Q214 -192 231 -179T249 -144Q249 -125 233 -114T191 -103H157L202 0H258L230 -63Q270
-67 291 -86T313 -137Z" />
<glyph unicode="&#xb9;" glyph-name="onesuperior" horiz-adv-x="180" d="M251 700L176 350H107L166 627L94 599L107 661L208 700H251Z" />
<glyph unicode="&#xba;" glyph-name="ordmasculine" horiz-adv-x="468" d="M86 494Q86 538 103 577T149 646T218 693T301 710Q381 710 434 657T488 524Q488 480 471 441T425 373T356 326T274 308Q194 308 140 361T86 494ZM400 520Q400 568 371 599T296 630Q246
630 210 591T174 498Q174 450 203 419T279 387Q328 387 364 426T400 520Z" />
<glyph unicode="&#xbb;" glyph-name="guillemotright" horiz-adv-x="679" d="M252 0L527 252L364 501H474L643 250L365 0H252ZM-1 0L274 252L111 501H221L390 250L112 0H-1Z" />
<glyph unicode="&#xbc;" glyph-name="onequarter" horiz-adv-x="642" d="M597 350L552 138H594L581 81H540L523 0H454L471 81H283L296 139L518 350H597ZM368 138H483L513 277L368 138ZM251 700L176 350H107L166 627L94 599L107 661L208 700H251ZM79 0H1L537 700H617L79
0Z" />
<glyph unicode="&#xbd;" glyph-name="onehalf" horiz-adv-x="672" d="M251 700L176 350H107L166 627L94 599L107 661L208 700H251ZM76 0H-2L534 700H614L76 0ZM346 0L357 50L528 188Q550 204 561 220T572 252Q572 271 557 282T516 294Q497 294 476 285T428 256L400
306Q432 330 465 343T529 356Q578 356 609 331T641 266Q641 237 626 212T575 159L451 59H605L592 0H346Z" />
<glyph unicode="&#xbe;" glyph-name="threequarters" horiz-adv-x="736" d="M331 455Q331 409 290 377T190 345Q146 345 112 359T55 403L102 449Q121 428 144 418T194 407Q222 407 242 420T262 453Q262 473 248 484T210 496H174L186 552H215Q245 552 264 565T284
599Q284 618 268 630T229 643Q210 643 189 635T141 611L108 662Q139 684 173 695T239 706Q290 706 323 679T356 611Q356 581 331 557T269 524Q298 517 314 499T331 455ZM690 350L645 138H687L674 81H633L616 0H547L564 81H376L389 139L611 350H690ZM461 138H576L606
277L461 138ZM172 0H94L630 700H710L172 0Z" />
<glyph unicode="&#xbf;" glyph-name="questiondown" horiz-adv-x="513" d="M175 350L220 376Q257 397 274 421T298 485H389Q379 420 353 381T276 311L216 274Q180 252 161 226T142 171Q142 135 171 113T246 91Q287 91 326 111T393 169L468 121Q424 61 361 28T231
-6Q144 -6 89 38T34 155Q34 212 67 259T175 350ZM364 571Q338 571 321 589T304 633Q304 664 327 687T380 711Q406 711 423 694T441 650Q441 618 418 595T364 571Z" />
<glyph unicode="&#xc0;" glyph-name="Agrave" horiz-adv-x="683" d="M-48 0L366 700H503L623 0H502L472 196H192L81 0H-48ZM245 290H458L412 587L245 290ZM377 923L499 790H398L235 923H377Z" />
<glyph unicode="&#xc1;" glyph-name="Aacute" horiz-adv-x="683" d="M-48 0L366 700H503L623 0H502L472 196H192L81 0H-48ZM245 290H458L412 587L245 290ZM530 923H673L484 790H381L530 923Z" />
<glyph unicode="&#xc2;" glyph-name="Acircumflex" horiz-adv-x="683" d="M-48 0L366 700H503L623 0H502L472 196H192L81 0H-48ZM245 290H458L412 587L245 290ZM537 787L467 873L364 787H274L419 925H531L621 787H537Z" />
<glyph unicode="&#xc3;" glyph-name="Atilde" horiz-adv-x="683" d="M-48 0L366 700H503L623 0H502L472 196H192L81 0H-48ZM245 290H458L412 587L245 290ZM332 788L268 810Q294 867 324 895T389 924Q413 924 433 914T472 891T506 868T537 857Q550 857 560 870T588
920L653 898Q627 842 598 814T535 785Q511 785 491 795T453 818T419 840T388 851Q372 851 360 837T332 788Z" />
<glyph unicode="&#xc4;" glyph-name="Adieresis" horiz-adv-x="683" d="M-48 0L366 700H503L623 0H502L472 196H192L81 0H-48ZM245 290H458L412 587L245 290ZM354 796Q331 796 315 812T299 854Q299 883 320 904T369 926Q392 926 408 910T424 869Q424 841 403 819T354
796ZM554 796Q531 796 515 812T498 854Q498 882 519 904T569 926Q592 926 608 910T624 869Q624 841 603 819T554 796Z" />
<glyph unicode="&#xc5;" glyph-name="Aring" horiz-adv-x="683" d="M-48 0L366 700H503L623 0H502L472 196H192L81 0H-48ZM245 290H458L412 587L245 290ZM456 778Q410 778 380 807T350 881Q350 932 388 971T478 1011Q524 1011 554 982T584 907Q584 856 546 817T456
778ZM459 829Q488 829 509 850T531 903Q531 928 515 944T475 960Q446 960 425 938T403 886Q403 861 419 845T459 829Z" />
<glyph unicode="&#xc6;" glyph-name="AE" horiz-adv-x="932" d="M-48 0L368 700H972L950 595H532L558 404H786L764 302H571L598 105H846L824 0H495L469 196H188L74 0H-48ZM243 290H456L416 587L243 290Z" />
<glyph unicode="&#xc7;" glyph-name="Ccedilla" horiz-adv-x="712" d="M410 97Q461 97 511 119T601 182L665 103Q611 49 541 20T400 -10L376 -63Q416 -67 437 -86T459 -137Q459 -183 423 -214T333 -245Q295 -245 265 -234T215 -201L256 -159Q271 -175 290 -183T331
-192Q360 -192 377 -179T395 -144Q395 -125 379 -114T337 -103H303L345 -6Q286 3 235 31T148 103T91 202T70 321Q70 401 100 472T181 595T302 678T448 709Q536 709 605 675T717 575L626 499Q597 549 549 576T442 603Q390 603 344 582T264 523T211 435T191 327Q191
277 207 235T253 163T322 115T410 97Z" />
<glyph unicode="&#xc8;" glyph-name="Egrave" horiz-adv-x="630" d="M28 0L177 700H668L645 598H272L231 403H492L471 303H209L167 102H545L523 0H28ZM365 923L487 790H386L223 923H365Z" />
<glyph unicode="&#xc9;" glyph-name="Eacute" horiz-adv-x="630" d="M28 0L177 700H668L645 598H272L231 403H492L471 303H209L167 102H545L523 0H28ZM518 923H661L472 790H369L518 923Z" />
<glyph unicode="&#xca;" glyph-name="Ecircumflex" horiz-adv-x="630" d="M28 0L177 700H668L645 598H272L231 403H492L471 303H209L167 102H545L523 0H28ZM525 787L455 873L352 787H262L407 925H519L609 787H525Z" />
<glyph unicode="&#xcb;" glyph-name="Edieresis" horiz-adv-x="630" d="M28 0L177 700H668L645 598H272L231 403H492L471 303H209L167 102H545L523 0H28ZM342 796Q319 796 303 812T287 854Q287 883 308 904T357 926Q380 926 396 910T412 869Q412 841 391 819T342
796ZM542 796Q519 796 503 812T486 854Q486 882 507 904T557 926Q580 926 596 910T612 869Q612 841 591 819T542 796Z" />
<glyph unicode="&#xcc;" glyph-name="Igrave" horiz-adv-x="272" d="M22 0L171 700H289L140 0H22ZM179 923L301 790H200L37 923H179Z" />
<glyph unicode="&#xcd;" glyph-name="Iacute" horiz-adv-x="272" d="M22 0L171 700H289L140 0H22ZM331 923H474L285 790H182L331 923Z" />
<glyph unicode="&#xce;" glyph-name="Icircumflex" horiz-adv-x="272" d="M22 0L171 700H289L140 0H22ZM338 787L268 873L165 787H75L220 925H332L422 787H338Z" />
<glyph unicode="&#xcf;" glyph-name="Idieresis" horiz-adv-x="272" d="M22 0L171 700H289L140 0H22ZM155 796Q132 796 116 812T100 854Q100 883 121 904T170 926Q193 926 209 910T225 869Q225 841 204 819T155 796ZM355 796Q332 796 316 812T299 854Q299 882
320 904T370 926Q393 926 409 910T425 869Q425 841 404 819T355 796Z" />
<glyph unicode="&#xd0;" glyph-name="Eth" horiz-adv-x="753" d="M51 0L115 302H28L49 399H136L200 700H419Q485 700 541 677T637 613T699 515T722 389Q722 310 691 239T608 115T485 31T335 0H51ZM409 596H295L253 399H409L388 302H232L190 104H348Q400 104 446
126T526 185T580 274T600 382Q600 476 547 536T409 596Z" />
<glyph unicode="&#xd1;" glyph-name="Ntilde" horiz-adv-x="747" d="M177 700H291L541 180L647 700H758L609 0H504L248 534L139 0H28L177 700ZM363 788L299 810Q325 867 355 895T420 924Q444 924 464 914T503 891T537 868T568 857Q581 857 591 870T619 920L684
898Q658 842 629 814T566 785Q542 785 522 795T484 818T450 840T419 851Q403 851 391 837T363 788Z" />
<glyph unicode="&#xd2;" glyph-name="Ograve" horiz-adv-x="796" d="M765 380Q765 300 736 229T655 104T536 20T392 -11Q323 -11 264 14T162 84T95 188T70 320Q70 400 99 471T180 596T299 680T443 711Q512 711 571 686T673 616T740 512T765 380ZM645 373Q645 423
629 465T586 538T520 586T436 604Q385 604 340 582T262 523T210 435T190 327Q190 278 206 236T250 163T316 115T400 97Q450 97 495 118T573 177T625 265T645 373ZM403 923L525 790H424L261 923H403Z" />
<glyph unicode="&#xd3;" glyph-name="Oacute" horiz-adv-x="796" d="M765 380Q765 300 736 229T655 104T536 20T392 -11Q323 -11 264 14T162 84T95 188T70 320Q70 400 99 471T180 596T299 680T443 711Q512 711 571 686T673 616T740 512T765 380ZM645 373Q645 423
629 465T586 538T520 586T436 604Q385 604 340 582T262 523T210 435T190 327Q190 278 206 236T250 163T316 115T400 97Q450 97 495 118T573 177T625 265T645 373ZM555 923H698L509 790H406L555 923Z" />
<glyph unicode="&#xd4;" glyph-name="Ocircumflex" horiz-adv-x="796" d="M765 380Q765 300 736 229T655 104T536 20T392 -11Q323 -11 264 14T162 84T95 188T70 320Q70 400 99 471T180 596T299 680T443 711Q512 711 571 686T673 616T740 512T765 380ZM645 373Q645
423 629 465T586 538T520 586T436 604Q385 604 340 582T262 523T210 435T190 327Q190 278 206 236T250 163T316 115T400 97Q450 97 495 118T573 177T625 265T645 373ZM563 787L493 873L390 787H300L445 925H557L647 787H563Z" />
<glyph unicode="&#xd5;" glyph-name="Otilde" horiz-adv-x="796" d="M765 380Q765 300 736 229T655 104T536 20T392 -11Q323 -11 264 14T162 84T95 188T70 320Q70 400 99 471T180 596T299 680T443 711Q512 711 571 686T673 616T740 512T765 380ZM645 373Q645 423
629 465T586 538T520 586T436 604Q385 604 340 582T262 523T210 435T190 327Q190 278 206 236T250 163T316 115T400 97Q450 97 495 118T573 177T625 265T645 373ZM357 788L293 810Q319 867 349 895T414 924Q438 924 458 914T497 891T531 868T562 857Q575 857 585
870T613 920L678 898Q652 842 623 814T560 785Q536 785 516 795T478 818T444 840T413 851Q397 851 385 837T357 788Z" />
<glyph unicode="&#xd6;" glyph-name="Odieresis" horiz-adv-x="796" d="M765 380Q765 300 736 229T655 104T536 20T392 -11Q323 -11 264 14T162 84T95 188T70 320Q70 400 99 471T180 596T299 680T443 711Q512 711 571 686T673 616T740 512T765 380ZM645 373Q645
423 629 465T586 538T520 586T436 604Q385 604 340 582T262 523T210 435T190 327Q190 278 206 236T250 163T316 115T400 97Q450 97 495 118T573 177T625 265T645 373ZM379 796Q356 796 340 812T324 854Q324 883 345 904T394 926Q417 926 433 910T449 869Q449 841
428 819T379 796ZM579 796Q556 796 540 812T523 854Q523 882 544 904T594 926Q617 926 633 910T649 869Q649 841 628 819T579 796Z" />
<glyph unicode="&#xd7;" glyph-name="multiply" horiz-adv-x="536" d="M105 147L61 206L237 361L128 515L190 569L298 416L472 569L516 510L341 355L449 202L387 148L279 301L105 147Z" />
<glyph unicode="&#xd8;" glyph-name="Oslash" horiz-adv-x="797" d="M112 -5H4L131 120Q102 161 86 212T70 320Q70 400 99 471T180 596T299 680T443 711Q504 711 558 691T654 634L726 705H835L705 577Q733 537 749 487T765 380Q765 300 736 229T655 104T536 20T392
-11Q332 -11 278 9T183 64L112 -5ZM190 327Q190 293 197 263T219 206L571 553Q544 577 510 590T436 604Q385 604 340 582T262 523T210 435T190 327ZM645 373Q645 406 638 436T618 492L266 146Q293 123 327 110T400 97Q450 97 495 118T573 177T625 265T645 373Z"
/>
<glyph unicode="&#xd9;" glyph-name="Ugrave" horiz-adv-x="714" d="M650 282Q621 144 537 67T331 -10Q260 -10 207 14T121 81T78 185T82 318L163 700H281L198 308Q178 215 217 157T338 98Q410 98 463 149T535 291L622 700H739L650 282ZM390 923L512 790H411L248
923H390Z" />
<glyph unicode="&#xda;" glyph-name="Uacute" horiz-adv-x="714" d="M650 282Q621 144 537 67T331 -10Q260 -10 207 14T121 81T78 185T82 318L163 700H281L198 308Q178 215 217 157T338 98Q410 98 463 149T535 291L622 700H739L650 282ZM543 923H686L497 790H394L543
923Z" />
<glyph unicode="&#xdb;" glyph-name="Ucircumflex" horiz-adv-x="714" d="M650 282Q621 144 537 67T331 -10Q260 -10 207 14T121 81T78 185T82 318L163 700H281L198 308Q178 215 217 157T338 98Q410 98 463 149T535 291L622 700H739L650 282ZM550 787L480 873L377
787H287L432 925H544L634 787H550Z" />
<glyph unicode="&#xdc;" glyph-name="Udieresis" horiz-adv-x="714" d="M650 282Q621 144 537 67T331 -10Q260 -10 207 14T121 81T78 185T82 318L163 700H281L198 308Q178 215 217 157T338 98Q410 98 463 149T535 291L622 700H739L650 282ZM367 796Q344 796 328
812T312 854Q312 883 333 904T382 926Q405 926 421 910T437 869Q437 841 416 819T367 796ZM567 796Q544 796 528 812T511 854Q511 882 532 904T582 926Q605 926 621 910T637 869Q637 841 616 819T567 796Z" />
<glyph unicode="&#xdd;" glyph-name="Yacute" horiz-adv-x="674" d="M223 0L281 277L100 700H225L358 380L624 700H763L398 274L341 0H223ZM518 923H661L472 790H369L518 923Z" />
<glyph unicode="&#xde;" glyph-name="Thorn" horiz-adv-x="671" d="M29 0L178 700H295L266 565H413Q514 565 570 515T627 377Q627 324 608 280T555 205T472 157T366 139H176L146 0H29ZM388 463H245L196 237H359Q429 237 468 271T508 369Q508 416 478 439T388 463Z" />
<glyph unicode="&#xdf;" glyph-name="germandbls" horiz-adv-x="662" d="M411 360Q411 347 420 336T447 316L512 284Q562 259 586 227T610 153Q610 81 558 34T425 -13Q365 -13 314 10T229 76L292 141Q317 108 351 90T424 72Q462 72 485 92T509 144Q509 166 495
181T446 212L377 245Q342 261 325 286T307 346Q307 401 338 429T406 478T475 521T506 585Q506 619 473 644T390 669Q327 669 286 630T229 516L124 0H13L121 530Q143 642 214 703T392 765Q441 765 482 752T554 716T601 661T618 590Q618 530 586 497T515 442T444
404T411 360Z" />
<glyph unicode="&#xe0;" glyph-name="agrave" horiz-adv-x="541" d="M185 -6Q112 -6 68 31T24 132Q24 205 77 249T221 293Q261 293 299 284T369 258L378 300Q391 357 364 386T271 415Q243 415 211 408T135 384L108 467Q162 487 208 497T298 508Q407 508 458 453T489
304L422 0H312L322 45Q286 18 253 6T185 -6ZM128 142Q128 109 153 91T225 73Q255 73 282 81T336 109L355 194Q331 207 301 213T235 220Q186 220 157 199T128 142ZM502 724L624 591H523L360 724H502Z" />
<glyph unicode="&#xe1;" glyph-name="aacute" horiz-adv-x="541" d="M185 -6Q112 -6 68 31T24 132Q24 205 77 249T221 293Q261 293 299 284T369 258L378 300Q391 357 364 386T271 415Q243 415 211 408T135 384L108 467Q162 487 208 497T298 508Q407 508 458 453T489
304L422 0H312L322 45Q286 18 253 6T185 -6ZM128 142Q128 109 153 91T225 73Q255 73 282 81T336 109L355 194Q331 207 301 213T235 220Q186 220 157 199T128 142ZM398 724H541L352 591H249L398 724Z" />
<glyph unicode="&#xe2;" glyph-name="acircumflex" horiz-adv-x="541" d="M185 -6Q112 -6 68 31T24 132Q24 205 77 249T221 293Q261 293 299 284T369 258L378 300Q391 357 364 386T271 415Q243 415 211 408T135 384L108 467Q162 487 208 497T298 508Q407 508 458
453T489 304L422 0H312L322 45Q286 18 253 6T185 -6ZM128 142Q128 109 153 91T225 73Q255 73 282 81T336 109L355 194Q331 207 301 213T235 220Q186 220 157 199T128 142ZM662 588L592 674L489 588H399L544 726H656L746 588H662Z" />
<glyph unicode="&#xe3;" glyph-name="atilde" horiz-adv-x="541" d="M185 -6Q112 -6 68 31T24 132Q24 205 77 249T221 293Q261 293 299 284T369 258L378 300Q391 357 364 386T271 415Q243 415 211 408T135 384L108 467Q162 487 208 497T298 508Q407 508 458 453T489
304L422 0H312L322 45Q286 18 253 6T185 -6ZM128 142Q128 109 153 91T225 73Q255 73 282 81T336 109L355 194Q331 207 301 213T235 220Q186 220 157 199T128 142ZM456 589L392 611Q418 668 448 696T513 725Q537 725 557 715T596 692T630 669T661 658Q674 658 684
671T712 721L777 699Q751 643 722 615T659 586Q635 586 615 596T577 619T543 641T512 652Q496 652 484 638T456 589Z" />
<glyph unicode="&#xe4;" glyph-name="adieresis" horiz-adv-x="541" d="M185 -6Q112 -6 68 31T24 132Q24 205 77 249T221 293Q261 293 299 284T369 258L378 300Q391 357 364 386T271 415Q243 415 211 408T135 384L108 467Q162 487 208 497T298 508Q407 508 458
453T489 304L422 0H312L322 45Q286 18 253 6T185 -6ZM128 142Q128 109 153 91T225 73Q255 73 282 81T336 109L355 194Q331 207 301 213T235 220Q186 220 157 199T128 142ZM479 597Q456 597 440 613T424 655Q424 684 445 705T494 727Q517 727 533 711T549 670Q549
642 528 620T479 597ZM679 597Q656 597 640 613T623 655Q623 683 644 705T694 727Q717 727 733 711T749 670Q749 642 728 620T679 597Z" />
<glyph unicode="&#xe5;" glyph-name="aring" horiz-adv-x="541" d="M185 -6Q112 -6 68 31T24 132Q24 205 77 249T221 293Q261 293 299 284T369 258L378 300Q391 357 364 386T271 415Q243 415 211 408T135 384L108 467Q162 487 208 497T298 508Q407 508 458 453T489
304L422 0H312L322 45Q286 18 253 6T185 -6ZM128 142Q128 109 153 91T225 73Q255 73 282 81T336 109L355 194Q331 207 301 213T235 220Q186 220 157 199T128 142ZM580 579Q534 579 504 608T474 682Q474 733 512 772T602 812Q648 812 678 783T708 708Q708 657 670
618T580 579ZM583 630Q612 630 633 651T655 704Q655 729 639 745T599 761Q570 761 549 739T527 687Q527 662 543 646T583 630Z" />
<glyph unicode="&#xe6;" glyph-name="ae" horiz-adv-x="869" d="M201 -6Q126 -6 80 32T34 133Q34 205 87 249T227 293Q262 293 296 287T358 267Q359 274 360 282T364 297L365 305Q376 359 349 387T259 415Q232 415 200 408T125 384L98 467Q153 488 199 498T289
508Q345 508 384 489T444 436Q480 471 525 489T619 508Q711 508 769 446T828 286Q828 268 827 253T823 223H462Q463 163 502 124T599 84Q632 84 662 94T714 125L774 51Q728 19 684 5T590 -10Q531 -10 483 12T403 74Q355 33 306 14T201 -6ZM612 415Q562 415 524
381T471 292H727Q724 346 692 380T612 415ZM135 142Q135 109 161 91T233 73Q270 73 305 87T372 128Q365 144 361 161T355 197Q331 209 303 214T241 220Q193 220 164 199T135 142Z" />
<glyph unicode="&#xe7;" glyph-name="ccedilla" horiz-adv-x="511" d="M285 89Q317 89 346 100T401 134L455 63Q420 31 377 13T287 -9L263 -63Q303 -67 324 -86T346 -137Q346 -183 310 -214T220 -245Q182 -245 152 -234T102 -201L143 -159Q158 -175 177 -183T218
-192Q247 -192 264 -179T282 -144Q282 -125 266 -114T224 -103H190L232 -7Q150 4 98 66T45 217Q45 277 66 330T125 422T212 485T318 508Q379 508 432 481T516 407L436 341Q415 375 385 391T315 408Q283 408 254 394T203 354T169 296T156 226Q156 166 192 128T285
89Z" />
<glyph unicode="&#xe8;" glyph-name="egrave" horiz-adv-x="562" d="M465 51Q419 19 375 5T281 -10Q230 -10 186 7T111 55T63 129T45 223Q45 281 66 333T122 424T206 485T309 508Q402 508 460 446T518 287Q518 268 517 253T514 223H153Q154 163 193 124T290 84Q322
84 352 94T404 125L465 51ZM303 415Q253 415 215 381T162 292H418Q414 346 383 380T303 415ZM514 724L636 591H535L372 724H514Z" />
<glyph unicode="&#xe9;" glyph-name="eacute" horiz-adv-x="562" d="M465 51Q419 19 375 5T281 -10Q230 -10 186 7T111 55T63 129T45 223Q45 281 66 333T122 424T206 485T309 508Q402 508 460 446T518 287Q518 268 517 253T514 223H153Q154 163 193 124T290 84Q322
84 352 94T404 125L465 51ZM303 415Q253 415 215 381T162 292H418Q414 346 383 380T303 415ZM410 724H553L364 591H261L410 724Z" />
<glyph unicode="&#xea;" glyph-name="ecircumflex" horiz-adv-x="562" d="M465 51Q419 19 375 5T281 -10Q230 -10 186 7T111 55T63 129T45 223Q45 281 66 333T122 424T206 485T309 508Q402 508 460 446T518 287Q518 268 517 253T514 223H153Q154 163 193 124T290
84Q322 84 352 94T404 125L465 51ZM303 415Q253 415 215 381T162 292H418Q414 346 383 380T303 415ZM673 588L603 674L500 588H410L555 726H667L757 588H673Z" />
<glyph unicode="&#xeb;" glyph-name="edieresis" horiz-adv-x="562" d="M465 51Q419 19 375 5T281 -10Q230 -10 186 7T111 55T63 129T45 223Q45 281 66 333T122 424T206 485T309 508Q402 508 460 446T518 287Q518 268 517 253T514 223H153Q154 163 193 124T290
84Q322 84 352 94T404 125L465 51ZM303 415Q253 415 215 381T162 292H418Q414 346 383 380T303 415ZM490 597Q467 597 451 613T435 655Q435 684 456 705T505 727Q528 727 544 711T560 670Q560 642 539 620T490 597ZM690 597Q667 597 651 613T634 655Q634 683 655
705T705 727Q728 727 744 711T760 670Q760 642 739 620T690 597Z" />
<glyph unicode="&#xec;" glyph-name="igrave" horiz-adv-x="249" d="M235 501L126 0H14L123 501H235ZM127 724L249 591H148L-15 724H127Z" />
<glyph unicode="&#xed;" glyph-name="iacute" horiz-adv-x="249" d="M235 501L126 0H14L123 501H235ZM535 724H678L489 591H386L535 724Z" />
<glyph unicode="&#xee;" glyph-name="icircumflex" horiz-adv-x="249" d="M235 501L126 0H14L123 501H235ZM287 588L217 674L114 588H24L169 726H281L371 588H287Z" />
<glyph unicode="&#xef;" glyph-name="idieresis" horiz-adv-x="249" d="M235 501L126 0H14L123 501H235ZM103 597Q80 597 64 613T48 655Q48 684 69 705T118 727Q141 727 157 711T173 670Q173 642 152 620T103 597ZM303 597Q280 597 264 613T247 655Q247 683 268
705T318 727Q341 727 357 711T373 670Q373 642 352 620T303 597Z" />
<glyph unicode="&#xf0;" glyph-name="eth" horiz-adv-x="581" d="M305 521L280 583L360 623Q344 639 325 653T284 678L351 749Q380 732 405 712T451 669L557 722L583 660L491 614Q522 565 537 505T553 376Q553 292 532 221T472 100T381 20T266 -9Q170 -9 110 53T49
212Q49 267 67 315T118 398T195 453T290 473Q350 473 395 446T457 375Q457 429 444 479T403 570L305 521ZM271 88Q301 88 329 101T377 138T410 191T423 255Q423 311 389 348T303 386Q272 386 245 373T196 336T163 283T150 219Q150 162 184 125T271 88Z" />
<glyph unicode="&#xf1;" glyph-name="ntilde" horiz-adv-x="571" d="M14 0L123 501H235L219 426Q253 466 293 486T379 507Q459 507 498 454T519 317L451 0H340L403 291Q416 347 392 382T316 418Q285 418 258 405T205 364L126 0H14ZM239 589L175 611Q201 668 231
696T296 725Q320 725 340 715T379 692T413 669T444 658Q457 658 467 671T495 721L560 699Q534 643 505 615T442 586Q418 586 398 596T360 619T326 641T295 652Q279 652 267 638T239 589Z" />
<glyph unicode="&#xf2;" glyph-name="ograve" horiz-adv-x="588" d="M46 224Q46 283 67 335T125 425T211 486T317 509Q366 509 407 492T478 444T524 370T541 276Q541 217 520 165T462 74T376 13T271 -10Q222 -10 181 7T110 56T63 130T46 224ZM277 88Q342 88 387
142T432 274Q432 336 399 374T310 413Q278 413 250 399T201 359T168 300T156 228Q156 165 189 127T277 88ZM523 724L645 591H544L381 724H523Z" />
<glyph unicode="&#xf3;" glyph-name="oacute" horiz-adv-x="588" d="M46 224Q46 283 67 335T125 425T211 486T317 509Q366 509 407 492T478 444T524 370T541 276Q541 217 520 165T462 74T376 13T271 -10Q222 -10 181 7T110 56T63 130T46 224ZM277 88Q342 88 387
142T432 274Q432 336 399 374T310 413Q278 413 250 399T201 359T168 300T156 228Q156 165 189 127T277 88ZM420 724H563L374 591H271L420 724Z" />
<glyph unicode="&#xf4;" glyph-name="ocircumflex" horiz-adv-x="588" d="M46 224Q46 283 67 335T125 425T211 486T317 509Q366 509 407 492T478 444T524 370T541 276Q541 217 520 165T462 74T376 13T271 -10Q222 -10 181 7T110 56T63 130T46 224ZM277 88Q342
88 387 142T432 274Q432 336 399 374T310 413Q278 413 250 399T201 359T168 300T156 228Q156 165 189 127T277 88ZM427 588L357 674L254 588H164L309 726H421L511 588H427Z" />
<glyph unicode="&#xf5;" glyph-name="otilde" horiz-adv-x="588" d="M46 224Q46 283 67 335T125 425T211 486T317 509Q366 509 407 492T478 444T524 370T541 276Q541 217 520 165T462 74T376 13T271 -10Q222 -10 181 7T110 56T63 130T46 224ZM277 88Q342 88 387
142T432 274Q432 336 399 374T310 413Q278 413 250 399T201 359T168 300T156 228Q156 165 189 127T277 88ZM222 589L158 611Q184 668 214 696T279 725Q303 725 323 715T362 692T396 669T427 658Q440 658 450 671T478 721L543 699Q517 643 488 615T425 586Q401 586
381 596T343 619T309 641T278 652Q262 652 250 638T222 589Z" />
<glyph unicode="&#xf6;" glyph-name="odieresis" horiz-adv-x="588" d="M46 224Q46 283 67 335T125 425T211 486T317 509Q366 509 407 492T478 444T524 370T541 276Q541 217 520 165T462 74T376 13T271 -10Q222 -10 181 7T110 56T63 130T46 224ZM277 88Q342 88
387 142T432 274Q432 336 399 374T310 413Q278 413 250 399T201 359T168 300T156 228Q156 165 189 127T277 88ZM500 597Q477 597 461 613T445 655Q445 684 466 705T515 727Q538 727 554 711T570 670Q570 642 549 620T500 597ZM700 597Q677 597 661 613T644 655Q644
683 665 705T715 727Q738 727 754 711T770 670Q770 642 749 620T700 597Z" />
<glyph unicode="&#xf7;" glyph-name="divide" horiz-adv-x="533" d="M325 495Q299 495 281 513T263 557Q263 588 286 612T341 636Q366 636 383 618T401 574Q401 543 378 519T325 495ZM73 313L92 403H503L484 313H73ZM237 83Q211 83 193 101T175 145Q175 176 198
199T253 223Q278 223 295 205T313 161Q313 130 290 107T237 83Z" />
<glyph unicode="&#xf8;" glyph-name="oslash" horiz-adv-x="588" d="M-6 -5L86 86Q67 114 57 149T46 224Q46 283 67 335T125 425T211 486T317 509Q360 509 397 496T462 459L509 506H595L502 414Q521 386 531 351T541 276Q541 217 520 165T462 74T376 13T271 -10Q228
-10 191 3T126 41L79 -5H-6ZM156 228Q156 211 159 195T166 166L388 386Q372 399 353 406T310 413Q278 413 250 399T201 359T168 300T156 228ZM277 88Q342 88 387 142T432 274Q432 290 430 306T422 335L200 115Q215 102 235 95T277 88Z" />
<glyph unicode="&#xf9;" glyph-name="ugrave" horiz-adv-x="570" d="M230 501L167 210Q154 153 178 118T254 83Q285 83 313 96T366 138L444 501H556L447 0H336L352 76Q318 36 278 15T191 -6Q113 -6 73 48T51 184L119 501H230ZM273 724L395 591H294L131 724H273Z" />
<glyph unicode="&#xfa;" glyph-name="uacute" horiz-adv-x="570" d="M230 501L167 210Q154 153 178 118T254 83Q285 83 313 96T366 138L444 501H556L447 0H336L352 76Q318 36 278 15T191 -6Q113 -6 73 48T51 184L119 501H230ZM425 724H568L379 591H276L425 724Z" />
<glyph unicode="&#xfb;" glyph-name="ucircumflex" horiz-adv-x="570" d="M230 501L167 210Q154 153 178 118T254 83Q285 83 313 96T366 138L444 501H556L447 0H336L352 76Q318 36 278 15T191 -6Q113 -6 73 48T51 184L119 501H230ZM432 588L362 674L259 588H169L314
726H426L516 588H432Z" />
<glyph unicode="&#xfc;" glyph-name="udieresis" horiz-adv-x="570" d="M230 501L167 210Q154 153 178 118T254 83Q285 83 313 96T366 138L444 501H556L447 0H336L352 76Q318 36 278 15T191 -6Q113 -6 73 48T51 184L119 501H230ZM505 597Q482 597 466 613T450
655Q450 684 471 705T520 727Q543 727 559 711T575 670Q575 642 554 620T505 597ZM705 597Q682 597 666 613T649 655Q649 683 670 705T720 727Q743 727 759 711T775 670Q775 642 754 620T705 597Z" />
<glyph unicode="&#xfd;" glyph-name="yacute" horiz-adv-x="527" d="M113 -59L143 -7L63 501H179L229 121L448 501H570L217 -90Q179 -153 133 -182T27 -212Q12 -212 -4 -210T-43 -201L-23 -105Q-9 -108 2 -109T22 -111Q53 -111 75 -99T113 -59ZM410 724H553L364
591H261L410 724Z" />
<glyph unicode="&#xfe;" glyph-name="thorn" horiz-adv-x="599" d="M-30 -202L165 715L279 734L217 443Q245 472 281 488T358 504Q399 504 434 487T496 439T537 367T552 277Q552 219 532 167T477 77T396 17T296 -6Q245 -6 205 16T141 80L81 -202H-30ZM312 410Q281
410 253 398T200 361L157 158Q175 127 208 109T279 90Q348 90 395 141T443 267Q443 330 406 370T312 410Z" />
<glyph unicode="&#xff;" glyph-name="ydieresis" horiz-adv-x="527" d="M113 -59L143 -7L63 501H179L229 121L448 501H570L217 -90Q179 -153 133 -182T27 -212Q12 -212 -4 -210T-43 -201L-23 -105Q-9 -108 2 -109T22 -111Q53 -111 75 -99T113 -59ZM490 597Q467
597 451 613T435 655Q435 684 456 705T505 727Q528 727 544 711T560 670Q560 642 539 620T490 597ZM690 597Q667 597 651 613T634 655Q634 683 655 705T705 727Q728 727 744 711T760 670Q760 642 739 620T690 597Z" />
<glyph unicode="&#x2013;" glyph-name="endash" horiz-adv-x="546" d="M72 331H506L485 236H51L72 331Z" />
<glyph unicode="&#x2014;" glyph-name="emdash" horiz-adv-x="685" d="M72 331H646L625 236H51L72 331Z" />
<glyph unicode="&#x2018;" glyph-name="quoteleft" horiz-adv-x="245" d="M202 486H89L237 750H319L202 486Z" />
<glyph unicode="&#x2019;" glyph-name="quoteright" horiz-adv-x="245" d="M216 750H329L181 486H99L216 750Z" />
<glyph unicode="&#x201a;" glyph-name="quotesinglbase" horiz-adv-x="225" d="M46 98H159L11 -166H-71L46 98Z" />
<glyph unicode="&#x201c;" glyph-name="quotedblleft" horiz-adv-x="436" d="M199 486H86L234 750H316L199 486ZM390 486H277L425 750H507L390 486Z" />
<glyph unicode="&#x201d;" glyph-name="quotedblright" horiz-adv-x="436" d="M407 750H520L372 486H290L407 750ZM216 750H329L181 486H99L216 750Z" />
<glyph unicode="&#x201e;" glyph-name="quotedblbase" horiz-adv-x="418" d="M239 98H352L204 -166H122L239 98ZM46 98H159L11 -166H-71L46 98Z" />
<glyph unicode="&#x2022;" glyph-name="bullet" horiz-adv-x="351" d="M181 231Q141 231 114 258T87 327Q87 376 122 413T207 450Q247 450 273 423T299 354Q299 305 264 268T181 231Z" />
<glyph unicode="&#x2039;" glyph-name="guilsinglleft" horiz-adv-x="418" d="M427 501L152 249L315 0H205L36 251L314 501H427Z" />
<glyph unicode="&#x203a;" glyph-name="guilsinglright" horiz-adv-x="426" d="M-1 0L274 252L111 501H221L390 250L112 0H-1Z" />
</font>
</defs>
</svg>
