<?xml version="1.0" standalone="no"?>
<!DOCTYPE svg PUBLIC "-//W3C//DTD SVG 1.1//EN" "http://www.w3.org/Graphics/SVG/1.1/DTD/svg11.dtd">
<svg xmlns="http://www.w3.org/2000/svg">
<defs >
<font id="Petrona" horiz-adv-x="544" ><font-face
    font-family="Petrona Medium"
    units-per-em="1000"
    panose-1="0 0 0 0 0 0 0 0 0 0"
    ascent="858"
    descent="-270"
    alphabetic="0" />
<glyph unicode=" " horiz-adv-x="223" />
<glyph unicode="!" horiz-adv-x="234" d="M117 183Q102 183 90 187Q86 254 82 319T75 440T69 536T67 594Q67 625 78 640T117 655Q144 655 155 640T166 594Q166 576 164 536T159 441T151 320T144 187Q132 183 117 183ZM118 -12Q92 -12 78 3T63 43Q63 66 80 81T118
96Q145 96 159 82T173 43Q173 19 157 4T118 -12Z" />
<glyph unicode="&quot;" horiz-adv-x="280" d="M70 474Q64 474 59 476T50 480Q42 531 37 566T29 625T26 661Q26 686 35 703T70 720Q96 720 105 703T115 661Q115 648 113 625T105 567T91 480Q83 474 70 474ZM210 474Q204 474 199 476T190 480Q182 531 177 566T169
625T166 661Q166 686 175 703T210 720Q236 720 245 703T255 661Q255 648 253 625T245 567T231 480Q223 474 210 474Z" />
<glyph unicode="#" horiz-adv-x="549" d="M171 21Q134 21 120 36L145 185L166 165H17Q13 170 12 178T10 193Q10 201 11 206T13 215H172L147 196L170 343L191 323H46Q42 328 41 336T39 351Q39 359 40 364T42 373H198L173 354L200 518Q236 518 251 503L226 354L212
373H368L351 354L378 518Q416 518 429 503L404 354L382 373H530Q535 368 537 360T539 343Q539 336 538 332T535 323H378L402 343L379 196L357 215H501Q506 210 508 202T510 186Q510 179 509 174T506 165H352L376 185L349 21Q313 21 298 36L323 185L336 165H182L198
185L171 21ZM200 196L188 213H343L326 196L349 343L360 325H207L223 343L200 196Z" />
<glyph unicode="$" horiz-adv-x="521" d="M262 -2Q223 -2 186 4T117 22T55 48L74 185Q78 192 86 195T103 199Q115 199 122 195L130 68L111 99Q137 76 176 62T262 47Q313 47 346 77T380 157Q380 186 368 206T326 247T241 291Q182 319 147 346T96 405T80 481Q80
556 130 600T264 645Q290 645 319 640T379 626T438 601L423 470Q406 470 396 475T383 488L371 587L393 547Q373 569 337 583T263 597Q213 597 184 572T155 502Q155 476 167 455T210 415T295 371Q358 342 395 315T449 255T465 179Q465 126 440 85T370 21T262 -2ZM287
-98Q276 -98 264 -96T242 -90V739Q253 739 265 737T287 731V-98Z" />
<glyph unicode="%" horiz-adv-x="693" d="M95 -12Q79 -12 67 -4T52 16L598 655Q614 655 625 647T641 627L95 -12ZM515 5Q477 5 449 23T406 73T390 141Q390 185 407 223T455 284T527 307Q567 307 595 289T637 241T652 171Q652 126 635 89T588 28T515 5ZM520 35Q552
35 571 66T590 151Q590 210 572 243T522 277Q490 277 472 247T453 161Q453 103 471 69T520 35ZM166 346Q126 346 99 364T56 414T41 482Q41 526 58 564T106 625T178 648Q217 648 245 630T288 582T303 512Q303 468 286 430T239 369T166 346ZM171 376Q204 376 222
407T241 492Q241 551 223 584T173 618Q141 618 123 588T105 502Q105 444 122 410T171 376Z" />
<glyph unicode="&amp;" horiz-adv-x="745" d="M279 -12Q221 -12 172 7T93 64T63 159Q63 210 85 245T144 306T220 353T296 397T354 450T377 523Q377 565 355 590T294 616Q256 616 231 591T206 526Q206 491 227 457T295 368L504 130Q531 101 557 85T616 62T692 55Q692
40 682 25T651 -1T600 -12Q563 -12 521 7T442 70L221 327Q186 369 165 402T135 462T125 513Q125 579 172 617T294 655Q338 655 372 641T427 598T448 529Q448 486 427 456T373 402T303 359T232 315T177 259T156 180Q156 137 175 105T226 54T302 35Q376 35 431 84T516
221T547 425L563 397L461 402Q461 419 464 430T474 446L705 463Q707 460 708 453T709 440Q709 425 701 412T680 392L596 396L616 423Q617 326 594 246T525 108T418 19T279 -12Z" />
<glyph unicode="&apos;" horiz-adv-x="140" d="M70 474Q64 474 59 476T50 480Q42 531 37 566T29 625T26 661Q26 686 35 703T70 720Q96 720 105 703T115 661Q115 648 113 625T105 567T91 480Q83 474 70 474Z" />
<glyph unicode="(" horiz-adv-x="327" d="M292 -268Q274 -268 245 -246T182 -182T120 -76T71 71T52 258Q52 362 71 445T119 592T182 698T244 763T292 785Q314 785 317 761Q275 726 245 671T195 550T166 408T156 257Q156 182 165 108T194 -33T245 -154T317 -244Q314
-268 292 -268Z" />
<glyph unicode=")" horiz-adv-x="327" d="M35 -268Q53 -268 82 -246T145 -182T207 -76T256 71T275 258Q275 362 256 445T208 592T145 698T83 763T35 785Q13 785 10 761Q52 726 82 671T132 550T161 408T171 257Q171 182 162 108T133 -33T82 -154T10 -244Q13 -268 35 -268Z" />
<glyph unicode="*" horiz-adv-x="451" d="M153 380Q140 382 127 389T103 406T88 429L216 547L218 539L44 560Q41 570 41 581Q41 599 48 614T67 637L224 555L218 549L185 724Q193 729 203 731T225 734Q237 734 247 732T265 724L235 551L228 555L382 639Q395 630
401 616T408 582Q408 578 408 574T407 563L234 538L235 545L365 430Q360 418 350 407T326 389T300 381L221 535H229L153 380Z" />
<glyph unicode="+" horiz-adv-x="572" d="M294 74Q284 74 274 76T257 86V504Q261 506 266 506T278 507Q289 507 299 505T315 495V77Q310 76 305 75T294 74ZM84 262Q73 275 73 296Q73 300 74 306T77 318H483Q495 305 495 284Q495 279 495 274T492 262H84Z" />
<glyph unicode="," horiz-adv-x="211" d="M52 -138Q46 -136 41 -129T35 -110Q73 -99 87 -83T102 -47Q102 -29 94 -19T74 -2T53 16T44 45Q44 67 59 81T96 95Q130 95 148 70T166 5Q166 -37 148 -67T104 -115T52 -138Z" />
<glyph unicode="-" horiz-adv-x="360" d="M63 225Q60 230 58 237T55 254Q55 291 102 291Q138 291 167 290T229 289Q248 289 265 291T298 297Q301 291 303 284T305 268Q305 231 259 231Q223 231 194 232T132 233Q112 233 95 231T63 225Z" />
<glyph unicode="." horiz-adv-x="209" d="M104 -12Q78 -12 64 3T49 43Q49 66 66 81T104 96Q131 96 145 82T160 43Q160 19 143 4T104 -12Z" />
<glyph unicode="/" horiz-adv-x="418" d="M91 -200Q70 -200 57 -195T33 -179L327 734Q344 734 357 730T385 713L91 -200Z" />
<glyph unicode="0" horiz-adv-x="667" d="M314 -12Q238 -12 181 25T93 131T61 290Q61 368 83 435T144 551T237 628T354 655Q430 655 486 618T574 512T605 352Q605 274 583 208T522 92T430 15T314 -12ZM335 43Q385 43 422 77T481 173T502 317Q502 453 458 526T331
600Q282 600 245 566T187 470T166 327Q166 191 209 117T335 43Z" />
<glyph unicode="1" horiz-adv-x="397" d="M77 0Q77 18 81 28T93 40L189 63L173 42V607L193 566L51 539Q42 551 42 567Q42 574 43 580T47 592L226 655H269V44L249 66L362 42Q362 28 358 19T343 0H77Z" />
<glyph unicode="2" horiz-adv-x="546" d="M75 0Q61 7 55 18T49 51Q212 178 288 281T365 481Q365 542 336 573T250 605Q178 605 121 550L133 586L124 483Q123 473 112 468T81 463L64 599Q166 655 262 655Q357 655 413 609T469 484Q469 420 428 346T306 193T112
32L98 68L451 47L413 37L442 170Q470 170 485 153V0H75Z" />
<glyph unicode="3" horiz-adv-x="553" d="M148 595L138 486Q137 473 127 467T94 460L78 597Q129 626 179 640T279 655Q370 655 423 614T476 505Q476 442 430 399T293 331V341Q391 323 442 277T494 161Q494 109 465 71T384 10T262 -12Q201 -12 153 6T78 57T51 131Q51
176 91 176Q102 176 112 174T126 166Q126 104 160 72T258 39Q320 39 355 71T390 160Q390 216 355 250T232 310Q222 312 218 321T213 352Q297 373 337 409T378 495Q378 544 346 574T262 604Q226 604 190 588T117 539L148 595Z" />
<glyph unicode="4" horiz-adv-x="512" d="M216 0Q216 18 220 28T232 40L317 59L303 42V591L342 598L53 189L29 217H461V168H35Q4 175 4 213L319 655Q398 655 398 595V44L378 62L467 42Q467 26 463 17T448 0H216Z" />
<glyph unicode="5" horiz-adv-x="553" d="M255 -12Q201 -12 154 7T80 58T52 129Q52 152 63 164T95 176Q104 176 113 174T127 167Q127 107 160 73T254 39Q318 39 356 79T394 187Q394 233 376 269T326 324T252 344Q214 344 175 330T112 293Q99 298 94 306T89 335L115
641H463L443 485Q423 487 413 489T400 496T396 506L387 626L421 594L127 576L164 614V344L121 345Q160 369 199 379T281 390Q346 390 395 367T471 303T498 204Q498 143 466 94T379 17T255 -12Z" />
<glyph unicode="6" horiz-adv-x="590" d="M301 -12Q229 -12 175 24T92 125T63 279Q63 364 83 433T142 552T233 628T352 655Q395 655 429 641T484 604T504 550Q504 531 494 521T464 510Q455 510 446 512T430 519Q428 559 405 581T338 604Q254 604 211 528T168 307Q168
178 205 110T311 42Q367 42 400 82T434 189Q434 257 401 296T311 335Q284 335 252 324T191 293T148 251L147 304Q166 330 198 351T269 383T346 395Q402 395 444 372T510 306T534 207Q534 143 504 94T422 17T301 -12Z" />
<glyph unicode="7" horiz-adv-x="473" d="M221 -12Q207 -12 192 -6T166 21T155 81Q155 126 168 182T211 306T295 450T428 614L435 578L84 592L114 625L108 500Q107 487 94 482T60 476L39 641H459Q469 633 469 622Q469 605 449 574T398 498T336 395T285 271T264
127Q264 93 270 70T289 24Q281 6 264 -3T221 -12Z" />
<glyph unicode="8" horiz-adv-x="578" d="M492 500Q492 459 472 425T420 367T355 326L305 338Q325 351 346 369T382 416T397 489Q397 547 367 574T287 601Q236 601 209 573T181 497Q181 461 199 437T248 396T315 366T388 338T455 303T504 252T523 175Q523 123
496 81T415 13T283 -12Q214 -12 162 10T82 69T54 154Q54 201 79 238T141 302T220 339L271 329Q244 319 218 298T176 246T159 171Q159 104 197 73T293 42Q353 42 386 71T419 152Q419 190 401 215T354 256T289 286T218 313T153 347T105 399T87 476Q87 530 113 570T185
632T294 655Q353 655 397 636T467 582T492 500Z" />
<glyph unicode="9" horiz-adv-x="595" d="M293 657Q368 657 421 621T502 515T531 348Q531 238 496 158T398 33T249 -11Q198 -11 158 3T94 43T70 101Q70 119 80 130T110 141Q119 141 129 138T146 131Q146 87 177 63T260 38Q345 38 386 108T428 328Q428 603 283
603Q226 603 193 564T160 458Q160 392 192 353T280 314Q309 314 341 325T402 355T447 396V344Q428 317 395 297T324 266T246 254Q191 254 149 277T84 342T60 439Q60 503 90 552T172 629T293 657Z" />
<glyph unicode=":" horiz-adv-x="209" d="M104 -12Q78 -12 64 3T49 43Q49 66 66 81T104 96Q131 96 145 82T160 43Q160 19 143 4T104 -12ZM104 327Q78 327 64 342T49 382Q49 405 66 420T104 435Q131 435 145 421T160 382Q160 358 143 343T104 327Z" />
<glyph unicode=";" horiz-adv-x="211" d="M52 -138Q46 -136 41 -129T35 -110Q73 -99 87 -83T102 -47Q102 -29 94 -19T74 -2T53 16T44 45Q44 67 59 81T96 95Q130 95 148 70T166 5Q166 -37 148 -67T104 -115T52 -138ZM100 326Q71 326 55 342T39 386Q39 412 57 428T100
445Q129 445 145 429T161 386Q161 360 143 343T100 326Z" />
<glyph unicode="&lt;" horiz-adv-x="572" d="M492 81Q496 89 496 108Q496 117 495 127T489 142L95 305V273L489 436Q493 440 494 450T496 469Q496 478 495 485T492 497L64 316Q61 312 60 305T58 289Q58 281 59 274T64 262L492 81Z" />
<glyph unicode="=" horiz-adv-x="572" d="M84 351Q73 364 73 385Q73 389 74 395T77 407H483Q495 394 495 373Q495 368 495 363T492 351H84ZM84 429Q73 442 73 463Q73 467 74 473T77 485H483Q495 472 495 451Q495 446 495 441T492 429H84Z" />
<glyph unicode="&gt;" horiz-adv-x="572" d="M80 81Q76 89 76 108Q76 117 77 127T83 142L477 305V273L83 436Q79 440 78 450T76 469Q76 478 77 485T80 497L508 316Q511 312 512 305T514 289Q514 281 513 274T508 262L80 81Z" />
<glyph unicode="?" horiz-adv-x="437" d="M180 183Q166 183 153 187L145 311Q176 319 206 333T263 369T305 421T321 493Q321 549 295 582T217 615Q171 615 144 585T116 491Q110 488 102 485T77 482Q55 482 41 496T26 536Q26 584 76 619T217 655Q307 655 359 612T411
497Q411 461 397 430T358 373T306 330T251 300T203 283L214 296L207 187Q197 183 180 183ZM180 -12Q154 -12 140 3T125 43Q125 66 142 81T180 96Q207 96 221 82T236 43Q236 19 219 4T180 -12Z" />
<glyph unicode="@" horiz-adv-x="874" d="M407 -166Q324 -166 256 -141T139 -69T62 43T35 189Q35 280 67 357T156 490T292 576T463 607Q545 607 613 583T732 516T810 412T838 280Q838 218 819 166T766 75T687 13T588 -9Q553 -9 533 7T513 61Q513 78 517 101T530
154L528 155Q497 81 452 36T347 -9Q290 -9 257 34T223 161Q223 246 253 313T338 420T462 460Q494 460 527 453T589 432T641 401L594 120Q592 108 590 94T587 69Q587 52 595 43T623 34Q652 34 677 53T722 104T752 180T763 273Q763 367 724 432T615 532T448 567Q346
567 270 523T152 398T109 214Q109 106 149 31T262 -83T425 -122Q472 -122 515 -112T595 -85T656 -48L667 -71Q643 -91 608 -113T523 -150T407 -166ZM379 51Q402 51 424 65T467 105T506 163T539 231L520 159L562 395L572 366Q551 391 523 403T463 416Q417 416 382
384T326 297T305 172Q305 111 325 81T379 51Z" />
<glyph unicode="A" horiz-adv-x="654" d="M3 0Q3 18 7 28T19 40L81 60L53 31L273 634Q276 642 285 647T304 653T323 655Q331 655 338 655T354 651L594 34L560 62L651 42Q651 28 647 19T631 0H417Q417 18 421 28T433 40L501 59L493 37L282 576L308 577L109 32L105
63L199 42Q199 28 195 19T178 0H3ZM158 212L170 260H428L442 212H158Z" />
<glyph unicode="B" horiz-adv-x="622" d="M63 0Q63 18 67 27T79 40L147 59L131 42V597L148 579L63 599Q63 614 67 623T82 641H343Q432 641 482 604T533 503Q533 463 514 430T459 375T380 349L382 357Q433 354 473 331T536 271T560 189Q560 132 534 90T459 24T345
0H63ZM327 50Q391 50 425 84T459 182Q459 252 422 287T314 323H217L227 332V57L217 70Q239 61 269 56T327 50ZM227 364L213 381Q218 378 234 377T272 374T313 373Q372 373 404 401T437 482Q437 535 405 563T311 591Q288 591 265 587T217 576L227 585V364Z" />
<glyph unicode="C" horiz-adv-x="654" d="M354 -12Q264 -12 196 27T90 135T52 296Q52 374 78 439T151 552T262 628T401 655Q453 655 501 643T587 606L568 460Q550 460 539 465T526 478L517 577L535 550Q510 571 467 584T378 597Q310 597 260 565T183 472T156 328Q156
242 183 179T260 80T374 44Q425 44 470 65T537 120L517 77L530 218Q555 218 565 214T580 202L586 67Q547 31 484 10T354 -12Z" />
<glyph unicode="D" horiz-adv-x="718" d="M63 0Q63 18 67 28T79 40L147 59L131 42V597L146 579L63 599Q63 614 66 623T80 641H376Q449 641 504 617T595 551T649 456T667 345Q667 284 646 223T585 111T488 31T356 0H63ZM348 52Q402 52 441 73T508 133T549 219T563
319Q563 392 539 454T466 553T346 591Q304 591 270 586T213 572L227 588V55L217 69Q244 60 278 56T348 52Z" />
<glyph unicode="E" horiz-adv-x="604" d="M63 0Q63 18 67 28T79 40L147 59L131 42V597L146 579L63 599Q63 614 67 623T83 641H513V508Q494 508 484 512T471 525L446 602L460 593L216 579L227 592V343L217 350H414L401 343L417 413Q428 413 439 410T459 397V251Q451
242 440 239T417 236L400 309L414 300H217L227 309V55L217 66L485 48L473 34L501 155Q515 155 525 151T543 139V0H63Z" />
<glyph unicode="F" horiz-adv-x="555" d="M63 0Q63 18 67 28T79 40L147 59L131 42V597L146 579L63 599Q63 614 67 623T83 641H513V508Q494 508 484 512T471 525L446 602L460 593L216 578L227 591V333L217 340H415L403 333L418 403Q429 403 440 400T461 387V241Q452
232 441 229T418 226L402 299L415 290H217L227 299V44L209 62L308 42Q308 28 305 19T290 0H63Z" />
<glyph unicode="G" horiz-adv-x="682" d="M355 -12Q264 -12 196 26T90 133T52 294Q52 372 77 437T147 552T255 628T390 655Q441 655 491 643T580 606L562 460Q541 462 531 467T519 481L512 570L524 552Q503 572 460 584T370 597Q304 597 256 565T181 471T154 324Q154
237 181 175T257 78T375 44Q459 44 510 97L493 60V260L508 234L409 254Q409 269 413 278T428 296H634Q634 278 631 269T618 255L564 235L585 261V58Q535 24 476 6T355 -12Z" />
<glyph unicode="H" horiz-adv-x="764" d="M63 0Q63 18 67 28T79 40L147 59L131 42V597L148 579L63 599Q63 614 67 623T83 641H297Q297 623 293 613T281 601L208 582L227 600V339L219 350H541L534 339V597L551 579L465 599Q465 614 469 623T484 641H703Q703 623
699 613T687 601L614 582L629 600V44L613 62L703 42Q703 28 700 19T684 0H465Q465 18 469 28T481 40L550 59L534 42V311L541 300H219L227 311V44L207 62L297 42Q297 28 294 19T279 0H63Z" />
<glyph unicode="I" horiz-adv-x="357" d="M63 0Q63 18 67 28T79 40L147 59L131 42V597L148 579L63 599Q63 614 67 623T83 641H297Q297 623 293 613T281 601L208 582L227 600V44L207 62L297 42Q297 28 294 19T279 0H63Z" />
<glyph unicode="J" horiz-adv-x="309" d="M-7 -188Q-33 -188 -49 -175T-66 -138Q-66 -130 -64 -121T-57 -104Q4 -104 39 -87T90 -30T106 78V600L124 579L38 599Q38 614 42 623T57 641H272Q272 624 268 614T256 601L183 582L202 600V209Q202 126 187 54T143 -72T77
-157T-7 -188Z" />
<glyph unicode="K" horiz-adv-x="630" d="M556 -11Q537 -11 512 2T458 41T394 107T320 200T236 320L480 605L496 579L394 599Q394 615 398 624T412 641H613Q613 604 591 599L515 579L552 610L297 313L311 349Q343 306 382 258T464 164T548 80T624 20Q611 6 594
-2T556 -11ZM63 0Q63 18 67 28T79 40L147 59L131 42V597L148 579L63 599Q63 614 67 623T83 641H297Q297 623 293 613T281 601L208 582L227 600V44L207 62L297 42Q297 28 294 19T279 0H63Z" />
<glyph unicode="L" horiz-adv-x="572" d="M63 0Q63 18 67 28T79 40L147 59L131 42V597L148 579L63 599Q63 614 67 623T83 641H302Q302 623 298 613T286 601L213 582L227 600V55L217 66L478 48L465 34L488 155Q503 155 514 151T533 139V0H63Z" />
<glyph unicode="M" horiz-adv-x="910" d="M441 -3Q437 -3 431 -2T422 1L200 601H227L176 34L168 60L256 43Q256 28 252 19T237 0H48Q48 18 52 28T64 40L134 58L121 30L175 614L182 581L101 599Q101 614 104 623T120 641H288L484 107H444L635 641H818Q818 623 814
613T802 601L725 582L748 616L795 32L782 61L865 43Q865 28 862 19T847 0H626Q626 18 630 28T642 40L716 60L702 28L654 607H680L470 18Q466 7 457 2T441 -3Z" />
<glyph unicode="N" horiz-adv-x="757" d="M601 -2Q590 -2 581 -1T565 2L179 537L192 544V34L184 60L274 42Q274 28 271 19T256 0H63Q63 18 67 28T79 40L151 58L139 29V603L152 581L63 599Q63 614 67 623T81 641H218L618 88L586 79V607L592 581L502 599Q502 614
506 623T521 641H714Q714 623 710 613T698 601L626 583L639 609V22Q639 15 632 10T616 1T601 -2Z" />
<glyph unicode="O" horiz-adv-x="729" d="M345 -12Q258 -12 192 28T89 139T52 297Q52 374 77 439T149 552T255 628T385 655Q472 655 538 615T641 505T678 347Q678 272 653 207T583 93T477 16T345 -12ZM373 45Q433 45 477 79T547 172T572 309Q572 443 515 520T356
597Q301 597 255 565T183 473T156 334Q156 200 214 123T373 45Z" />
<glyph unicode="P" horiz-adv-x="592" d="M63 0Q63 18 67 28T79 40L149 59L132 42V597L147 579L65 599Q65 614 68 623T82 641H349Q416 641 461 618T530 554T554 464Q554 408 525 360T443 283T315 253Q290 253 262 256T210 267H229V36L208 62L307 42Q307 26 304
17T289 0H63ZM229 303L212 321Q226 314 254 311T308 307Q356 307 387 326T434 379T450 452Q450 518 414 554T312 590Q284 590 259 586T213 577L229 592V303Z" />
<glyph unicode="Q" horiz-adv-x="729" d="M583 -183Q553 -183 512 -163T423 -102T323 2L346 32Q395 -4 454 -34T572 -83T678 -102Q664 -140 639 -161T583 -183ZM345 -12Q258 -12 192 28T89 139T52 297Q52 374 77 439T149 552T255 628T385 655Q472 655 538 615T641
505T678 347Q678 272 653 207T583 93T477 16T345 -12ZM373 45Q433 45 477 79T547 172T572 309Q572 443 515 520T356 597Q301 597 255 565T183 473T156 334Q156 200 214 123T373 45Z" />
<glyph unicode="R" horiz-adv-x="659" d="M63 0Q63 18 67 28T79 40L149 59L132 42V597L147 579L65 599Q65 614 68 623T82 641H349Q414 641 458 619T525 558T548 474Q548 421 520 376T439 302T315 274Q290 274 262 278T210 289H229V36L204 62L303 42Q303 26 300
17T285 0H63ZM229 324L212 342Q226 336 254 333T308 329Q355 329 384 347T429 395T445 462Q445 524 410 557T312 590Q284 590 259 586T213 577L229 592V324ZM573 -11Q549 -11 519 8T457 67T391 164T327 299L399 323Q440 250 483 188T567 83T641 21Q627 8 609 -1T573
-11Z" />
<glyph unicode="S" horiz-adv-x="549" d="M275 -12Q244 -12 205 -6T127 12T58 39L79 180Q88 194 108 194Q113 194 119 194T128 191L136 53L117 91Q137 76 164 65T220 46T276 39Q331 39 366 70T401 152Q401 181 389 201T345 242T254 289Q191 318 154 346T101 408T85
486Q85 563 137 609T277 655Q320 655 368 644T461 610L445 475Q427 475 417 480T405 492L391 594L414 553Q393 577 356 591T277 605Q225 605 194 579T163 508Q163 481 175 460T220 418T311 372Q378 343 417 315T472 253T489 174Q489 119 463 77T389 11T275 -12Z"
/>
<glyph unicode="T" horiz-adv-x="629" d="M180 0Q180 18 184 28T196 40L283 64L267 42V592L278 579L92 593L106 602L80 516Q78 507 69 503T40 498V641H590V498Q571 498 562 502T549 516L524 602L538 593L352 579L363 592V44L345 63L463 42Q463 28 460 19T444 0H180Z" />
<glyph unicode="U" horiz-adv-x="711" d="M371 -12Q276 -12 218 16T133 94T106 211V597L124 579L38 599Q38 614 42 623T57 641H272Q272 623 268 613T256 601L183 582L201 600V224Q201 160 223 120T283 60T372 40Q430 40 470 58T532 118T554 226V605L562 581L479
599Q479 614 483 623T497 641H675Q675 623 671 613T659 601L596 583L607 610V214Q607 151 582 100T505 18T371 -12Z" />
<glyph unicode="V" horiz-adv-x="647" d="M324 -12Q316 -12 302 -10T280 -6L59 604L88 579L3 599Q3 614 7 623T22 641H235Q235 623 231 613T219 601L145 582L159 606L357 55H337L526 606L529 581L444 599Q444 614 448 623T462 641H644Q644 623 640 613T628 601L563
583L584 610L379 16Q375 6 365 0T344 -9T324 -12Z" />
<glyph unicode="W" horiz-adv-x="951" d="M306 -12Q298 -12 284 -10T262 -6L59 606L88 580L3 599Q3 614 7 623T22 642H235Q235 624 231 614T219 602L146 582L157 611L336 71H322L471 563H519L682 71H669L833 606V581L748 599Q748 614 752 623T767 641H948Q948
623 944 613T932 601L868 583L889 610L709 16Q705 6 696 0T676 -9T654 -12Q647 -12 633 -10T611 -6L461 447H490L360 16Q357 6 347 0T326 -9T306 -12Z" />
<glyph unicode="X" horiz-adv-x="656" d="M391 0Q391 18 395 28T407 40L483 60L463 31L90 602L124 579L36 599Q36 614 40 623T55 641H276Q276 623 272 613T260 601L184 582L201 607L573 36L543 62L630 43Q630 28 627 19T612 0H391ZM26 0Q26 18 30 28T42 40L114
59L80 32L291 336L337 309L149 37L143 60L232 43Q232 28 229 19T214 0H26ZM364 319L318 346L498 607L502 581L414 599Q414 614 417 623T432 641H620Q620 623 616 613T604 601L533 583L567 612L364 319Z" />
<glyph unicode="Y" horiz-adv-x="616" d="M322 160L55 602L87 579L3 599Q3 614 7 623T22 641H241Q241 623 237 613T225 601L148 582L162 607L356 286L323 283L488 603L497 581L411 599Q411 614 414 623T429 641H613Q613 623 609 613T597 601L529 583L550 608L322
160ZM195 0Q195 18 199 28T211 40L285 59L269 36V275H364V41L345 62L440 42Q440 28 437 19T423 0H195Z" />
<glyph unicode="Z" horiz-adv-x="620" d="M80 0Q54 0 54 25Q54 36 61 46L425 610L430 579L115 593L138 602L112 508Q109 499 100 495T72 490V641H505Q517 641 523 634T530 616Q530 607 523 595L162 37L157 66L502 48L477 34L506 163Q521 163 530 160T547 147V0H80Z" />
<glyph unicode="[" horiz-adv-x="293" d="M63 -258V778H280Q283 771 283 759Q283 750 281 743T276 731H118L160 763V-243L118 -211H275Q279 -216 281 -224T283 -239Q283 -251 281 -258H63Z" />
<glyph unicode="\" horiz-adv-x="418" d="M326 -200Q347 -200 360 -195T384 -179L90 734Q73 734 60 730T32 713L326 -200Z" />
<glyph unicode="]" horiz-adv-x="293" d="M230 -258V778H13Q10 771 10 759Q10 750 12 743T17 731H175L133 763V-243L175 -211H18Q14 -216 12 -224T10 -239Q10 -251 12 -258H230Z" />
<glyph unicode="^" horiz-adv-x="589" d="M126 300Q111 300 102 304T81 317L250 697Q257 702 266 704T286 707Q296 707 305 705T322 697L491 317Q481 308 472 304T446 300L270 671H302L126 300Z" />
<glyph unicode="_" horiz-adv-x="691" d="M106 -174Q104 -169 102 -160T100 -142Q100 -129 102 -122H585Q589 -127 590 -135T591 -152Q591 -168 589 -174H106Z" />
<glyph unicode="`" horiz-adv-x="215" d="M190 514Q121 556 83 580T26 616T4 633T0 644Q0 656 7 668T24 688T45 696Q51 696 58 692T80 674T127 629T215 541Q215 529 207 522T190 514Z" />
<glyph unicode="a" horiz-adv-x="496" d="M148 -12Q102 -12 71 16T40 90Q40 146 76 182T186 236L318 266L305 254V326Q305 379 288 403T234 427Q190 427 167 400T143 320Q137 315 127 312T106 308Q87 308 76 319T65 348Q65 382 88 407T154 447T248 462Q325 462
362 425T399 306V78Q399 61 406 52T427 43Q437 43 450 48T472 61L479 31Q462 11 435 0T384 -12Q349 -12 330 9T311 69H306Q277 30 236 9T148 -12ZM194 42Q227 42 259 60T313 108L306 88V233L320 231L210 205Q169 195 148 172T126 114Q126 81 144 62T194 42Z" />
<glyph unicode="b" horiz-adv-x="547" d="M246 -12Q206 -12 163 -3T82 26V686L93 671L35 683Q19 686 19 722Q62 729 83 731T118 734Q146 734 158 722T171 685V358L167 364H176Q207 410 253 436T347 462Q397 462 433 436T491 362T512 249Q512 171 481 112T390 21T246
-12ZM267 32Q341 32 375 80T410 230Q410 318 384 360T303 402Q273 402 249 391T204 358T164 310L174 334V48L164 67Q191 48 215 40T267 32Z" />
<glyph unicode="c" horiz-adv-x="473" d="M245 -12Q182 -12 135 15T61 91T35 208Q35 283 65 340T148 429T269 462Q316 462 354 447T414 407T437 350Q437 329 424 317T389 304Q379 304 370 307T352 314Q352 368 329 396T260 424Q200 424 168 375T136 235Q136 139
172 90T282 41Q321 41 358 56T427 102L441 75Q420 49 389 29T320 -1T245 -12Z" />
<glyph unicode="d" horiz-adv-x="573" d="M211 -12Q158 -12 119 14T57 89T35 201Q35 278 64 336T145 428T264 462Q294 462 324 456T385 436L377 422V687L389 672L325 683Q311 685 311 722Q352 729 374 731T410 734Q442 734 456 720T470 674V78Q470 61 477 52T499
43Q510 43 522 48T544 60L552 30Q533 11 507 0T455 -12Q421 -12 402 10T383 71H378Q352 36 309 12T211 -12ZM259 47Q288 47 311 56T353 82T389 120L378 98V401L389 376Q366 396 340 407T276 419Q210 419 173 368T136 222Q136 136 167 92T259 47Z" />
<glyph unicode="e" horiz-adv-x="479" d="M243 -12Q180 -12 134 15T61 92T35 206Q35 279 66 337T149 428T263 462Q317 462 356 438T418 372T441 273Q441 253 434 246T416 239H102V275L364 281L353 269Q355 317 343 351T307 405T253 424Q201 424 169 375T136 237Q136
177 153 133T204 65T286 41Q325 41 361 60T426 114L440 86Q419 56 387 34T319 0T243 -12Z" />
<glyph unicode="f" horiz-adv-x="345" d="M60 0Q60 34 76 40L133 60L122 46V418Q122 489 141 547T193 647T267 711T355 734Q386 734 401 722T417 689Q417 682 415 674T409 658H350Q305 658 275 640T231 579T216 464V44L202 63L286 42Q286 26 282 18T267 0H60ZM335
390L48 396Q48 411 51 424T62 443L355 455Q358 450 359 445T360 435Q360 417 353 405T335 390Z" />
<glyph unicode="g" horiz-adv-x="491" d="M236 -270Q145 -270 90 -232T35 -131Q35 -84 82 -84Q94 -84 105 -86T127 -96Q127 -163 159 -198T254 -233Q315 -233 352 -204T389 -127Q389 -96 376 -78T331 -50T239 -35Q160 -28 130 -13T100 38Q100 68 121 97T178 142L194
134Q182 123 176 109T169 80Q169 65 176 57T206 44T275 35Q376 26 422 -6T469 -100Q469 -151 441 -189T360 -249T236 -270ZM221 121Q142 121 95 164T47 283Q47 336 72 376T143 439T247 462Q301 462 341 441T405 383T428 297Q428 245 402 206T330 144T221 121ZM240
159Q284 159 311 193T338 283Q338 351 311 387T232 424Q190 424 165 390T139 299Q139 229 164 194T240 159ZM434 403Q420 403 401 404T364 407T336 414L328 429L476 471Q482 463 484 454T487 437Q487 403 434 403Z" />
<glyph unicode="h" horiz-adv-x="596" d="M38 0Q38 36 54 40L111 60L100 43V686L112 671L54 683Q38 686 38 722Q79 729 100 731T136 734Q164 734 176 721T189 677V357L183 363H195Q235 409 286 435T386 462Q502 462 502 302V48L491 62L564 42Q564 26 561 18T548
0H355Q355 36 371 40L419 56L409 39V297Q409 397 333 397Q306 397 279 386T230 358T192 323L195 333V44L183 58L248 42Q248 26 245 18T230 0H38Z" />
<glyph unicode="i" horiz-adv-x="314" d="M47 0Q47 36 63 40L124 60L113 46V408L125 393L63 405Q47 407 47 444Q83 449 108 452T159 455Q208 455 208 396V48L196 62L278 42Q278 26 275 18T260 0H47ZM157 550Q130 550 116 565T101 605Q101 629 118 644T157 660Q184
660 199 645T214 605Q214 581 197 566T157 550Z" />
<glyph unicode="j" horiz-adv-x="293" d="M8 -270Q-18 -270 -32 -258T-46 -225Q-46 -218 -44 -209T-37 -193Q22 -193 54 -177T100 -122T113 -13V408L125 393L63 405Q47 407 47 444Q88 450 113 452T159 455Q208 455 208 396V108Q208 29 193 -39T150 -160T87 -241T8
-270ZM146 550Q119 550 105 565T90 605Q90 629 107 644T146 660Q173 660 188 645T203 605Q203 581 186 566T146 550Z" />
<glyph unicode="k" horiz-adv-x="541" d="M38 0Q38 19 42 28T54 40L115 60L104 46V686L116 671L54 683Q38 686 38 722Q73 727 99 730T150 734Q199 734 199 674V44L185 58L253 42Q253 26 249 18T234 0H38ZM466 -12Q437 -12 400 11T314 91T202 248L369 395L363 383L305
400Q305 425 319 443H505Q505 421 502 413T489 401L403 372L461 407L274 240L285 272Q320 220 361 175T446 94T529 38Q529 16 511 2T466 -12Z" />
<glyph unicode="l" horiz-adv-x="303" d="M38 0Q38 19 42 28T54 40L115 60L104 46V686L116 671L54 683Q38 686 38 722Q73 727 99 730T150 734Q199 734 199 674V48L187 62L269 42Q269 26 266 18T251 0H38Z" />
<glyph unicode="m" horiz-adv-x="888" d="M47 0Q47 36 63 40L120 60L109 46V403L121 388L63 400Q47 403 47 439Q88 446 109 448T145 451Q174 451 186 438T198 394V361L194 363H204Q243 409 293 435T389 462Q445 462 472 423T499 302V44L487 58L553 42Q553 26 549
18T535 0H351Q351 36 367 40L415 56L404 41V297Q404 397 334 397Q307 397 281 386T232 356T196 317L204 336V44L192 58L258 42Q258 26 254 18T239 0H47ZM646 0Q646 36 662 40L710 56L699 41V297Q699 397 629 397Q590 397 553 374T493 319L482 363H497Q537 409 587
435T683 462Q740 462 767 423T794 302V48L782 62L856 42Q856 26 852 18T838 0H646Z" />
<glyph unicode="n" horiz-adv-x="605" d="M47 0Q47 36 63 40L120 60L109 43V403L121 388L63 400Q47 403 47 439Q88 446 109 448T145 451Q174 451 186 438T198 394V361L192 363H204Q245 409 296 435T395 462Q511 462 511 302V48L499 62L573 42Q573 26 570 18T557
0H365Q365 36 381 40L428 56L418 39V297Q418 397 343 397Q314 397 286 386T235 356T196 317L204 336V44L192 58L258 42Q258 26 254 18T239 0H47Z" />
<glyph unicode="o" horiz-adv-x="528" d="M241 -12Q145 -12 90 46T35 201Q35 277 67 335T155 428T284 462Q348 462 394 436T466 361T492 247Q492 171 460 113T372 22T241 -12ZM261 26Q324 26 358 78T392 225Q392 321 360 372T266 424Q204 424 170 372T135 224Q135
128 167 77T261 26Z" />
<glyph unicode="p" horiz-adv-x="565" d="M38 -255Q38 -221 54 -214L111 -195L100 -212V403L112 388L54 400Q38 403 38 439Q79 446 100 448T136 451Q164 451 176 439T189 402V361L186 364H195Q226 410 272 436T366 462Q416 462 452 436T509 362T529 249Q529 171
501 112T420 21T297 -12Q268 -12 238 -6T181 11L195 19V-207L183 -194L265 -213Q265 -228 261 -237T246 -255H38ZM285 32Q359 32 394 80T429 230Q429 318 403 360T321 402Q292 402 268 391T223 358T183 310L193 334V48L183 67Q215 48 237 40T285 32Z" />
<glyph unicode="q" horiz-adv-x="573" d="M310 -255Q310 -221 326 -214L402 -185L381 -219V68H376Q349 31 305 10T211 -12Q158 -12 119 14T57 89T35 201Q35 278 68 336T159 428T293 462Q334 462 378 448T471 400V-218L442 -191L533 -213Q533 -228 530 -237T515
-255H310ZM259 45Q289 45 311 54T353 81T389 120L378 98V397L389 376Q367 397 341 408T276 419Q209 419 172 368T135 222Q135 136 167 91T259 45ZM402 388L428 447Q431 455 441 459T471 463V400L402 388Z" />
<glyph unicode="r" horiz-adv-x="412" d="M47 0Q47 34 63 40L120 60L109 43V403L121 388L63 400Q56 402 52 412T47 439Q89 446 110 448T145 451Q173 451 185 437T198 390V351L191 358H202Q228 405 267 433T342 462Q381 462 398 445T415 400Q415 379 402 364T368
349Q355 374 340 383T307 393Q280 393 250 370T196 313L204 333V44L189 63L278 43Q278 27 274 18T259 0H47Z" />
<glyph unicode="s" horiz-adv-x="428" d="M206 -12Q131 -12 83 19T35 95Q35 119 48 131T82 143Q107 143 122 127Q122 75 145 49T214 22Q256 22 280 42T304 101Q304 130 289 148T248 177T193 200Q160 212 128 228T76 270T55 336Q55 393 100 427T224 462Q268 462
303 451T358 420T379 374Q379 354 366 343T332 331Q314 331 298 343Q298 384 276 406T215 428Q180 428 160 411T139 365Q139 340 153 325T191 298T242 277Q277 264 312 247T370 203T394 131Q394 87 371 55T305 6T206 -12Z" />
<glyph unicode="t" horiz-adv-x="343" d="M194 -12Q143 -12 118 20T93 115V534Q104 543 119 550T153 562T188 569V129Q188 90 199 72T240 54Q262 54 287 63T337 93L352 65Q341 50 317 32T261 1T194 -12ZM308 390L26 396Q26 411 30 424T41 443L328 455Q331 450
332 445T333 435Q333 417 327 405T308 390Z" />
<glyph unicode="u" horiz-adv-x="583" d="M214 -12Q157 -12 127 25T96 143V399L112 384L49 396Q42 397 38 406T34 435Q75 440 96 443T131 446Q161 446 175 433T190 389V149Q190 98 210 74T270 50Q297 50 319 59T360 83T390 116L382 97V399L398 384L334 396Q327
397 324 406T320 435Q360 440 381 443T416 446Q447 446 461 433T475 389V78Q475 61 482 52T503 43Q514 43 526 48T548 61L556 31Q538 11 511 0T459 -12Q426 -12 407 9T387 69H382Q309 -12 214 -12Z" />
<glyph unicode="v" horiz-adv-x="500" d="M253 -9Q244 -9 234 -7T218 -3L59 396L78 382L3 401Q3 417 7 425T21 443H215Q215 405 199 401L138 384L152 402L286 67H260L388 397L394 383L325 401Q325 421 328 429T342 443H497Q497 424 493 415T481 403L424 384L443
402L294 16Q285 -9 253 -9Z" />
<glyph unicode="w" horiz-adv-x="713" d="M227 -9Q218 -9 209 -7T192 -3L59 396L78 382L3 401Q3 417 7 425T21 443H215Q215 405 199 401L138 384L151 402L262 67H235L351 394H395L522 67H499L600 397L608 383L538 401Q538 421 542 429T556 443H710Q710 424 706
415T694 403L637 384L656 402L534 16Q525 -9 492 -9Q484 -9 474 -7T458 -3L340 299H368L268 16Q259 -9 227 -9Z" />
<glyph unicode="x" horiz-adv-x="510" d="M276 0Q276 36 292 40L362 60L340 31L73 399L107 379L20 401Q20 417 24 425T39 443H241Q241 407 225 403L156 383L176 411L444 45L411 64L497 42Q497 26 494 18T479 0H276ZM13 0Q13 36 29 40L107 67L60 36L216 236L249
197L117 24L118 61L190 42Q190 22 187 14T172 0H13ZM289 212L256 253L383 419L380 383L306 401Q306 421 309 429T323 443H483Q483 408 467 403L393 377L439 407L289 212Z" />
<glyph unicode="y" horiz-adv-x="504" d="M66 -270Q36 -270 20 -258T3 -225Q3 -218 5 -209T12 -192H33Q78 -192 108 -182T160 -150T201 -88T241 11L237 -39L62 396L82 382L6 401Q6 417 10 425T25 443H218Q218 406 202 401L142 384L157 402L290 67H264L391 397L397
383L328 401Q328 421 331 429T346 443H501Q501 424 497 415T485 403L428 384L447 402L287 -12Q242 -130 184 -200T66 -270Z" />
<glyph unicode="z" horiz-adv-x="438" d="M56 0Q42 0 35 7T27 25Q27 33 30 41T38 56L292 410L333 385L89 396L109 421L94 311Q93 305 86 302T70 298T52 297L40 443H355Q376 443 385 436T394 417Q394 409 391 402T382 385L130 32L85 59L367 47L340 17L353 156Q366
156 378 153T399 144L408 0H56Z" />
<glyph unicode="{" horiz-adv-x="376" d="M362 -270Q328 -270 295 -264T232 -245T182 -208T148 -152T135 -72Q135 -47 136 -20T139 32T140 76Q140 123 130 157T93 209T19 227Q15 233 13 242T10 260Q10 266 11 271T13 281Q61 281 88 300T128 353T140 433Q140 457
139 485T137 541T135 589Q135 632 148 663T183 717T235 752T297 771T363 778Q364 776 364 773T365 765Q365 757 363 749T358 735Q287 729 258 695T229 590Q229 564 232 529T235 445Q235 361 200 314T102 258Q102 256 104 252Q166 243 200 196T235 63Q235 14 232
-21T229 -82Q229 -129 240 -159T280 -205T358 -228Q362 -233 363 -241T365 -257Q365 -265 362 -270Z" />
<glyph unicode="|" horiz-adv-x="225" d="M147 -200Q122 -200 103 -196T78 -185V734Q103 734 122 730T147 719V-200Z" />
<glyph unicode="}" horiz-adv-x="376" d="M14 -270Q48 -270 81 -264T144 -245T194 -208T228 -152T241 -72Q241 -47 240 -20T237 32T236 76Q236 123 246 157T283 209T357 227Q361 233 363 242T366 260Q366 266 365 271T363 281Q315 281 288 300T248 353T236 433Q236
457 237 485T239 541T241 589Q241 632 228 663T193 717T141 752T79 771T13 778Q12 776 12 773T11 765Q11 757 13 749T18 735Q89 729 118 695T147 590Q147 564 144 529T141 445Q141 361 176 314T274 258Q274 256 272 252Q210 243 176 196T141 63Q141 14 144 -21T147
-82Q147 -129 136 -159T96 -205T18 -228Q14 -233 13 -241T11 -257Q11 -265 14 -270Z" />
<glyph unicode="~" horiz-adv-x="572" d="M96 224Q91 231 87 241T83 258Q83 274 95 294T131 330T192 346Q225 346 262 335T334 311T397 299Q425 299 444 313T476 354Q489 338 489 320Q489 305 476 284T439 248T376 232Q345 232 309 244T237 268T174 280Q147 280
129 266T96 224Z" />
<glyph unicode="&#xa0;" horiz-adv-x="223" />
<glyph unicode="&#xa1;" horiz-adv-x="234" d="M117 289Q132 289 144 285Q148 218 152 153T159 32T165 -64T167 -122Q167 -153 156 -168T117 -183Q90 -183 79 -168T68 -122Q68 -104 70 -64T75 31T83 152T90 285Q102 289 117 289ZM116 484Q142 484 156 469T171
429Q171 406 154 391T116 376Q89 376 75 390T61 429Q61 453 77 468T116 484Z" />
<glyph unicode="&#xa2;" horiz-adv-x="473" d="M270 -98Q259 -98 247 -96T225 -90V739Q236 739 248 737T270 731V-98ZM245 83Q182 83 135 110T61 186T35 303Q35 378 65 435T148 524T269 557Q316 557 354 542T414 502T437 445Q437 424 424 412T389 399Q379 399
370 402T352 409Q352 463 329 491T260 519Q200 519 168 470T136 330Q136 234 172 185T282 136Q321 136 358 151T427 197L441 170Q420 144 389 124T320 94T245 83Z" />
<glyph unicode="&#xa3;" horiz-adv-x="547" d="M118 0Q101 6 94 14T86 48Q144 98 167 134T190 199Q190 232 177 260T147 317T116 381T103 462Q103 512 128 553T199 620T312 645Q367 645 407 630T470 591T493 536Q493 515 482 505T450 494Q439 494 430 497T415
504Q415 546 386 571T311 596Q255 596 221 566T186 480Q186 445 198 414T226 352T254 289T267 219Q267 189 256 162T220 106T151 47L149 66L452 45L425 15L449 159Q466 159 478 155T493 141V0H118ZM50 305Q50 316 52 329T59 350H389Q389 339 387 327T381 305H50Z"
/>
<glyph unicode="&#xa4;" horiz-adv-x="653" d="M323 74Q232 74 177 127T121 271Q121 332 148 384T224 469T336 502Q427 502 482 449T537 306Q537 245 511 192T436 107T323 74ZM225 126L102 -11Q94 -10 85 -4T68 11T58 26L187 169L225 126ZM430 126L468 168L596
25Q594 19 587 11T570 -3T552 -11L430 126ZM190 400L58 548Q60 554 68 562T85 577T102 584L227 442L190 400ZM471 405L434 448L553 584Q562 584 571 577T589 562T598 548L471 405ZM328 132Q374 132 402 152T442 207T455 284Q455 330 441 366T399 423T330 444Q285
444 257 423T216 368T203 294Q203 250 217 213T259 154T328 132Z" />
<glyph unicode="&#xa5;" horiz-adv-x="616" d="M166 243Q166 254 168 267T175 288H466Q466 277 464 265T457 243H166ZM166 123Q166 134 168 147T175 168H466Q466 157 464 145T457 123H166ZM322 160L55 602L87 579L3 599Q3 614 7 623T22 641H241Q241 623 237 613T225
601L148 582L162 607L356 286L323 283L488 603L497 581L411 599Q411 614 414 623T429 641H613Q613 623 609 613T597 601L529 583L550 608L322 160ZM195 0Q195 18 199 28T211 40L285 59L269 36V275H364V41L345 62L440 42Q440 28 437 19T423 0H195Z" />
<glyph unicode="&#xa6;" horiz-adv-x="225" d="M78 361V734Q103 734 122 730T147 719V361H78ZM147 -200Q122 -200 103 -196T78 -185V173H147V-200Z" />
<glyph unicode="&#xa7;" horiz-adv-x="483" d="M236 -12Q159 -12 111 19T63 95Q63 119 76 131T109 143Q135 143 150 127Q150 22 242 22Q283 22 308 44T333 103Q333 134 319 152T280 183T221 206Q178 222 147 239T100 280T83 338Q83 384 113 415T199 456L227 417Q199
413 183 396T167 353Q167 329 179 314T215 288T270 264Q318 247 352 229T404 186T422 122Q422 82 399 52T333 5T236 -12ZM321 198L291 236Q333 259 333 304Q333 333 319 351T280 381T221 405Q178 422 147 440T100 481T83 539Q83 590 128 622T251 655Q296 655 331
644T387 613T407 567Q407 547 394 536T361 524Q342 524 327 536Q327 577 305 599T244 621Q209 621 188 603T167 554Q167 531 179 515T215 486T270 463Q317 448 351 430T403 385T422 319Q422 276 396 245T321 198Z" />
<glyph unicode="&#xa8;" horiz-adv-x="295" d="M240 551Q213 551 200 566T187 605Q187 620 195 632T215 651T240 658Q268 658 281 644T295 605Q295 590 287 578T267 559T240 551ZM53 551Q27 551 14 566T0 605Q0 620 8 632T28 651T53 658Q80 658 94 644T108 605Q108
590 100 578T80 559T53 551Z" />
<glyph unicode="&#xa9;" horiz-adv-x="693" d="M347 140Q263 140 196 178T91 283T52 435Q52 520 90 586T196 691T347 730Q432 730 498 692T603 587T642 435Q642 350 604 284T499 179T347 140ZM347 164Q425 164 486 199T583 295T618 435Q618 513 583 574T487 671T347
706Q269 706 208 671T111 575T76 435Q76 357 111 296T207 199T347 164ZM358 239Q297 239 252 262T182 328T157 426Q157 488 186 537T264 614T375 643Q411 643 444 635T503 613L491 517Q478 517 469 520T459 529L450 590L460 572Q420 606 365 606Q301 606 264 560T227
435Q227 388 244 352T293 296T364 275Q391 275 416 285T460 318L448 294L459 380Q474 380 482 378T497 372L504 291Q474 264 438 252T358 239Z" />
<glyph unicode="&#xaa;" horiz-adv-x="381" d="M107 391Q71 391 49 412T26 467Q26 509 55 535T136 574L234 596L226 585V633Q226 670 214 687T177 704Q148 704 133 686T115 629Q111 624 102 621T83 618Q65 618 55 627T45 652Q45 676 63 695T115 725T190 737Q253
737 283 708T313 623V467Q313 454 317 447T332 440Q340 440 348 443T364 451L371 425Q356 411 334 401T291 391Q261 391 245 408T229 453H225Q205 428 175 410T107 391ZM149 443Q174 443 196 455T237 490L226 470V568L237 566L166 550Q134 542 120 526T105 489Q105
466 117 455T149 443ZM322 264H53Q52 267 51 273T50 287Q50 318 63 329H332Q333 326 334 320T335 305Q335 277 322 264Z" />
<glyph unicode="&#xab;" horiz-adv-x="447" d="M196 82L57 227Q43 241 37 249T31 267Q31 277 37 285T57 308L196 453Q207 450 215 443T224 422L91 247V287L224 113Q223 100 215 93T196 82ZM370 82L231 227Q217 241 211 249T205 267Q205 277 211 285T231 308L370
453Q381 450 389 443T398 422L265 247V287L398 113Q397 100 389 93T370 82Z" />
<glyph unicode="&#xac;" horiz-adv-x="572" d="M467 124Q456 124 447 127T429 135V287L462 262H84Q73 275 73 296Q73 300 74 306T77 318H488V128Q483 126 478 125T467 124Z" />
<glyph unicode="&#xad;" horiz-adv-x="360" d="M63 225Q60 230 58 237T55 254Q55 291 102 291Q138 291 167 290T229 289Q248 289 265 291T298 297Q301 291 303 284T305 268Q305 231 259 231Q223 231 194 232T132 233Q112 233 95 231T63 225Z" />
<glyph unicode="&#xae;" horiz-adv-x="612" d="M307 242Q237 242 182 274T95 361T63 486Q63 556 95 611T182 698T307 730Q377 730 432 698T519 611T551 486Q551 416 519 361T432 274T307 242ZM307 262Q372 262 422 291T502 371T531 486Q531 551 502 601T423 681T307
710Q243 710 192 681T112 602T83 486Q83 422 112 371T192 291T307 262ZM168 331Q168 338 170 344T176 352L215 367L209 358V619L215 612L167 624Q167 643 178 650H321Q371 651 401 628T432 568Q432 525 398 497T309 468Q295 468 281 470T257 475L264 477V358L257
368L306 357Q306 345 304 340T295 331H168ZM264 494L258 502Q264 499 277 498T300 496Q333 496 351 513T369 561Q369 589 352 604T306 620Q297 620 285 619T258 613L264 620V494ZM440 324Q423 324 408 331T378 356T345 403T308 481L358 495Q384 442 417 401T481
338Q472 332 461 328T440 324Z" />
<glyph unicode="&#xaf;" horiz-adv-x="286" d="M272 572H3Q2 576 1 582T0 596Q0 627 14 638H282Q283 635 284 629T286 614Q286 585 272 572Z" />
<glyph unicode="&#xb0;" horiz-adv-x="451" d="M210 401Q141 401 101 440T61 549Q61 601 84 641T147 704T239 727Q306 727 347 687T389 577Q389 526 366 486T303 424T210 401ZM215 461Q264 461 294 492T324 572Q324 615 299 641T233 667Q187 667 157 636T127 554Q127
512 151 487T215 461Z" />
<glyph unicode="&#xb1;" horiz-adv-x="600" d="M294 281Q284 281 274 283T257 292V568Q261 570 266 570T278 571Q289 571 299 569T315 558V284Q310 283 305 282T294 281ZM84 401Q73 414 73 435Q73 439 74 445T77 457H483Q495 444 495 423Q495 418 495 413T492
401H84ZM84 173Q73 186 73 207Q73 211 74 217T77 229H483Q495 216 495 195Q495 190 495 185T492 173H84Z" />
<glyph unicode="&#xb2;" horiz-adv-x="376" d="M55 351Q44 358 41 366T38 390Q137 465 183 524T229 637Q229 667 214 682T168 697Q148 697 129 690T94 668L103 688L95 630Q94 618 59 618L47 709Q116 743 182 743Q245 743 283 716T321 641Q321 587 265 520T99 379L86
407L300 393L273 385L293 456Q305 456 314 453T329 444V351H55Z" />
<glyph unicode="&#xb3;" horiz-adv-x="374" d="M178 343Q130 343 100 354T56 382T42 417Q42 433 48 443T67 460T94 466Q94 429 114 409T170 389Q203 389 221 404T240 449Q240 479 219 498T152 531Q145 534 143 540T141 565Q187 577 209 597T232 643Q232 667 215
681T171 696Q150 696 128 687T85 658L112 697L103 637Q102 631 93 628T66 624L55 708Q90 726 123 734T187 743Q248 743 284 718T321 649Q321 613 294 589T210 549L211 556Q269 544 300 516T332 447Q332 400 290 372T178 343Z" />
<glyph unicode="&#xb4;" horiz-adv-x="215" d="M25 514Q16 514 8 521T0 541Q56 597 87 628T134 674T157 692T170 696Q181 696 191 688T208 668T215 644Q215 639 211 634T190 616T133 580T25 514Z" />
<glyph unicode="&#xb5;" horiz-adv-x="593" d="M34 -258Q34 -246 36 -233T50 -217L115 -200L106 -222V399L122 384L59 396Q52 397 48 406T44 435Q85 440 106 443T141 446Q171 446 185 433T200 389V149Q200 98 220 74T280 50Q307 50 329 59T370 83T400 116L392
97V399L408 384L344 396Q337 397 334 406T330 435Q370 440 391 443T426 446Q457 446 471 433T485 389V78Q485 61 492 52T513 43Q524 43 536 48T558 61L566 31Q548 11 521 0T469 -12Q436 -12 417 9T397 69H392Q367 31 330 10T249 -12Q218 -12 197 4T166 48H182V-210Q183
-224 176 -233T158 -248T134 -255T110 -258H34Z" />
<glyph unicode="&#xb6;" horiz-adv-x="496" d="M187 -77Q160 -77 146 -65T131 -33Q131 -25 133 -16T141 0Q199 0 231 16T277 71T291 180V575Q308 575 332 576T380 578T424 580T451 584Q460 569 460 555Q460 523 423 511T326 512L383 554L384 301Q384 222 369 154T327
33T264 -48T187 -77ZM259 236Q161 236 107 281T52 409Q52 460 71 498T126 559T207 581Q214 581 218 581T230 580T259 577V236Z" />
<glyph unicode="&#xb7;" horiz-adv-x="225" d="M112 209Q84 209 70 225T55 266Q55 290 72 306T112 323Q141 323 155 307T170 266Q170 242 153 226T112 209Z" />
<glyph unicode="&#xb8;" horiz-adv-x="303" d="M145 -260Q96 -260 65 -236T33 -175Q33 -162 39 -155T59 -147Q77 -147 92 -158Q92 -199 105 -218T153 -238Q180 -238 197 -220T215 -169Q215 -131 192 -115T135 -99Q126 -99 119 -99T108 -102L135 0H161L137 -85L126
-75Q135 -73 144 -72T164 -71Q191 -71 216 -80T256 -110T272 -163Q272 -185 258 -208T216 -245T145 -260Z" />
<glyph unicode="&#xb9;" horiz-adv-x="291" d="M51 351Q51 381 61 384L127 403L116 383V704L130 666L42 652Q38 658 36 664T34 678Q34 685 35 691T39 702L162 743H202V385L186 405L260 386Q260 376 258 368T249 351H51Z" />
<glyph unicode="&#xba;" horiz-adv-x="411" d="M187 391Q113 391 70 433T27 547Q27 603 51 645T119 712T219 737Q293 737 339 694T385 578Q385 524 360 482T290 415T187 391ZM205 425Q247 425 269 461T291 562Q291 628 269 666T205 704Q165 704 143 668T120 565Q120
499 142 462T205 425ZM334 264H66Q65 267 64 273T62 287Q62 318 76 329H345Q346 326 347 320T348 305Q348 277 334 264Z" />
<glyph unicode="&#xbb;" horiz-adv-x="447" d="M77 82L216 227Q230 241 236 249T242 267Q242 277 236 285T216 308L77 453Q66 450 58 443T49 422L182 247V287L49 113Q50 100 58 93T77 82ZM251 82L390 227Q404 241 410 249T416 267Q416 277 410 285T390 308L251
453Q240 450 232 443T223 422L356 247V287L223 113Q224 100 232 93T251 82Z" />
<glyph unicode="&#xbc;" horiz-adv-x="953" d="M92 263Q92 293 102 296L168 315L157 295V616L171 578L83 564Q79 570 77 576T75 590Q75 597 76 603T80 614L203 655H243V297L227 317L301 298Q301 288 299 280T290 263H92ZM339 -12Q318 -12 305 -8T281 7L576 655Q594
655 607 652T633 636L339 -12ZM743 0V339L774 337L607 117L589 138H866V96H582Q562 103 562 135L757 393Q791 393 809 380T828 340V0H743Z" />
<glyph unicode="&#xbd;" horiz-adv-x="953" d="M91 263Q91 293 101 296L167 315L156 295V616L170 578L82 564Q78 570 76 576T74 590Q74 597 75 603T79 614L202 655H242V297L226 317L300 298Q300 288 298 280T289 263H91ZM318 -12Q297 -12 284 -8T260 7L555 655Q573
655 586 652T612 636L318 -12ZM597 1Q586 8 583 16T580 40Q679 115 725 174T771 287Q771 317 756 332T710 347Q690 347 671 340T636 318L645 338L637 280Q636 268 601 268L589 359Q658 393 724 393Q787 393 825 366T863 291Q863 237 807 170T641 29L628 57L842
43L815 35L835 106Q847 106 856 103T871 94V1H597Z" />
<glyph unicode="&#xbe;" horiz-adv-x="953" d="M192 255Q144 255 114 266T70 294T56 329Q56 345 62 355T81 372T108 378Q108 341 128 321T184 301Q217 301 235 316T254 361Q254 391 233 410T166 443Q159 446 157 452T155 477Q201 489 223 509T246 555Q246 579
229 593T185 608Q164 608 142 599T99 570L126 609L117 549Q116 543 107 540T80 536L69 620Q104 638 137 646T201 655Q262 655 298 630T335 561Q335 525 308 501T224 461L225 468Q283 456 314 428T346 359Q346 312 304 284T192 255ZM376 -12Q355 -12 342 -8T318
7L613 655Q631 655 644 652T670 636L376 -12ZM778 0V339L809 337L642 117L624 138H901V96H617Q597 103 597 135L792 393Q826 393 844 380T863 340V0H778Z" />
<glyph unicode="&#xbf;" horiz-adv-x="437" d="M257 289Q271 289 284 285L292 161Q261 153 231 139T174 103T132 51T116 -21Q116 -77 142 -110T220 -143Q266 -143 293 -113T321 -19Q327 -16 335 -13T360 -10Q382 -10 396 -24T411 -64Q411 -112 361 -147T220 -183Q130
-183 78 -140T26 -25Q26 11 40 42T79 99T131 142T186 172T234 189L223 176L230 285Q240 289 257 289ZM257 484Q283 484 297 469T312 429Q312 406 295 391T257 376Q230 376 216 390T201 429Q201 453 218 468T257 484Z" />
<glyph unicode="&#xc0;" horiz-adv-x="654" d="M3 0Q3 18 7 28T19 40L81 60L53 31L273 634Q276 642 285 647T304 653T323 655Q331 655 338 655T354 651L594 34L560 62L651 42Q651 28 647 19T631 0H417Q417 18 421 28T433 40L501 59L493 37L282 576L308 577L109
32L105 63L199 42Q199 28 195 19T178 0H3ZM158 212L170 260H428L442 212H158ZM416 733Q336 757 292 770T227 791T201 805T196 817Q196 838 207 855T234 872Q240 872 250 868T280 853T338 821T433 765Q433 754 429 744T416 733Z" />
<glyph unicode="&#xc1;" horiz-adv-x="654" d="M3 0Q3 18 7 28T19 40L81 60L53 31L273 634Q276 642 285 647T304 653T323 655Q331 655 338 655T354 651L594 34L560 62L651 42Q651 28 647 19T631 0H417Q417 18 421 28T433 40L501 59L493 37L282 576L308 577L109
32L105 63L199 42Q199 28 195 19T178 0H3ZM158 212L170 260H428L442 212H158ZM214 733Q204 733 200 743T196 765Q254 799 290 820T348 853T378 868T394 872Q410 872 421 855T433 817Q433 811 428 805T402 792T338 771T214 733Z" />
<glyph unicode="&#xc2;" horiz-adv-x="654" d="M3 0Q3 18 7 28T19 40L81 60L53 31L273 634Q276 642 285 647T304 653T323 655Q331 655 338 655T354 651L594 34L560 62L651 42Q651 28 647 19T631 0H417Q417 18 421 28T433 40L501 59L493 37L282 576L308 577L109
32L105 63L199 42Q199 28 195 19T178 0H3ZM158 212L170 260H428L442 212H158ZM314 884Q327 884 337 879T363 858T401 814T464 736Q464 726 458 719T439 712L302 818H324L187 712Q176 712 169 719T162 736Q200 784 224 813T264 858T290 878T314 884Z" />
<glyph unicode="&#xc3;" horiz-adv-x="654" d="M3 0Q3 18 7 28T19 40L81 60L53 31L273 634Q276 642 285 647T304 653T323 655Q331 655 338 655T354 651L594 34L560 62L651 42Q651 28 647 19T631 0H417Q417 18 421 28T433 40L501 59L493 37L282 576L308 577L109
32L105 63L199 42Q199 28 195 19T178 0H3ZM158 212L170 260H428L442 212H158ZM240 792Q217 792 201 776T185 734Q167 734 159 738T150 752Q150 781 163 806T197 845T243 860Q269 860 293 849T340 826T387 814Q410 814 426 830T442 872Q460 872 468 868T476 855Q476
825 464 801T430 761T383 745Q357 745 334 757T287 780T240 792Z" />
<glyph unicode="&#xc4;" horiz-adv-x="654" d="M3 0Q3 18 7 28T19 40L81 60L53 31L273 634Q276 642 285 647T304 653T323 655Q331 655 338 655T354 651L594 34L560 62L651 42Q651 28 647 19T631 0H417Q417 18 421 28T433 40L501 59L493 37L282 576L308 577L109
32L105 63L199 42Q199 28 195 19T178 0H3ZM158 212L170 260H428L442 212H158ZM406 749Q379 749 366 764T353 803Q353 818 361 830T381 849T406 856Q434 856 447 842T461 803Q461 788 453 776T433 757T406 749ZM219 749Q193 749 180 764T166 803Q166 818 174 830T194
849T219 856Q246 856 260 842T274 803Q274 788 266 776T246 757T219 749Z" />
<glyph unicode="&#xc5;" horiz-adv-x="654" d="M3 0Q3 18 7 28T19 40L81 60L53 31L273 634Q276 642 285 647T304 653T323 655Q331 655 338 655T354 651L594 34L560 62L651 42Q651 28 647 19T631 0H417Q417 18 421 28T433 40L501 59L493 37L282 576L308 577L109
32L105 63L199 42Q199 28 195 19T178 0H3ZM158 212L170 260H428L442 212H158ZM307 690Q259 690 228 716T196 783Q196 816 212 841T255 880T317 895Q369 895 400 868T432 797Q432 750 397 720T307 690ZM315 725Q339 726 352 743T365 790Q365 821 351 840T312 860Q263
859 263 794Q263 762 277 744T315 725Z" />
<glyph unicode="&#xc6;" horiz-adv-x="937" d="M-5 0Q-5 18 -1 27T11 40L73 62L40 22L457 614L490 580L369 599Q369 614 373 623T388 641H845V508Q827 508 817 512T804 525L779 606L793 597L555 579L566 592V329L556 336H721L709 329L727 393Q742 393 753 390T775
374V246Q764 234 753 231T727 227L708 292L721 284H556L566 293V55L556 66L818 45L805 31L834 155Q849 155 858 151T876 139V0H402Q402 18 406 28T418 40L486 59L470 42V274L479 259H261L286 275L115 35L103 64L210 42Q210 28 206 19T190 0H-5ZM294 294L289 310H479L470
295V567L479 556L294 294Z" />
<glyph unicode="&#xc7;" horiz-adv-x="654" d="M354 -12Q264 -12 196 27T90 135T52 296Q52 374 78 439T151 552T262 628T401 655Q453 655 501 643T587 606L568 460Q550 460 539 465T526 478L517 577L535 550Q510 571 467 584T378 597Q310 597 260 565T183 472T156
328Q156 242 183 179T260 80T374 44Q425 44 470 65T537 120L517 77L530 218Q555 218 565 214T580 202L586 67Q547 31 484 10T354 -12ZM356 -270Q307 -270 274 -245T241 -181Q241 -164 249 -156T269 -147Q283 -147 290 -151T301 -159Q301 -198 319 -219T368 -240Q395
-240 414 -221T434 -169Q434 -146 421 -131T388 -108T346 -100Q336 -100 330 -100T319 -102L343 0H375L358 -74L345 -62Q366 -58 390 -61T438 -76T475 -109T490 -163Q490 -187 475 -212T431 -253T356 -270Z" />
<glyph unicode="&#xc8;" horiz-adv-x="604" d="M63 0Q63 18 67 28T79 40L147 59L131 42V597L146 579L63 599Q63 614 67 623T83 641H513V508Q494 508 484 512T471 525L446 602L460 593L216 579L227 592V343L217 350H414L401 343L417 413Q428 413 439 410T459 397V251Q451
242 440 239T417 236L400 309L414 300H217L227 309V55L217 66L485 48L473 34L501 155Q515 155 525 151T543 139V0H63ZM414 733Q334 757 290 770T225 791T199 805T194 817Q194 838 205 855T232 872Q238 872 248 868T278 853T336 821T431 765Q431 754 427 744T414
733Z" />
<glyph unicode="&#xc9;" horiz-adv-x="604" d="M63 0Q63 18 67 28T79 40L147 59L131 42V597L146 579L63 599Q63 614 67 623T83 641H513V508Q494 508 484 512T471 525L446 602L460 593L216 579L227 592V343L217 350H414L401 343L417 413Q428 413 439 410T459 397V251Q451
242 440 239T417 236L400 309L414 300H217L227 309V55L217 66L485 48L473 34L501 155Q515 155 525 151T543 139V0H63ZM212 733Q202 733 198 743T194 765Q252 799 288 820T346 853T376 868T392 872Q408 872 419 855T431 817Q431 811 426 805T400 792T336 771T212
733Z" />
<glyph unicode="&#xca;" horiz-adv-x="604" d="M63 0Q63 18 67 28T79 40L147 59L131 42V597L146 579L63 599Q63 614 67 623T83 641H513V508Q494 508 484 512T471 525L446 602L460 593L216 579L227 592V343L217 350H414L401 343L417 413Q428 413 439 410T459 397V251Q451
242 440 239T417 236L400 309L414 300H217L227 309V55L217 66L485 48L473 34L501 155Q515 155 525 151T543 139V0H63ZM313 884Q326 884 336 879T362 858T400 814T463 736Q463 726 457 719T438 712L301 818H323L186 712Q175 712 168 719T161 736Q199 784 223 813T263
858T289 878T313 884Z" />
<glyph unicode="&#xcb;" horiz-adv-x="604" d="M63 0Q63 18 67 28T79 40L147 59L131 42V597L146 579L63 599Q63 614 67 623T83 641H513V508Q494 508 484 512T471 525L446 602L460 593L216 579L227 592V343L217 350H414L401 343L417 413Q428 413 439 410T459 397V251Q451
242 440 239T417 236L400 309L414 300H217L227 309V55L217 66L485 48L473 34L501 155Q515 155 525 151T543 139V0H63ZM405 749Q378 749 365 764T352 803Q352 818 360 830T380 849T405 856Q433 856 446 842T460 803Q460 788 452 776T432 757T405 749ZM218 749Q192
749 179 764T165 803Q165 818 173 830T193 849T218 856Q245 856 259 842T273 803Q273 788 265 776T245 757T218 749Z" />
<glyph unicode="&#xcc;" horiz-adv-x="357" d="M63 0Q63 18 67 28T79 40L147 59L131 42V597L148 579L63 599Q63 614 67 623T83 641H297Q297 623 293 613T281 601L208 582L227 600V44L207 62L297 42Q297 28 294 19T279 0H63ZM279 733Q199 757 155 770T90 791T64
805T59 817Q59 838 70 855T97 872Q103 872 113 868T143 853T201 821T296 765Q296 754 292 744T279 733Z" />
<glyph unicode="&#xcd;" horiz-adv-x="357" d="M63 0Q63 18 67 28T79 40L147 59L131 42V597L148 579L63 599Q63 614 67 623T83 641H297Q297 623 293 613T281 601L208 582L227 600V44L207 62L297 42Q297 28 294 19T279 0H63ZM77 733Q67 733 63 743T59 765Q117 799
153 820T211 853T241 868T257 872Q273 872 284 855T296 817Q296 811 291 805T265 792T201 771T77 733Z" />
<glyph unicode="&#xce;" horiz-adv-x="357" d="M63 0Q63 18 67 28T79 40L147 59L131 42V597L148 579L63 599Q63 614 67 623T83 641H297Q297 623 293 613T281 601L208 582L227 600V44L207 62L297 42Q297 28 294 19T279 0H63ZM178 884Q191 884 201 879T227 858T265
814T328 736Q328 726 322 719T303 712L166 818H188L51 712Q40 712 33 719T26 736Q64 784 88 813T128 858T154 878T178 884Z" />
<glyph unicode="&#xcf;" horiz-adv-x="357" d="M63 0Q63 18 67 28T79 40L147 59L131 42V597L148 579L63 599Q63 614 67 623T83 641H297Q297 623 293 613T281 601L208 582L227 600V44L207 62L297 42Q297 28 294 19T279 0H63ZM270 749Q243 749 230 764T217 803Q217
818 225 830T245 849T270 856Q298 856 311 842T325 803Q325 788 317 776T297 757T270 749ZM83 749Q57 749 44 764T30 803Q30 818 38 830T58 849T83 856Q110 856 124 842T138 803Q138 788 130 776T110 757T83 749Z" />
<glyph unicode="&#xd0;" horiz-adv-x="718" d="M63 0Q63 18 67 28T79 40L147 59L131 42V597L146 579L63 599Q63 614 66 623T80 641H376Q449 641 504 617T595 551T649 456T667 345Q667 284 646 223T585 111T488 31T356 0H63ZM348 52Q402 52 441 73T508 133T549
219T563 319Q563 392 539 454T466 553T346 591Q304 591 270 586T213 572L227 588V55L217 69Q244 60 278 56T348 52ZM56 547Q56 558 57 569T60 591T67 606L335 601Q335 586 332 575T322 559L56 547Z" />
<glyph unicode="&#xd1;" horiz-adv-x="757" d="M601 -2Q590 -2 581 -1T565 2L179 537L192 544V34L184 60L274 42Q274 28 271 19T256 0H63Q63 18 67 28T79 40L151 58L139 29V603L152 581L63 599Q63 614 67 623T81 641H218L618 88L586 79V607L592 581L502 599Q502
614 506 623T521 641H714Q714 623 710 613T698 601L626 583L639 609V22Q639 15 632 10T616 1T601 -2ZM316 792Q293 792 277 776T261 734Q243 734 235 738T226 752Q226 781 239 806T273 845T319 860Q345 860 369 849T416 826T463 814Q486 814 502 830T518 872Q536
872 544 868T552 855Q552 825 540 801T506 761T459 745Q433 745 410 757T363 780T316 792Z" />
<glyph unicode="&#xd2;" horiz-adv-x="729" d="M345 -12Q258 -12 192 28T89 139T52 297Q52 374 77 439T149 552T255 628T385 655Q472 655 538 615T641 505T678 347Q678 272 653 207T583 93T477 16T345 -12ZM373 45Q433 45 477 79T547 172T572 309Q572 443 515
520T356 597Q301 597 255 565T183 473T156 334Q156 200 214 123T373 45ZM467 733Q387 757 343 770T278 791T252 805T247 817Q247 838 258 855T285 872Q291 872 301 868T331 853T389 821T484 765Q484 754 480 744T467 733Z" />
<glyph unicode="&#xd3;" horiz-adv-x="729" d="M345 -12Q258 -12 192 28T89 139T52 297Q52 374 77 439T149 552T255 628T385 655Q472 655 538 615T641 505T678 347Q678 272 653 207T583 93T477 16T345 -12ZM373 45Q433 45 477 79T547 172T572 309Q572 443 515
520T356 597Q301 597 255 565T183 473T156 334Q156 200 214 123T373 45ZM265 733Q255 733 251 743T247 765Q305 799 341 820T399 853T429 868T445 872Q461 872 472 855T484 817Q484 811 479 805T453 792T389 771T265 733Z" />
<glyph unicode="&#xd4;" horiz-adv-x="729" d="M345 -12Q258 -12 192 28T89 139T52 297Q52 374 77 439T149 552T255 628T385 655Q472 655 538 615T641 505T678 347Q678 272 653 207T583 93T477 16T345 -12ZM373 45Q433 45 477 79T547 172T572 309Q572 443 515
520T356 597Q301 597 255 565T183 473T156 334Q156 200 214 123T373 45ZM365 884Q378 884 388 879T414 858T452 814T515 736Q515 726 509 719T490 712L353 818H375L238 712Q227 712 220 719T213 736Q251 784 275 813T315 858T341 878T365 884Z" />
<glyph unicode="&#xd5;" horiz-adv-x="729" d="M345 -12Q258 -12 192 28T89 139T52 297Q52 374 77 439T149 552T255 628T385 655Q472 655 538 615T641 505T678 347Q678 272 653 207T583 93T477 16T345 -12ZM373 45Q433 45 477 79T547 172T572 309Q572 443 515
520T356 597Q301 597 255 565T183 473T156 334Q156 200 214 123T373 45ZM292 792Q269 792 253 776T237 734Q219 734 211 738T202 752Q202 781 215 806T249 845T295 860Q321 860 345 849T392 826T439 814Q462 814 478 830T494 872Q512 872 520 868T528 855Q528 825
516 801T482 761T435 745Q409 745 386 757T339 780T292 792Z" />
<glyph unicode="&#xd6;" horiz-adv-x="729" d="M345 -12Q258 -12 192 28T89 139T52 297Q52 374 77 439T149 552T255 628T385 655Q472 655 538 615T641 505T678 347Q678 272 653 207T583 93T477 16T345 -12ZM373 45Q433 45 477 79T547 172T572 309Q572 443 515
520T356 597Q301 597 255 565T183 473T156 334Q156 200 214 123T373 45ZM457 749Q430 749 417 764T404 803Q404 818 412 830T432 849T457 856Q485 856 498 842T512 803Q512 788 504 776T484 757T457 749ZM270 749Q244 749 231 764T217 803Q217 818 225 830T245
849T270 856Q297 856 311 842T325 803Q325 788 317 776T297 757T270 749Z" />
<glyph unicode="&#xd7;" horiz-adv-x="572" d="M414 125L276 262H296L164 130Q150 130 139 139T121 162L259 301V280L126 412Q126 425 135 437T158 454L296 317H276L408 449Q421 449 433 441T451 418L313 280V301L446 168Q446 154 437 143T414 125Z" />
<glyph unicode="&#xd8;" horiz-adv-x="729" d="M345 -12Q258 -12 192 28T89 139T52 297Q52 374 77 439T149 552T255 628T385 655Q472 655 538 615T641 505T678 347Q678 272 653 207T583 93T477 16T345 -12ZM373 45Q433 45 477 79T547 172T572 309Q572 443 515
520T356 597Q301 597 255 565T183 473T156 334Q156 200 214 123T373 45ZM195 -119Q181 -119 167 -114T146 -100L534 761Q548 761 561 756T583 742L195 -119Z" />
<glyph unicode="&#xd9;" horiz-adv-x="711" d="M371 -12Q276 -12 218 16T133 94T106 211V597L124 579L38 599Q38 614 42 623T57 641H272Q272 623 268 613T256 601L183 582L201 600V224Q201 160 223 120T283 60T372 40Q430 40 470 58T532 118T554 226V605L562 581L479
599Q479 614 483 623T497 641H675Q675 623 671 613T659 601L596 583L607 610V214Q607 151 582 100T505 18T371 -12ZM477 733Q397 757 353 770T288 791T262 805T257 817Q257 838 268 855T295 872Q301 872 311 868T341 853T399 821T494 765Q494 754 490 744T477 733Z"
/>
<glyph unicode="&#xda;" horiz-adv-x="711" d="M371 -12Q276 -12 218 16T133 94T106 211V597L124 579L38 599Q38 614 42 623T57 641H272Q272 623 268 613T256 601L183 582L201 600V224Q201 160 223 120T283 60T372 40Q430 40 470 58T532 118T554 226V605L562 581L479
599Q479 614 483 623T497 641H675Q675 623 671 613T659 601L596 583L607 610V214Q607 151 582 100T505 18T371 -12ZM275 733Q265 733 261 743T257 765Q315 799 351 820T409 853T439 868T455 872Q471 872 482 855T494 817Q494 811 489 805T463 792T399 771T275 733Z"
/>
<glyph unicode="&#xdb;" horiz-adv-x="711" d="M371 -12Q276 -12 218 16T133 94T106 211V597L124 579L38 599Q38 614 42 623T57 641H272Q272 623 268 613T256 601L183 582L201 600V224Q201 160 223 120T283 60T372 40Q430 40 470 58T532 118T554 226V605L562 581L479
599Q479 614 483 623T497 641H675Q675 623 671 613T659 601L596 583L607 610V214Q607 151 582 100T505 18T371 -12ZM375 884Q388 884 398 879T424 858T462 814T525 736Q525 726 519 719T500 712L363 818H385L248 712Q237 712 230 719T223 736Q261 784 285 813T325
858T351 878T375 884Z" />
<glyph unicode="&#xdc;" horiz-adv-x="711" d="M371 -12Q276 -12 218 16T133 94T106 211V597L124 579L38 599Q38 614 42 623T57 641H272Q272 623 268 613T256 601L183 582L201 600V224Q201 160 223 120T283 60T372 40Q430 40 470 58T532 118T554 226V605L562 581L479
599Q479 614 483 623T497 641H675Q675 623 671 613T659 601L596 583L607 610V214Q607 151 582 100T505 18T371 -12ZM467 749Q440 749 427 764T414 803Q414 818 422 830T442 849T467 856Q495 856 508 842T522 803Q522 788 514 776T494 757T467 749ZM280 749Q254
749 241 764T227 803Q227 818 235 830T255 849T280 856Q307 856 321 842T335 803Q335 788 327 776T307 757T280 749Z" />
<glyph unicode="&#xdd;" horiz-adv-x="616" d="M322 160L55 602L87 579L3 599Q3 614 7 623T22 641H241Q241 623 237 613T225 601L148 582L162 607L356 286L323 283L488 603L497 581L411 599Q411 614 414 623T429 641H613Q613 623 609 613T597 601L529 583L550
608L322 160ZM195 0Q195 18 199 28T211 40L285 59L269 36V275H364V41L345 62L440 42Q440 28 437 19T423 0H195ZM228 733Q218 733 214 743T210 765Q268 799 304 820T362 853T392 868T408 872Q424 872 435 855T447 817Q447 811 442 805T416 792T352 771T228 733Z"
/>
<glyph unicode="&#xde;" horiz-adv-x="561" d="M63 0Q63 18 67 28T79 40L147 59L131 42V597L148 579L63 599Q63 614 67 623T82 641H297Q297 623 293 613T281 601L208 582L227 600V504L212 519H345Q414 519 459 495T526 430T548 345Q548 292 521 243T442 163T314
131Q291 131 265 134T218 142L227 150V36L207 62L307 42Q307 28 304 19T289 0H63ZM227 182L221 195Q239 190 262 188T309 186Q355 186 385 207T430 260T445 329Q445 390 411 428T317 467Q289 467 264 464T219 455L227 465V182Z" />
<glyph unicode="&#xdf;" horiz-adv-x="681" d="M460 -12Q411 -12 373 2T314 41T292 95Q292 119 306 131T339 143Q350 143 361 140T379 127Q379 75 402 49T473 22Q512 22 537 42T563 101Q563 130 546 148T503 177T446 200Q413 212 381 228T329 270T308 336Q308
372 325 394T367 433T417 466T459 507T476 570Q476 626 445 657T362 689Q309 689 277 665T230 589T216 457V0H60Q60 34 76 40L133 60L122 46V410L137 395L48 396Q48 411 51 424T62 443L141 445L122 429Q122 525 153 593T242 697T373 734Q436 734 479 714T545 660T568
585Q568 540 550 514T506 471T452 442T407 412T389 365Q389 340 404 325T443 299T495 277Q530 264 565 247T624 203T647 131Q647 87 624 55T558 6T460 -12Z" />
<glyph unicode="&#xe0;" horiz-adv-x="496" d="M148 -12Q102 -12 71 16T40 90Q40 146 76 182T186 236L318 266L305 254V326Q305 379 288 403T234 427Q190 427 167 400T143 320Q137 315 127 312T106 308Q87 308 76 319T65 348Q65 382 88 407T154 447T248 462Q325
462 362 425T399 306V78Q399 61 406 52T427 43Q437 43 450 48T472 61L479 31Q462 11 435 0T384 -12Q349 -12 330 9T311 69H306Q277 30 236 9T148 -12ZM194 42Q227 42 259 60T313 108L306 88V233L320 231L210 205Q169 195 148 172T126 114Q126 81 144 62T194 42ZM318
514Q249 556 211 580T154 616T132 633T128 644Q128 656 135 668T152 688T173 696Q179 696 186 692T208 674T255 629T343 541Q343 529 335 522T318 514Z" />
<glyph unicode="&#xe1;" horiz-adv-x="496" d="M148 -12Q102 -12 71 16T40 90Q40 146 76 182T186 236L318 266L305 254V326Q305 379 288 403T234 427Q190 427 167 400T143 320Q137 315 127 312T106 308Q87 308 76 319T65 348Q65 382 88 407T154 447T248 462Q325
462 362 425T399 306V78Q399 61 406 52T427 43Q437 43 450 48T472 61L479 31Q462 11 435 0T384 -12Q349 -12 330 9T311 69H306Q277 30 236 9T148 -12ZM194 42Q227 42 259 60T313 108L306 88V233L320 231L210 205Q169 195 148 172T126 114Q126 81 144 62T194 42ZM153
514Q144 514 136 521T128 541Q184 597 215 628T262 674T285 692T298 696Q309 696 319 688T336 668T343 644Q343 639 339 634T318 616T261 580T153 514Z" />
<glyph unicode="&#xe2;" horiz-adv-x="496" d="M148 -12Q102 -12 71 16T40 90Q40 146 76 182T186 236L318 266L305 254V326Q305 379 288 403T234 427Q190 427 167 400T143 320Q137 315 127 312T106 308Q87 308 76 319T65 348Q65 382 88 407T154 447T248 462Q325
462 362 425T399 306V78Q399 61 406 52T427 43Q437 43 450 48T472 61L479 31Q462 11 435 0T384 -12Q349 -12 330 9T311 69H306Q277 30 236 9T148 -12ZM194 42Q227 42 259 60T313 108L306 88V233L320 231L210 205Q169 195 148 172T126 114Q126 81 144 62T194 42ZM235
700Q243 700 251 696T274 675T315 625T385 533Q385 522 379 516T360 510Q313 550 283 578T235 622Q216 606 186 578T108 510Q97 510 90 516T83 533Q127 591 153 624T194 674T217 695T235 700Z" />
<glyph unicode="&#xe3;" horiz-adv-x="496" d="M148 -12Q102 -12 71 16T40 90Q40 146 76 182T186 236L318 266L305 254V326Q305 379 288 403T234 427Q190 427 167 400T143 320Q137 315 127 312T106 308Q87 308 76 319T65 348Q65 382 88 407T154 447T248 462Q325
462 362 425T399 306V78Q399 61 406 52T427 43Q437 43 450 48T472 61L479 31Q462 11 435 0T384 -12Q349 -12 330 9T311 69H306Q277 30 236 9T148 -12ZM194 42Q227 42 259 60T313 108L306 88V233L320 231L210 205Q169 195 148 172T126 114Q126 81 144 62T194 42ZM162
594Q139 594 123 578T107 536Q89 536 81 540T72 554Q72 583 85 608T119 647T165 662Q191 662 215 651T262 628T309 616Q332 616 348 632T364 674Q382 674 390 670T398 657Q398 627 386 603T352 563T305 547Q279 547 256 559T209 582T162 594Z" />
<glyph unicode="&#xe4;" horiz-adv-x="496" d="M148 -12Q102 -12 71 16T40 90Q40 146 76 182T186 236L318 266L305 254V326Q305 379 288 403T234 427Q190 427 167 400T143 320Q137 315 127 312T106 308Q87 308 76 319T65 348Q65 382 88 407T154 447T248 462Q325
462 362 425T399 306V78Q399 61 406 52T427 43Q437 43 450 48T472 61L479 31Q462 11 435 0T384 -12Q349 -12 330 9T311 69H306Q277 30 236 9T148 -12ZM194 42Q227 42 259 60T313 108L306 88V233L320 231L210 205Q169 195 148 172T126 114Q126 81 144 62T194 42ZM327
551Q300 551 287 566T274 605Q274 620 282 632T302 651T327 658Q355 658 368 644T382 605Q382 590 374 578T354 559T327 551ZM140 551Q114 551 101 566T87 605Q87 620 95 632T115 651T140 658Q167 658 181 644T195 605Q195 590 187 578T167 559T140 551Z" />
<glyph unicode="&#xe5;" horiz-adv-x="496" d="M148 -12Q102 -12 71 16T40 90Q40 146 76 182T186 236L318 266L305 254V326Q305 379 288 403T234 427Q190 427 167 400T143 320Q137 315 127 312T106 308Q87 308 76 319T65 348Q65 382 88 407T154 447T248 462Q325
462 362 425T399 306V78Q399 61 406 52T427 43Q437 43 450 48T472 61L479 31Q462 11 435 0T384 -12Q349 -12 330 9T311 69H306Q277 30 236 9T148 -12ZM194 42Q227 42 259 60T313 108L306 88V233L320 231L210 205Q169 195 148 172T126 114Q126 81 144 62T194 42ZM228
492Q180 492 149 521T117 595Q117 631 133 658T176 701T238 717Q290 717 321 687T353 609Q353 558 318 525T228 492ZM236 527Q260 528 273 548T286 603Q286 638 272 659T233 682Q210 681 197 662T184 606Q184 569 198 549T236 527Z" />
<glyph unicode="&#xe6;" horiz-adv-x="741" d="M148 -12Q102 -12 72 16T41 90Q41 146 77 182T186 236L305 264L307 309Q309 375 290 401T234 427Q191 427 167 400T143 320Q137 314 127 311T106 308Q87 308 76 318T65 349Q65 382 88 407T154 447T248 462Q298 462
328 443T372 379Q400 417 440 439T525 462Q579 462 619 439T682 372T704 267Q704 251 697 245T680 239H401Q402 181 418 136T468 66T550 41Q589 41 625 60T691 114L704 86Q683 56 651 34T583 0T507 -12Q444 -12 399 15T329 91Q294 42 247 15T148 -12ZM194 42Q229
42 261 60T318 113Q307 138 305 168T303 227L210 205Q170 195 148 172T126 114Q126 80 144 61T194 42ZM401 276L616 281Q616 347 589 385T516 424Q471 424 440 386T401 276Z" />
<glyph unicode="&#xe7;" horiz-adv-x="473" d="M245 -12Q182 -12 135 15T61 91T35 208Q35 283 65 340T148 429T269 462Q316 462 354 447T414 407T437 350Q437 329 424 317T389 304Q379 304 370 307T352 314Q352 368 329 396T260 424Q200 424 168 375T136 235Q136
139 172 90T282 41Q321 41 358 56T427 102L441 75Q420 49 389 29T320 -1T245 -12ZM257 -260Q208 -260 177 -236T145 -175Q145 -162 151 -155T171 -147Q189 -147 204 -158Q204 -199 217 -218T265 -238Q292 -238 309 -220T327 -169Q327 -131 304 -115T247 -99Q238
-99 231 -99T220 -102L247 0H273L249 -85L238 -75Q247 -73 256 -72T276 -71Q303 -71 328 -80T368 -110T384 -163Q384 -185 370 -208T328 -245T257 -260Z" />
<glyph unicode="&#xe8;" horiz-adv-x="479" d="M243 -12Q180 -12 134 15T61 92T35 206Q35 279 66 337T149 428T263 462Q317 462 356 438T418 372T441 273Q441 253 434 246T416 239H102V275L364 281L353 269Q355 317 343 351T307 405T253 424Q201 424 169 375T136
237Q136 177 153 133T204 65T286 41Q325 41 361 60T426 114L440 86Q419 56 387 34T319 0T243 -12ZM334 514Q265 556 227 580T170 616T148 633T144 644Q144 656 151 668T168 688T189 696Q195 696 202 692T224 674T271 629T359 541Q359 529 351 522T334 514Z" />
<glyph unicode="&#xe9;" horiz-adv-x="479" d="M243 -12Q180 -12 134 15T61 92T35 206Q35 279 66 337T149 428T263 462Q317 462 356 438T418 372T441 273Q441 253 434 246T416 239H102V275L364 281L353 269Q355 317 343 351T307 405T253 424Q201 424 169 375T136
237Q136 177 153 133T204 65T286 41Q325 41 361 60T426 114L440 86Q419 56 387 34T319 0T243 -12ZM169 514Q160 514 152 521T144 541Q200 597 231 628T278 674T301 692T314 696Q325 696 335 688T352 668T359 644Q359 639 355 634T334 616T277 580T169 514Z" />
<glyph unicode="&#xea;" horiz-adv-x="479" d="M243 -12Q180 -12 134 15T61 92T35 206Q35 279 66 337T149 428T263 462Q317 462 356 438T418 372T441 273Q441 253 434 246T416 239H102V275L364 281L353 269Q355 317 343 351T307 405T253 424Q201 424 169 375T136
237Q136 177 153 133T204 65T286 41Q325 41 361 60T426 114L440 86Q419 56 387 34T319 0T243 -12ZM251 700Q259 700 267 696T290 675T331 625T401 533Q401 522 395 516T376 510Q329 550 299 578T251 622Q232 606 202 578T124 510Q113 510 106 516T99 533Q143 591
169 624T210 674T233 695T251 700Z" />
<glyph unicode="&#xeb;" horiz-adv-x="479" d="M243 -12Q180 -12 134 15T61 92T35 206Q35 279 66 337T149 428T263 462Q317 462 356 438T418 372T441 273Q441 253 434 246T416 239H102V275L364 281L353 269Q355 317 343 351T307 405T253 424Q201 424 169 375T136
237Q136 177 153 133T204 65T286 41Q325 41 361 60T426 114L440 86Q419 56 387 34T319 0T243 -12ZM343 551Q316 551 303 566T290 605Q290 620 298 632T318 651T343 658Q371 658 384 644T398 605Q398 590 390 578T370 559T343 551ZM156 551Q130 551 117 566T103
605Q103 620 111 632T131 651T156 658Q183 658 197 644T211 605Q211 590 203 578T183 559T156 551Z" />
<glyph unicode="&#xec;" horiz-adv-x="314" d="M47 0Q47 36 63 40L124 60L113 46V408L125 393L63 405Q47 407 47 444Q83 449 108 452T159 455Q208 455 208 396V48L196 62L278 42Q278 26 275 18T260 0H47ZM240 514Q171 556 133 580T76 616T54 633T50 644Q50 656
57 668T74 688T95 696Q101 696 108 692T130 674T177 629T265 541Q265 529 257 522T240 514Z" />
<glyph unicode="&#xed;" horiz-adv-x="314" d="M47 0Q47 36 63 40L124 60L113 46V408L125 393L63 405Q47 407 47 444Q83 449 108 452T159 455Q208 455 208 396V48L196 62L278 42Q278 26 275 18T260 0H47ZM75 514Q66 514 58 521T50 541Q106 597 137 628T184 674T207
692T220 696Q231 696 241 688T258 668T265 644Q265 639 261 634T240 616T183 580T75 514Z" />
<glyph unicode="&#xee;" horiz-adv-x="314" d="M47 0Q47 36 63 40L124 60L113 46V408L125 393L63 405Q47 407 47 444Q83 449 108 452T159 455Q208 455 208 396V48L196 62L278 42Q278 26 275 18T260 0H47ZM157 700Q165 700 173 696T196 675T237 625T307 533Q307
522 301 516T282 510Q235 550 205 578T157 622Q138 606 108 578T30 510Q19 510 12 516T5 533Q49 591 75 624T116 674T139 695T157 700Z" />
<glyph unicode="&#xef;" horiz-adv-x="314" d="M47 0Q47 36 63 40L124 60L113 46V408L125 393L63 405Q47 407 47 444Q83 449 108 452T159 455Q208 455 208 396V48L196 62L278 42Q278 26 275 18T260 0H47ZM249 551Q222 551 209 566T196 605Q196 620 204 632T224
651T249 658Q277 658 290 644T304 605Q304 590 296 578T276 559T249 551ZM62 551Q36 551 23 566T9 605Q9 620 17 632T37 651T62 658Q89 658 103 644T117 605Q117 590 109 578T89 559T62 551Z" />
<glyph unicode="&#xf0;" horiz-adv-x="537" d="M247 -12Q149 -12 92 40T35 182Q35 250 66 303T153 385T281 415Q320 415 354 401T412 362L397 356Q392 405 369 454T306 548T214 628T97 686Q97 701 104 707T129 714Q158 714 200 696T286 647T365 577Q430 513 465
436T501 272Q501 188 469 124T380 24T247 -12ZM259 25Q304 25 335 57T384 146T401 281Q401 296 400 310T397 337L432 290Q402 333 360 355T271 378Q206 378 171 331T135 199Q135 116 167 71T259 25ZM195 557L446 636Q454 629 457 619T460 597L209 518Q202 526 199
536T195 557Z" />
<glyph unicode="&#xf1;" horiz-adv-x="605" d="M47 0Q47 36 63 40L120 60L109 43V403L121 388L63 400Q47 403 47 439Q88 446 109 448T145 451Q174 451 186 438T198 394V361L192 363H204Q245 409 296 435T395 462Q511 462 511 302V48L499 62L573 42Q573 26 570
18T557 0H365Q365 36 381 40L428 56L418 39V297Q418 397 343 397Q314 397 286 386T235 356T196 317L204 336V44L192 58L258 42Q258 26 254 18T239 0H47ZM237 594Q214 594 198 578T182 536Q164 536 156 540T147 554Q147 583 160 608T194 647T240 662Q266 662 290
651T337 628T384 616Q407 616 423 632T439 674Q457 674 465 670T473 657Q473 627 461 603T427 563T380 547Q354 547 331 559T284 582T237 594Z" />
<glyph unicode="&#xf2;" horiz-adv-x="528" d="M241 -12Q145 -12 90 46T35 201Q35 277 67 335T155 428T284 462Q348 462 394 436T466 361T492 247Q492 171 460 113T372 22T241 -12ZM261 26Q324 26 358 78T392 225Q392 321 360 372T266 424Q204 424 170 372T135
224Q135 128 167 77T261 26ZM345 514Q276 556 238 580T181 616T159 633T155 644Q155 656 162 668T179 688T200 696Q206 696 213 692T235 674T282 629T370 541Q370 529 362 522T345 514Z" />
<glyph unicode="&#xf3;" horiz-adv-x="528" d="M241 -12Q145 -12 90 46T35 201Q35 277 67 335T155 428T284 462Q348 462 394 436T466 361T492 247Q492 171 460 113T372 22T241 -12ZM261 26Q324 26 358 78T392 225Q392 321 360 372T266 424Q204 424 170 372T135
224Q135 128 167 77T261 26ZM180 514Q171 514 163 521T155 541Q211 597 242 628T289 674T312 692T325 696Q336 696 346 688T363 668T370 644Q370 639 366 634T345 616T288 580T180 514Z" />
<glyph unicode="&#xf4;" horiz-adv-x="528" d="M241 -12Q145 -12 90 46T35 201Q35 277 67 335T155 428T284 462Q348 462 394 436T466 361T492 247Q492 171 460 113T372 22T241 -12ZM261 26Q324 26 358 78T392 225Q392 321 360 372T266 424Q204 424 170 372T135
224Q135 128 167 77T261 26ZM262 700Q270 700 278 696T301 675T342 625T412 533Q412 522 406 516T387 510Q340 550 310 578T262 622Q243 606 213 578T135 510Q124 510 117 516T110 533Q154 591 180 624T221 674T244 695T262 700Z" />
<glyph unicode="&#xf5;" horiz-adv-x="528" d="M241 -12Q145 -12 90 46T35 201Q35 277 67 335T155 428T284 462Q348 462 394 436T466 361T492 247Q492 171 460 113T372 22T241 -12ZM261 26Q324 26 358 78T392 225Q392 321 360 372T266 424Q204 424 170 372T135
224Q135 128 167 77T261 26ZM188 594Q165 594 149 578T133 536Q115 536 107 540T98 554Q98 583 111 608T145 647T191 662Q217 662 241 651T288 628T335 616Q358 616 374 632T390 674Q408 674 416 670T424 657Q424 627 412 603T378 563T331 547Q305 547 282 559T235
582T188 594Z" />
<glyph unicode="&#xf6;" horiz-adv-x="528" d="M241 -12Q145 -12 90 46T35 201Q35 277 67 335T155 428T284 462Q348 462 394 436T466 361T492 247Q492 171 460 113T372 22T241 -12ZM261 26Q324 26 358 78T392 225Q392 321 360 372T266 424Q204 424 170 372T135
224Q135 128 167 77T261 26ZM354 551Q327 551 314 566T301 605Q301 620 309 632T329 651T354 658Q382 658 395 644T409 605Q409 590 401 578T381 559T354 551ZM167 551Q141 551 128 566T114 605Q114 620 122 632T142 651T167 658Q194 658 208 644T222 605Q222 590
214 578T194 559T167 551Z" />
<glyph unicode="&#xf7;" horiz-adv-x="572" d="M286 395Q263 395 251 408T239 443Q239 463 253 476T286 490Q310 490 322 477T334 443Q334 423 320 409T286 395ZM285 90Q262 90 250 103T238 137Q238 157 252 171T285 185Q309 185 321 172T333 137Q333 117 319
104T285 90ZM84 262Q73 275 73 296Q73 300 74 306T77 318H483Q495 305 495 284Q495 279 495 274T492 262H84Z" />
<glyph unicode="&#xf8;" horiz-adv-x="528" d="M241 -12Q145 -12 90 46T35 201Q35 277 67 335T155 428T284 462Q348 462 394 436T466 361T492 247Q492 171 460 113T372 22T241 -12ZM261 26Q324 26 358 78T392 225Q392 321 360 372T266 424Q204 424 170 372T135
224Q135 128 167 77T261 26ZM143 -86Q134 -86 124 -83T109 -73L381 530Q390 530 399 527T415 517L143 -86Z" />
<glyph unicode="&#xf9;" horiz-adv-x="583" d="M214 -12Q157 -12 127 25T96 143V399L112 384L49 396Q42 397 38 406T34 435Q75 440 96 443T131 446Q161 446 175 433T190 389V149Q190 98 210 74T270 50Q297 50 319 59T360 83T390 116L382 97V399L398 384L334 396Q327
397 324 406T320 435Q360 440 381 443T416 446Q447 446 461 433T475 389V78Q475 61 482 52T503 43Q514 43 526 48T548 61L556 31Q538 11 511 0T459 -12Q426 -12 407 9T387 69H382Q309 -12 214 -12ZM364 514Q295 556 257 580T200 616T178 633T174 644Q174 656 181
668T198 688T219 696Q225 696 232 692T254 674T301 629T389 541Q389 529 381 522T364 514Z" />
<glyph unicode="&#xfa;" horiz-adv-x="583" d="M214 -12Q157 -12 127 25T96 143V399L112 384L49 396Q42 397 38 406T34 435Q75 440 96 443T131 446Q161 446 175 433T190 389V149Q190 98 210 74T270 50Q297 50 319 59T360 83T390 116L382 97V399L398 384L334 396Q327
397 324 406T320 435Q360 440 381 443T416 446Q447 446 461 433T475 389V78Q475 61 482 52T503 43Q514 43 526 48T548 61L556 31Q538 11 511 0T459 -12Q426 -12 407 9T387 69H382Q309 -12 214 -12ZM199 514Q190 514 182 521T174 541Q230 597 261 628T308 674T331
692T344 696Q355 696 365 688T382 668T389 644Q389 639 385 634T364 616T307 580T199 514Z" />
<glyph unicode="&#xfb;" horiz-adv-x="583" d="M214 -12Q157 -12 127 25T96 143V399L112 384L49 396Q42 397 38 406T34 435Q75 440 96 443T131 446Q161 446 175 433T190 389V149Q190 98 210 74T270 50Q297 50 319 59T360 83T390 116L382 97V399L398 384L334 396Q327
397 324 406T320 435Q360 440 381 443T416 446Q447 446 461 433T475 389V78Q475 61 482 52T503 43Q514 43 526 48T548 61L556 31Q538 11 511 0T459 -12Q426 -12 407 9T387 69H382Q309 -12 214 -12ZM281 700Q289 700 297 696T320 675T361 625T431 533Q431 522 425
516T406 510Q359 550 329 578T281 622Q262 606 232 578T154 510Q143 510 136 516T129 533Q173 591 199 624T240 674T263 695T281 700Z" />
<glyph unicode="&#xfc;" horiz-adv-x="583" d="M214 -12Q157 -12 127 25T96 143V399L112 384L49 396Q42 397 38 406T34 435Q75 440 96 443T131 446Q161 446 175 433T190 389V149Q190 98 210 74T270 50Q297 50 319 59T360 83T390 116L382 97V399L398 384L334 396Q327
397 324 406T320 435Q360 440 381 443T416 446Q447 446 461 433T475 389V78Q475 61 482 52T503 43Q514 43 526 48T548 61L556 31Q538 11 511 0T459 -12Q426 -12 407 9T387 69H382Q309 -12 214 -12ZM373 551Q346 551 333 566T320 605Q320 620 328 632T348 651T373
658Q401 658 414 644T428 605Q428 590 420 578T400 559T373 551ZM186 551Q160 551 147 566T133 605Q133 620 141 632T161 651T186 658Q213 658 227 644T241 605Q241 590 233 578T213 559T186 551Z" />
<glyph unicode="&#xfd;" horiz-adv-x="504" d="M66 -270Q36 -270 20 -258T3 -225Q3 -218 5 -209T12 -192H33Q78 -192 108 -182T160 -150T201 -88T241 11L237 -39L62 396L82 382L6 401Q6 417 10 425T25 443H218Q218 406 202 401L142 384L157 402L290 67H264L391
397L397 383L328 401Q328 421 331 429T346 443H501Q501 424 497 415T485 403L428 384L447 402L287 -12Q242 -130 184 -200T66 -270ZM187 514Q178 514 170 521T162 541Q218 597 249 628T296 674T319 692T332 696Q343 696 353 688T370 668T377 644Q377 639 373 634T352
616T295 580T187 514Z" />
<glyph unicode="&#xfe;" horiz-adv-x="569" d="M42 -255Q42 -221 58 -214L115 -195L104 -212V686L116 671L54 683Q38 686 38 722Q73 727 99 730T140 734Q169 734 181 722T193 685V361L190 364H199Q229 410 275 436T370 462Q420 462 456 436T513 362T533 249Q533
171 505 112T424 21T301 -12Q272 -12 242 -6T185 11L199 19V-207L187 -194L269 -213Q269 -228 266 -237T251 -255H42ZM290 32Q364 32 398 80T433 230Q433 318 407 360T326 402Q296 402 272 391T227 358T186 310L196 334V48L186 67Q219 48 241 40T290 32Z" />
<glyph unicode="&#xff;" horiz-adv-x="504" d="M66 -270Q36 -270 20 -258T3 -225Q3 -218 5 -209T12 -192H33Q78 -192 108 -182T160 -150T201 -88T241 11L237 -39L62 396L82 382L6 401Q6 417 10 425T25 443H218Q218 406 202 401L142 384L157 402L290 67H264L391
397L397 383L328 401Q328 421 331 429T346 443H501Q501 424 497 415T485 403L428 384L447 402L287 -12Q242 -130 184 -200T66 -270ZM361 551Q334 551 321 566T308 605Q308 620 316 632T336 651T361 658Q389 658 402 644T416 605Q416 590 408 578T388 559T361 551ZM174
551Q148 551 135 566T121 605Q121 620 129 632T149 651T174 658Q201 658 215 644T229 605Q229 590 221 578T201 559T174 551Z" />
<glyph unicode="&#x2013;" horiz-adv-x="651" d="M61 241Q58 246 56 255T54 273Q54 286 56 293H588Q591 288 592 280T594 263Q594 247 592 241H61Z" />
<glyph unicode="&#x2014;" horiz-adv-x="846" d="M79 241Q75 246 73 255T70 273Q70 286 73 293H763Q768 288 770 280T772 263Q772 247 769 241H79Z" />
<glyph unicode="&#x2018;" horiz-adv-x="210" d="M159 707Q164 706 169 699T174 680Q137 670 122 653T107 616Q107 599 116 589T136 571T157 553T166 525Q166 503 151 489T113 474Q80 474 61 500T42 565Q42 607 60 637T106 685T159 707Z" />
<glyph unicode="&#x2019;" horiz-adv-x="210" d="M52 474Q48 476 42 482T36 500Q74 512 89 529T104 564Q104 582 95 592T74 610T54 628T45 656Q45 678 61 692T98 707Q131 707 149 682T167 617Q167 575 149 544T105 496T52 474Z" />
<glyph unicode="&#x201a;" horiz-adv-x="211" d="M52 -138Q46 -136 41 -129T35 -110Q73 -99 87 -83T102 -47Q102 -29 94 -19T74 -2T53 16T44 45Q44 67 59 81T96 95Q130 95 148 70T166 5Q166 -37 148 -67T104 -115T52 -138Z" />
<glyph unicode="&#x201c;" horiz-adv-x="383" d="M159 707Q164 706 169 699T174 680Q137 670 122 653T107 616Q107 599 116 589T136 571T157 553T166 525Q166 503 151 489T113 474Q80 474 61 500T42 565Q42 607 60 637T106 685T159 707ZM332 707Q337 706 342 699T347
680Q310 670 295 653T280 616Q280 599 289 589T309 571T330 553T339 525Q339 503 324 489T286 474Q253 474 234 500T215 565Q215 607 233 637T279 685T332 707Z" />
<glyph unicode="&#x201d;" horiz-adv-x="383" d="M52 474Q48 476 42 482T36 500Q74 512 89 529T104 564Q104 582 95 592T74 610T54 628T45 656Q45 678 61 692T98 707Q131 707 149 682T167 617Q167 575 149 544T105 496T52 474ZM224 474Q220 476 214 482T208 500Q246
512 261 529T276 564Q276 582 267 592T246 610T226 628T217 656Q217 678 233 692T270 707Q303 707 321 682T339 617Q339 575 321 544T277 496T224 474Z" />
<glyph unicode="&#x201e;" horiz-adv-x="384" d="M52 -138Q46 -136 41 -129T35 -110Q73 -99 87 -83T102 -47Q102 -29 94 -19T74 -2T53 16T44 45Q44 67 59 81T96 95Q130 95 148 70T166 5Q166 -37 148 -67T104 -115T52 -138ZM224 -138Q218 -136 213 -129T207 -110Q245
-99 259 -83T274 -47Q274 -29 266 -19T246 -2T225 16T216 45Q216 67 231 81T268 95Q302 95 320 70T338 5Q338 -37 320 -67T276 -115T224 -138Z" />
<glyph unicode="&#x2022;" horiz-adv-x="320" d="M159 185Q118 185 98 207T77 267Q77 290 89 308T120 338T159 349Q202 349 222 326T243 267Q243 232 218 209T159 185Z" />
<glyph unicode="&#x2039;" horiz-adv-x="273" d="M196 82L57 227Q43 241 37 249T31 267Q31 277 37 285T57 308L196 453Q207 450 215 443T224 422L91 247V287L224 113Q223 100 215 93T196 82Z" />
<glyph unicode="&#x203a;" horiz-adv-x="273" d="M77 82L216 227Q230 241 236 249T242 267Q242 277 236 285T216 308L77 453Q66 450 58 443T49 422L182 247V287L49 113Q50 100 58 93T77 82Z" />
</font>
</defs>
</svg>
