<svg xmlns="http://www.w3.org/2000/svg" viewBox="0 0 504 263.52"><defs><style>.cls-1{fill:#5f6f20;}.cls-2{fill:#fffbf2;}</style></defs><g id="Layer_2" data-name="Layer 2"><g id="Layer_1-2" data-name="Layer 1"><rect class="cls-1" width="504" height="263.52"/><path class="cls-2" d="M255.75,127.83h0c0,3.23.69,5.64,2.05,7.23s3.47,2.4,6.33,2.4h0a15.25,15.25,0,0,0,5.66-1,12,12,0,0,0,4.35-2.86,12.67,12.67,0,0,0,2.74-4.55,17.47,17.47,0,0,0,1-5.95h0v-8.36l-6.6.3a31.36,31.36,0,0,0-7.34,1.07,12.52,12.52,0,0,0-4.76,2.48,8.79,8.79,0,0,0-2.6,3.9A16.82,16.82,0,0,0,255.75,127.83Zm12.51-36.25h0a11.76,11.76,0,0,0-4.82.83,6.76,6.76,0,0,0-2.87,2.35,8.87,8.87,0,0,0-1.39,3.57,27.32,27.32,0,0,0-.34,4.49h0a12.09,12.09,0,0,1-6.54-1.46q-2.24-1.47-2.24-5h0a7.16,7.16,0,0,1,1.46-4.54,10.85,10.85,0,0,1,4-3.06A23.39,23.39,0,0,1,261.45,87a44.53,44.53,0,0,1,7.21-.55h0a32.69,32.69,0,0,1,8.28.93,14.29,14.29,0,0,1,5.89,3,13,13,0,0,1,3.56,5.53,25.56,25.56,0,0,1,1.19,8.34h0v26.78a15.29,15.29,0,0,0,.34,3.57,5.42,5.42,0,0,0,1.12,2.28,4.08,4.08,0,0,0,2,1.21,10.75,10.75,0,0,0,3,.36h.3v4.33h-14l-1.61-8.88h-.86q-1.6,2.16-3.13,4a17.74,17.74,0,0,1-3.32,3.12,14.76,14.76,0,0,1-4.11,2,18.19,18.19,0,0,1-5.52.73h0a20.26,20.26,0,0,1-6.38-1,13.41,13.41,0,0,1-5.09-3,14,14,0,0,1-3.36-5.15,20.25,20.25,0,0,1-1.2-7.33h0q0-8.22,5.84-12.2t17.69-4.33h0l8.58-.32v-6.2a40.68,40.68,0,0,0-.3-5.12,10.41,10.41,0,0,0-1.31-4,6.69,6.69,0,0,0-2.91-2.62A11.51,11.51,0,0,0,268.26,91.58ZM348,142.81H308.65v-4.33h6.91a20.08,20.08,0,0,0,3.3-.26,6.72,6.72,0,0,0,2.67-1,5.54,5.54,0,0,0,1.82-2.24,9.41,9.41,0,0,0,.67-3.89h0V76.8q-2,2.43-3.72,4.39a38.19,38.19,0,0,1-3.38,3.37,15.47,15.47,0,0,1-3.15,2.2,6.7,6.7,0,0,1-3.06.79h0A4.92,4.92,0,0,1,307,86a5.58,5.58,0,0,1-1.47-4h0c1-.27,2.1-.6,3.16-1a29.14,29.14,0,0,0,3.37-1.52q1.79-.93,3.89-2.27T320.6,74h0l7.27-5.35h6.6v62.37a9.59,9.59,0,0,0,.66,3.89,5.27,5.27,0,0,0,1.8,2.24,7,7,0,0,0,2.7,1,20.38,20.38,0,0,0,3.31.26h5Zm57.74,0H366.38v-4.33h6.91a20.08,20.08,0,0,0,3.3-.26,6.65,6.65,0,0,0,2.68-1,5.37,5.37,0,0,0,1.81-2.24,9.22,9.22,0,0,0,.69-3.89h0V76.8c-1.31,1.62-2.56,3.08-3.73,4.39a38.2,38.2,0,0,1-3.39,3.37,15,15,0,0,1-3.15,2.2,6.69,6.69,0,0,1-3,.79h0A5,5,0,0,1,364.71,86a5.65,5.65,0,0,1-1.44-4h0c1-.27,2.09-.6,3.14-1a29.24,29.24,0,0,0,3.38-1.52q1.8-.93,3.87-2.27T378.34,74h0l7.26-5.35h6.59v62.37a9.59,9.59,0,0,0,.66,3.89,5.19,5.19,0,0,0,1.83,2.24,6.87,6.87,0,0,0,2.69,1,20.26,20.26,0,0,0,3.3.26h5.05ZM451,87.45h21.49v4.33h-.3a8.94,8.94,0,0,0-2.6.33,4.52,4.52,0,0,0-2,1.23A8.84,8.84,0,0,0,466,95.81c-.5,1-1.06,2.39-1.67,4h0l-15.67,43.36q-1.83,5-3.43,8.78a42.13,42.13,0,0,1-3.39,6.48,20.31,20.31,0,0,1-3.85,4.46,17,17,0,0,1-4.77,2.83,25.35,25.35,0,0,1-6.15,1.46,70.47,70.47,0,0,1-8.06.4h-.9v-4.89a23.63,23.63,0,0,0,9-1.56,20.32,20.32,0,0,0,6.52-4.29,23.74,23.74,0,0,0,4.59-6.43,48.47,48.47,0,0,0,3.1-8h0l-19.1-45.14a19.74,19.74,0,0,0-1.37-2.64,6.67,6.67,0,0,0-1.49-1.69,4.64,4.64,0,0,0-1.9-.9,11,11,0,0,0-2.6-.26h-.32V87.45H439.4v4.33h-.3A7.4,7.4,0,0,0,434.43,93a4.5,4.5,0,0,0-1.53,3.77h0a9.6,9.6,0,0,0,.17,1.75,13,13,0,0,0,.63,2h0L441.26,119c.47,1.17,1,2.46,1.49,3.85s1,2.78,1.47,4.14.86,2.65,1.23,3.85a22.79,22.79,0,0,1,.76,3.13h.3c.36-1.51.88-3.35,1.54-5.52s1.42-4.49,2.29-7h0l6.91-20.11a17.77,17.77,0,0,0,.68-2.42,10.85,10.85,0,0,0,.23-2h0a4.41,4.41,0,0,0-1.7-3.87,8.69,8.69,0,0,0-5.12-1.22H451Z"/><path class="cls-2" d="M255.61,194.83h0a19.49,19.49,0,0,1-4.08-.39,9.75,9.75,0,0,1-3.11-1.19,5.91,5.91,0,0,1-2-2,5.29,5.29,0,0,1-.7-2.76h0a4.4,4.4,0,0,1,.4-2,3.73,3.73,0,0,1,1-1.27,3.33,3.33,0,0,1,1.23-.65,4.22,4.22,0,0,1,1.18-.2h0a13.08,13.08,0,0,0,.32,3,6.39,6.39,0,0,0,1.08,2.41,5.26,5.26,0,0,0,2,1.64,6.92,6.92,0,0,0,3,.6h0a9.41,9.41,0,0,0,2.84-.4,5.81,5.81,0,0,0,2.06-1.11,4.82,4.82,0,0,0,1.27-1.72,5.51,5.51,0,0,0,.43-2.21h0a5,5,0,0,0-.33-1.91,3.92,3.92,0,0,0-1.17-1.5,12.35,12.35,0,0,0-2.26-1.44c-1-.48-2.15-1-3.59-1.66h0c-1.54-.68-2.88-1.34-4-2a12.54,12.54,0,0,1-2.82-2.06,7.35,7.35,0,0,1-1.67-2.52,9.5,9.5,0,0,1-.55-3.38h0a7.94,7.94,0,0,1,.8-3.62,7.45,7.45,0,0,1,2.29-2.65,11,11,0,0,1,3.57-1.62,18.29,18.29,0,0,1,4.62-.55h0a14.7,14.7,0,0,1,3.76.44,9,9,0,0,1,2.75,1.18,5,5,0,0,1,1.66,1.76,4.3,4.3,0,0,1,.56,2.11h0a3.31,3.31,0,0,1-1.12,2.61,4.71,4.71,0,0,1-3.2,1h0a7.67,7.67,0,0,0-1.25-4.67,4.52,4.52,0,0,0-3.89-1.67h0a8.56,8.56,0,0,0-2.6.35,4.74,4.74,0,0,0-1.77,1,3.9,3.9,0,0,0-1,1.52,5.39,5.39,0,0,0-.32,1.93h0a4.47,4.47,0,0,0,.4,2,4.74,4.74,0,0,0,1.31,1.53,11.45,11.45,0,0,0,2.31,1.36c.94.44,2.07.93,3.4,1.47h0a39,39,0,0,1,4.06,2,12.11,12.11,0,0,1,2.79,2.1,7.6,7.6,0,0,1,1.62,2.58,9.51,9.51,0,0,1,.52,3.29h0a9.22,9.22,0,0,1-.85,4.09,7.92,7.92,0,0,1-2.39,2.93,10.2,10.2,0,0,1-3.72,1.77A18.59,18.59,0,0,1,255.61,194.83Zm30.87-30h0a5.79,5.79,0,0,0-5.13,2.7c-1.2,1.81-1.9,4.44-2.12,7.9H293a25,25,0,0,0-.35-4.32,11.46,11.46,0,0,0-1.11-3.35,5.46,5.46,0,0,0-2-2.16A5.67,5.67,0,0,0,286.48,164.81Zm.73,30h0a14.87,14.87,0,0,1-5.84-1.09,11.56,11.56,0,0,1-4.36-3.19,14.6,14.6,0,0,1-2.73-5.16,23.43,23.43,0,0,1-.95-6.94h0q0-8.38,3.45-12.62t9.81-4.22h0a14.22,14.22,0,0,1,5.2.9,10.14,10.14,0,0,1,3.92,2.7,12.35,12.35,0,0,1,2.46,4.47,20.39,20.39,0,0,1,.86,6.21h0v2.74H279.12a24.33,24.33,0,0,0,.65,5.62,11,11,0,0,0,1.72,3.87,6.79,6.79,0,0,0,2.77,2.24,9.37,9.37,0,0,0,3.76.71h0a11,11,0,0,0,2.88-.35,11.21,11.21,0,0,0,2.4-.94,9.61,9.61,0,0,0,1.92-1.33,7.25,7.25,0,0,0,1.36-1.56h0a1.87,1.87,0,0,1,.77.73,2.38,2.38,0,0,1,.37,1.32h0a3.8,3.8,0,0,1-.64,1.94,6.4,6.4,0,0,1-2,1.91,11.68,11.68,0,0,1-3.29,1.46A16.28,16.28,0,0,1,287.21,194.83Zm34.07-3.09v2.51H304v-2.51h.17a11.47,11.47,0,0,0,1.91-.15,3.66,3.66,0,0,0,1.55-.59,3.06,3.06,0,0,0,1-1.3,5.4,5.4,0,0,0,.4-2.25h0V168.78a4.91,4.91,0,0,0-.4-2.12,3.05,3.05,0,0,0-1.06-1.23,3.79,3.79,0,0,0-1.57-.58,11.28,11.28,0,0,0-1.88-.15H304v-2.51h9.2l1.13,5.93h.29c.4-.9.8-1.74,1.2-2.54a8.24,8.24,0,0,1,1.51-2.06,6.45,6.45,0,0,1,2.2-1.41,9.24,9.24,0,0,1,3.3-.5h0a8.42,8.42,0,0,1,4.87,1.13,3.72,3.72,0,0,1,1.59,3.21h0a4.84,4.84,0,0,1-.31,1.73,3.34,3.34,0,0,1-1,1.35,4.5,4.5,0,0,1-1.72.88,9.08,9.08,0,0,1-2.57.31h0a6.86,6.86,0,0,0-.7-3.58,2.69,2.69,0,0,0-2.45-1.1h0a3.3,3.3,0,0,0-2,.63,5.78,5.78,0,0,0-1.54,1.67,11.14,11.14,0,0,0-1.1,2.38,19.29,19.29,0,0,0-.73,2.76,25,25,0,0,0-.4,2.81q-.12,1.41-.12,2.55h0v9.4a4.88,4.88,0,0,0,.4,2.12,2.81,2.81,0,0,0,1.06,1.21,4.23,4.23,0,0,0,1.57.54,12.52,12.52,0,0,0,1.88.13h1.66Zm10.31,0h.79a12.56,12.56,0,0,0,1.89-.13,4.24,4.24,0,0,0,1.56-.54,2.75,2.75,0,0,0,1.06-1.21,4.74,4.74,0,0,0,.4-2.12h0v-19a4.77,4.77,0,0,0-.4-2.12,3,3,0,0,0-1.06-1.23,3.8,3.8,0,0,0-1.56-.58,11.31,11.31,0,0,0-1.89-.15h-.17v-2.51H342.9v25.26a5.41,5.41,0,0,0,.39,2.25,3.21,3.21,0,0,0,1,1.3,3.7,3.7,0,0,0,1.57.59,11.52,11.52,0,0,0,1.9.15h.78v2.51h-17Zm4.85-39.25h0a4.88,4.88,0,0,1,.27-1.75,2.88,2.88,0,0,1,.73-1.14,2.53,2.53,0,0,1,1.08-.61,4.72,4.72,0,0,1,1.34-.18h0a4.68,4.68,0,0,1,1.32.18,2.46,2.46,0,0,1,1.06.61,3.11,3.11,0,0,1,.73,1.14,4.65,4.65,0,0,1,.28,1.75h0a4.69,4.69,0,0,1-.28,1.75,3.11,3.11,0,0,1-.73,1.14,2.72,2.72,0,0,1-1.06.63,4.68,4.68,0,0,1-1.32.19h0a4.71,4.71,0,0,1-1.34-.19,2.8,2.8,0,0,1-1.08-.63,2.88,2.88,0,0,1-.73-1.14A4.91,4.91,0,0,1,336.44,152.49Zm29.35,12.32h0a5.79,5.79,0,0,0-5.12,2.7c-1.2,1.81-1.9,4.44-2.12,7.9h13.76a25,25,0,0,0-.35-4.32,10.9,10.9,0,0,0-1.11-3.35,5.51,5.51,0,0,0-2-2.16A5.74,5.74,0,0,0,365.79,164.81Zm.74,30h0a14.82,14.82,0,0,1-5.83-1.09,11.59,11.59,0,0,1-4.37-3.19,14.93,14.93,0,0,1-2.73-5.16,23.43,23.43,0,0,1-1-6.94h0q0-8.38,3.45-12.62t9.81-4.22h0a14.22,14.22,0,0,1,5.2.9,10,10,0,0,1,3.91,2.7,12.22,12.22,0,0,1,2.47,4.47,20.07,20.07,0,0,1,.87,6.21h0v2.74H358.43a24.84,24.84,0,0,0,.66,5.62,11,11,0,0,0,1.73,3.87,6.77,6.77,0,0,0,2.76,2.24,9.42,9.42,0,0,0,3.77.71h0a10.91,10.91,0,0,0,2.87-.35,11.1,11.1,0,0,0,2.41-.94,9.26,9.26,0,0,0,1.91-1.33,7.25,7.25,0,0,0,1.36-1.56h0a1.89,1.89,0,0,1,.78.73,2.37,2.37,0,0,1,.36,1.32h0a3.64,3.64,0,0,1-.65,1.94,6.25,6.25,0,0,1-1.95,1.91,11.55,11.55,0,0,1-3.29,1.46A16.28,16.28,0,0,1,366.53,194.83Zm27.39,0h0a19.63,19.63,0,0,1-4.08-.39,9.78,9.78,0,0,1-3.1-1.19,5.91,5.91,0,0,1-2-2,5.29,5.29,0,0,1-.7-2.76h0a4.54,4.54,0,0,1,.39-2,3.88,3.88,0,0,1,1-1.27,3.25,3.25,0,0,1,1.23-.65,4.22,4.22,0,0,1,1.18-.2h0a13.08,13.08,0,0,0,.32,3,6.39,6.39,0,0,0,1.08,2.41,5.3,5.3,0,0,0,2,1.64,7,7,0,0,0,3,.6h0a9.41,9.41,0,0,0,2.84-.4,5.9,5.9,0,0,0,2.06-1.11,4.82,4.82,0,0,0,1.27-1.72,5.69,5.69,0,0,0,.43-2.21h0a5,5,0,0,0-.33-1.91,4.06,4.06,0,0,0-1.18-1.5,11.89,11.89,0,0,0-2.25-1.44c-1-.48-2.15-1-3.59-1.66h0c-1.54-.68-2.88-1.34-4-2a12.32,12.32,0,0,1-2.82-2.06,7.35,7.35,0,0,1-1.67-2.52,9.28,9.28,0,0,1-.55-3.38h0a7.94,7.94,0,0,1,.8-3.62,7.45,7.45,0,0,1,2.29-2.65,11,11,0,0,1,3.57-1.62,18.27,18.27,0,0,1,4.61-.55h0a14.73,14.73,0,0,1,3.77.44,9,9,0,0,1,2.75,1.18,5.13,5.13,0,0,1,1.66,1.76,4.3,4.3,0,0,1,.56,2.11h0a3.28,3.28,0,0,1-1.13,2.61,4.68,4.68,0,0,1-3.19,1h0a7.67,7.67,0,0,0-1.25-4.67,4.54,4.54,0,0,0-3.9-1.67h0a8.61,8.61,0,0,0-2.6.35,4.74,4.74,0,0,0-1.77,1,3.88,3.88,0,0,0-1,1.52,5.39,5.39,0,0,0-.33,1.93h0a4.47,4.47,0,0,0,.41,2A4.62,4.62,0,0,0,391,172.7a11.45,11.45,0,0,0,2.31,1.36q1.41.66,3.39,1.47h0a38.23,38.23,0,0,1,4.07,2,12.11,12.11,0,0,1,2.79,2.1,7.6,7.6,0,0,1,1.62,2.58,9.51,9.51,0,0,1,.52,3.29h0a9.22,9.22,0,0,1-.85,4.09,7.92,7.92,0,0,1-2.39,2.93,10.36,10.36,0,0,1-3.72,1.77A18.62,18.62,0,0,1,393.92,194.83Z"/><path class="cls-2" d="M121.47,41.76a90,90,0,1,0,90,90A90,90,0,0,0,121.47,41.76Zm0,166.32a76.32,76.32,0,1,1,76.32-76.32A76.32,76.32,0,0,1,121.47,208.08Z"/><circle class="cls-2" cx="121.47" cy="131.76" r="67.5"/><path class="cls-1" d="M163.12,102.36c-12.79,3.43-27.78,4.9-41.65,4.9s-28.86-1.47-41.65-4.9l-2.45,9.8a173.5,173.5,0,0,0,29.4,4.9v63.7h9.8v-29.4h9.8v29.4h9.8v-63.7a173.33,173.33,0,0,0,29.4-4.9Zm-41.65,0a9.8,9.8,0,1,0-9.8-9.8A9.83,9.83,0,0,0,121.47,102.36Z"/></g></g></svg>