<?xml version="1.0" standalone="no"?>
<!DOCTYPE svg PUBLIC "-//W3C//DTD SVG 1.1//EN" "http://www.w3.org/Graphics/SVG/1.1/DTD/svg11.dtd">
<svg xmlns="http://www.w3.org/2000/svg">
<defs >
<font id="Petrona" horiz-adv-x="544" ><font-face
    font-family="Petrona"
    units-per-em="1000"
    panose-1="0 0 0 0 0 0 0 0 0 0"
    ascent="858"
    descent="-270"
    alphabetic="0" />
<glyph unicode=" " horiz-adv-x="225" />
<glyph unicode="!" horiz-adv-x="230" d="M115 178Q103 178 92 181Q88 250 85 317T78 441T73 539T71 598Q71 627 80 641T115 655Q139 655 148 641T158 598Q158 580 156 539T151 441T145 317T138 181Q128 178 115 178ZM116 -12Q93 -12 80 1T67 37Q67 58 82 71T116
85Q140 85 153 72T166 37Q166 16 151 2T116 -12Z" />
<glyph unicode="&quot;" horiz-adv-x="264" d="M66 484Q61 484 56 485T48 489Q41 537 37 570T30 626T27 660Q27 684 35 699T66 715Q89 715 97 700T106 660Q106 648 104 626T98 571T85 489Q78 484 66 484ZM198 484Q193 484 188 485T180 489Q173 537 169 570T162
626T159 660Q159 684 167 699T198 715Q221 715 229 700T238 660Q238 648 236 626T230 571T217 489Q210 484 198 484Z" />
<glyph unicode="#" horiz-adv-x="549" d="M169 22Q136 22 124 36L149 186L167 168H16Q13 173 12 180T10 193Q10 200 11 204T13 212H173L151 195L174 344L192 326H45Q42 331 41 338T39 351Q39 358 40 362T42 370H199L177 353L204 517Q235 517 249 503L224 353L211
370H369L353 353L380 517Q413 517 425 503L400 353L381 370H531Q535 366 537 359T539 344Q539 338 538 334T535 326H377L398 344L375 195L356 212H502Q506 208 508 201T510 187Q510 181 509 176T506 168H351L372 186L345 22Q314 22 300 36L325 186L337 168H181L196
186L169 22ZM198 195L187 211H343L328 195L351 344L361 328H207L221 344L198 195Z" />
<glyph unicode="$" horiz-adv-x="516" d="M259 -2Q220 -2 185 4T118 22T57 47L74 178Q77 186 84 189T99 192Q110 192 117 189L124 61L106 92Q132 70 172 56T260 41Q314 41 349 73T384 158Q384 188 372 209T329 251T242 297Q183 324 148 351T97 409T81 483Q81 557
130 601T261 645Q286 645 314 641T372 627T431 602L417 476Q402 476 393 481T381 493L370 590L390 554Q370 576 334 589T259 603Q207 603 177 576T147 503Q147 475 159 453T203 411T291 366Q353 338 390 311T443 253T459 178Q459 125 434 84T365 21T259 -2ZM281
-99Q271 -99 260 -97T241 -91V740Q251 740 262 738T281 732V-99Z" />
<glyph unicode="%" horiz-adv-x="693" d="M91 -12Q76 -12 66 -5T53 13L602 655Q616 655 626 648T640 630L91 -12ZM516 5Q479 5 452 23T409 72T394 141Q394 186 410 224T457 284T528 307Q566 307 593 289T635 241T650 171Q650 125 634 88T587 28T516 5ZM521 32Q555
32 575 64T595 151Q595 211 576 245T523 280Q489 280 470 249T450 161Q450 102 469 67T521 32ZM165 346Q127 346 100 364T58 413T43 482Q43 527 60 565T107 625T177 648Q215 648 242 630T284 582T299 512Q299 467 283 429T236 369T165 346ZM170 373Q205 373 224
405T244 492Q244 552 225 586T172 621Q138 621 119 590T100 502Q100 443 118 408T170 373Z" />
<glyph unicode="&amp;" horiz-adv-x="742" d="M278 -12Q221 -12 173 7T96 65T67 160Q67 211 89 246T147 307T223 353T298 397T356 450T379 524Q379 568 355 594T290 621Q250 621 224 595T197 527Q197 493 218 458T287 366L499 125Q527 94 553 77T611 54T686 47Q686
34 677 20T650 -3T605 -12Q568 -12 526 7T446 72L224 331Q188 374 167 407T137 466T128 516Q128 580 174 617T291 655Q334 655 367 640T421 597T441 529Q441 486 420 456T366 402T295 359T224 314T169 258T148 178Q148 134 167 101T219 48T297 29Q373 29 429 79T517
219T549 427L564 403L459 408Q459 423 461 432T471 446L699 463Q701 460 702 454T704 441Q704 427 697 415T676 399L592 402L609 425Q610 328 587 248T520 109T415 20T278 -12Z" />
<glyph unicode="&apos;" horiz-adv-x="132" d="M66 484Q61 484 56 485T48 489Q41 537 37 570T30 626T27 660Q27 684 35 699T66 715Q89 715 97 700T106 660Q106 648 104 626T98 571T85 489Q78 484 66 484Z" />
<glyph unicode="(" horiz-adv-x="320" d="M287 -268Q271 -268 243 -246T183 -181T122 -75T75 72T56 258Q56 361 74 444T122 591T183 698T243 763T287 785Q306 785 309 764Q267 728 237 673T186 550T156 407T146 257Q146 183 155 109T185 -33T236 -156T309 -247Q306
-268 287 -268Z" />
<glyph unicode=")" horiz-adv-x="320" d="M33 -268Q49 -268 77 -246T137 -181T198 -75T245 72T264 258Q264 361 246 444T198 591T137 698T77 763T33 785Q14 785 11 764Q53 728 83 673T134 550T164 407T174 257Q174 183 165 109T135 -33T84 -156T11 -247Q14 -268 33 -268Z" />
<glyph unicode="*" horiz-adv-x="451" d="M149 382Q137 384 125 390T104 405T90 426L217 546L219 540L45 564Q42 573 42 583Q42 599 48 612T65 633L224 554L219 549L189 725Q196 730 205 732T225 734Q236 734 245 732T261 725L234 550L228 554L384 635Q396 627
402 614T408 584Q408 580 408 576T407 567L233 539L234 545L363 427Q358 416 349 406T328 390T304 383L222 536H229L149 382Z" />
<glyph unicode="+" horiz-adv-x="572" d="M293 77Q285 77 276 79T261 88V501Q264 503 269 503T279 504Q288 504 297 502T311 493V80Q307 79 303 78T293 77ZM86 265Q76 277 76 295Q76 299 77 304T79 314H481Q492 303 492 284Q492 280 492 275T489 265H86Z" />
<glyph unicode="," horiz-adv-x="208" d="M53 -132Q48 -130 43 -124T38 -107Q73 -96 87 -80T101 -46Q101 -29 93 -20T75 -4T56 12T48 39Q48 59 62 71T95 84Q126 84 143 60T160 1Q160 -40 143 -68T100 -112T53 -132Z" />
<glyph unicode="-" horiz-adv-x="360" d="M65 229Q62 234 60 240T58 255Q58 288 102 288Q138 288 167 287T230 286Q248 286 264 287T296 293Q299 287 300 281T302 267Q302 234 259 234Q222 234 194 235T131 236Q112 236 96 235T65 229Z" />
<glyph unicode="." horiz-adv-x="209" d="M104 -12Q81 -12 68 1T55 37Q55 58 70 71T104 85Q128 85 141 72T154 37Q154 16 139 2T104 -12Z" />
<glyph unicode="/" horiz-adv-x="420" d="M88 -200Q70 -200 58 -196T38 -181L332 734Q347 734 359 730T383 715L88 -200Z" />
<glyph unicode="0" horiz-adv-x="662" d="M312 -12Q237 -12 181 25T94 131T63 291Q63 369 84 435T145 551T236 628T351 655Q426 655 481 618T567 512T598 352Q598 274 577 208T517 92T426 15T312 -12ZM333 36Q385 36 424 71T486 170T509 317Q509 457 463 532T329
607Q277 607 238 572T176 473T154 327Q154 187 200 112T333 36Z" />
<glyph unicode="1" horiz-adv-x="385" d="M79 0Q79 16 83 25T95 36L189 57L174 38V610L193 577L50 549Q43 559 43 573Q43 579 43 584T47 594L220 655H256V39L238 59L348 37Q348 24 345 16T330 0H79Z" />
<glyph unicode="2" horiz-adv-x="538" d="M75 0Q62 6 56 16T50 46Q215 174 292 278T369 482Q369 546 339 579T249 612Q175 612 117 556L129 593L120 487Q119 477 110 473T82 468L65 599Q165 655 257 655Q350 655 404 609T459 483Q459 419 418 344T296 190T102
29L91 61L445 40L409 31L437 164Q463 164 475 148V0H75Z" />
<glyph unicode="3" horiz-adv-x="547" d="M143 599L134 491Q133 478 124 472T95 465L79 597Q129 626 178 640T276 655Q365 655 417 615T469 506Q469 443 422 399T284 331V340Q383 322 435 276T487 160Q487 109 459 71T379 10T260 -12Q200 -12 153 6T79 57T52 130Q52
171 89 171Q98 171 107 169T120 162Q120 99 155 66T258 32Q323 32 360 66T397 158Q397 216 360 251T234 312Q224 314 220 323T215 350Q301 372 342 408T384 497Q384 548 351 579T263 611Q226 611 189 595T115 546L143 599Z" />
<glyph unicode="4" horiz-adv-x="501" d="M218 0Q218 16 222 25T234 36L318 54L304 38V597L339 606L45 188L24 213H449V170H33Q3 176 3 210L319 655Q386 655 386 603V39L368 56L455 37Q455 22 452 14T437 0H218Z" />
<glyph unicode="5" horiz-adv-x="547" d="M254 -12Q200 -12 154 7T81 58T53 128Q53 150 63 160T92 171Q100 171 108 169T121 163Q121 102 156 67T253 32Q320 32 360 73T400 185Q400 233 381 270T329 327T252 348Q215 348 175 334T111 297Q99 302 95 309T91 336L117
641H455L436 489Q419 491 410 493T398 500T394 510L385 627L420 601L127 584L158 616V343L120 344Q158 367 196 377T277 388Q341 388 389 365T463 301T490 202Q490 141 459 93T374 16T254 -12Z" />
<glyph unicode="6" horiz-adv-x="583" d="M297 -12Q227 -12 175 23T94 124T65 277Q65 363 85 433T142 552T232 628T350 655Q392 655 424 642T476 606T495 554Q495 536 486 526T459 516Q451 516 443 518T428 524Q427 564 403 586T335 609Q247 609 202 531T156 304Q156
174 195 105T308 35Q368 35 403 76T439 188Q439 258 404 299T309 340Q280 340 246 328T184 296T140 253L138 300Q158 327 191 348T263 381T340 393Q396 393 437 370T502 304T526 206Q526 143 497 94T416 17T297 -12Z" />
<glyph unicode="7" horiz-adv-x="464" d="M218 -12Q206 -12 192 -6T168 19T158 77Q158 125 171 183T216 308T298 452T426 616L432 586L83 599L108 626L102 505Q101 493 90 488T59 482L39 641H451Q461 634 461 623Q461 607 440 576T389 498T327 395T275 269T254
126Q254 92 260 69T279 23Q272 5 257 -3T218 -12Z" />
<glyph unicode="8" horiz-adv-x="568" d="M481 501Q481 459 461 425T409 367T346 325L303 336Q324 350 346 369T383 418T398 491Q398 552 366 580T282 608Q228 608 199 579T170 498Q170 460 188 435T237 393T304 362T377 334T444 299T493 249T512 172Q512 120
485 79T406 13T279 -12Q211 -12 161 10T83 69T56 153Q56 200 80 237T142 301T220 340L265 331Q238 321 211 300T165 247T147 169Q147 100 187 68T289 35Q352 35 386 66T421 151Q421 191 403 216T356 259T291 289T220 317T155 351T107 402T89 479Q89 532 114 571T184
633T289 655Q346 655 389 636T456 582T481 501Z" />
<glyph unicode="9" horiz-adv-x="588" d="M290 657Q364 657 415 621T494 516T522 349Q522 238 488 158T392 33T245 -11Q195 -11 156 3T95 42T72 98Q72 115 81 125T108 136Q116 136 125 133T141 127Q141 82 172 57T257 32Q346 32 389 104T433 329Q433 610 279 610Q218
610 183 569T148 459Q148 390 182 350T275 309Q306 309 340 320T403 351T449 394V347Q429 320 396 300T323 268T245 256Q190 256 149 279T85 343T62 440Q62 503 91 552T172 629T290 657Z" />
<glyph unicode=":" horiz-adv-x="209" d="M104 -12Q81 -12 68 1T55 37Q55 58 70 71T104 85Q128 85 141 72T154 37Q154 16 139 2T104 -12ZM104 334Q81 334 68 347T55 383Q55 404 70 417T104 431Q128 431 141 418T154 383Q154 362 139 348T104 334Z" />
<glyph unicode=";" horiz-adv-x="208" d="M53 -132Q48 -130 43 -124T38 -107Q73 -96 87 -80T101 -46Q101 -29 93 -20T75 -4T56 12T48 39Q48 59 62 71T95 84Q126 84 143 60T160 1Q160 -40 143 -68T100 -112T53 -132ZM97 333Q71 333 57 348T43 387Q43 410 59 425T97
440Q123 440 137 426T152 387Q152 364 136 349T97 333Z" />
<glyph unicode="&lt;" horiz-adv-x="572" d="M489 85Q493 92 493 109Q493 117 492 126T487 139L92 302V276L487 439Q490 443 491 451T493 468Q493 476 492 482T489 493L65 314Q62 310 61 303T59 289Q59 282 60 275T65 264L489 85Z" />
<glyph unicode="=" horiz-adv-x="572" d="M86 354Q76 366 76 384Q76 388 77 393T79 403H481Q492 392 492 373Q492 369 492 364T489 354H86ZM86 432Q76 444 76 462Q76 466 77 471T79 481H481Q492 470 492 451Q492 447 492 442T489 432H86Z" />
<glyph unicode="&gt;" horiz-adv-x="572" d="M83 85Q79 92 79 109Q79 117 80 126T85 139L480 302V276L85 439Q82 443 81 451T79 468Q79 476 80 482T83 493L507 314Q510 310 511 303T513 289Q513 282 512 275T507 264L83 85Z" />
<glyph unicode="?" horiz-adv-x="435" d="M178 178Q166 178 155 181L147 307Q177 316 208 330T266 366T309 419T326 493Q326 551 298 585T216 620Q167 620 138 589T109 495Q103 492 96 490T75 487Q55 487 43 500T30 536Q30 584 79 619T216 655Q304 655 354 613T405
498Q405 460 390 428T351 371T298 328T243 298T198 283L208 295L201 181Q192 178 178 178ZM178 -12Q155 -12 142 1T129 37Q129 58 144 71T178 85Q202 85 215 72T228 37Q228 16 213 2T178 -12Z" />
<glyph unicode="@" horiz-adv-x="862" d="M403 -166Q321 -166 254 -141T137 -69T62 43T35 190Q35 281 66 357T155 490T289 576T456 607Q537 607 604 583T721 515T798 411T826 278Q826 217 808 165T756 74T679 13T583 -9Q549 -9 530 6T511 59Q511 76 515 99T528
154L526 155Q494 81 448 36T343 -9Q286 -9 253 34T220 160Q220 245 250 312T335 420T457 460Q488 460 520 453T580 432T630 401L583 115Q581 103 579 90T576 65Q576 47 585 38T614 29Q645 29 671 48T717 100T748 177T759 271Q759 367 720 434T609 536T442 571Q339
571 262 526T143 401T100 214Q100 104 141 28T256 -87T421 -127Q468 -127 511 -117T590 -89T650 -50L660 -71Q638 -90 604 -112T521 -150T403 -166ZM371 43Q394 43 417 57T461 97T502 155T536 226L520 162L561 397L571 369Q550 395 520 408T458 421Q410 421 373
388T314 298T292 170Q292 106 313 75T371 43Z" />
<glyph unicode="A" horiz-adv-x="645" d="M3 0Q3 16 7 25T19 36L78 54L53 28L275 636Q278 644 285 648T301 653T317 655Q323 655 329 655T343 652L585 31L553 56L642 37Q642 24 638 16T623 0H422Q422 16 426 25T438 36L506 54L497 34L283 581L304 583L101 28L98
56L187 37Q187 24 184 16T167 0H3ZM155 216L166 258H429L442 216H155Z" />
<glyph unicode="B" horiz-adv-x="617" d="M67 0Q67 16 71 24T83 36L150 54L135 38V602L151 585L67 604Q67 618 71 626T85 641H338Q426 641 476 604T526 503Q526 462 506 428T451 373T372 348L376 355Q426 353 466 330T529 270T553 188Q553 132 527 90T452 24T339
0H67ZM323 43Q392 43 428 78T465 181Q465 253 427 289T314 326H207L217 335V51L207 63Q230 54 262 49T323 43ZM217 361L204 376Q208 374 226 373T267 371T311 370Q373 370 408 399T443 483Q443 539 408 568T308 598Q284 598 259 594T207 582L217 591V361Z" />
<glyph unicode="C" horiz-adv-x="650" d="M353 -12Q265 -12 198 27T94 136T56 297Q56 374 82 439T154 552T263 628T399 655Q450 655 497 643T583 606L564 466Q548 466 538 471T527 483L518 582L534 557Q509 578 466 590T376 603Q306 603 254 570T174 474T146 327Q146
240 174 175T254 74T372 38Q424 38 469 59T537 114L519 75L531 212Q553 212 563 208T576 196L582 66Q542 30 480 9T353 -12Z" />
<glyph unicode="D" horiz-adv-x="716" d="M67 0Q67 16 71 25T83 36L150 54L135 38V602L149 585L67 604Q67 618 70 626T84 641H371Q444 641 498 617T589 551T643 456T661 345Q661 284 640 223T579 111T482 31T350 0H67ZM345 45Q401 45 443 67T513 128T556 216T571
318Q571 393 545 457T468 559T342 598Q298 598 263 593T204 580L217 595V48L207 62Q236 53 272 49T345 45Z" />
<glyph unicode="E" horiz-adv-x="600" d="M67 0Q67 16 71 25T83 36L150 54L135 38V602L149 585L67 604Q67 618 71 626T86 641H507V515Q491 515 482 519T470 532L445 609L459 600L206 586L217 599V340L207 347H416L403 340L418 410Q428 410 438 407T455 395V254Q448
245 438 243T418 240L402 312L416 303H207L217 312V48L207 59L486 41L473 28L500 148Q514 148 522 144T538 132V0H67Z" />
<glyph unicode="F" horiz-adv-x="552" d="M67 0Q67 16 71 25T83 36L150 54L135 38V602L149 585L67 604Q67 618 71 626T86 641H507V515Q491 515 482 519T470 532L445 609L459 600L206 585L217 598V330L207 337H415L404 330L417 400Q428 400 438 397T456 385V244Q448
235 438 233T417 230L403 302L415 293H207L217 302V39L201 56L298 37Q298 24 295 16T280 0H67Z" />
<glyph unicode="G" horiz-adv-x="680" d="M354 -12Q265 -12 198 26T93 133T56 294Q56 372 81 437T151 552T257 628T390 655Q440 655 489 643T576 606L558 466Q539 468 530 472T520 486L513 576L526 558Q504 578 461 590T370 603Q301 603 251 570T173 474T145 324Q145
236 173 172T252 73T374 38Q460 38 515 93L501 61V259L515 236L417 256Q417 270 421 277T436 292H629Q629 276 626 268T613 256L561 237L580 260V58Q531 24 473 6T354 -12Z" />
<glyph unicode="H" horiz-adv-x="761" d="M67 0Q67 16 71 25T83 36L150 54L135 38V602L151 585L67 604Q67 618 71 626T86 641H287Q287 625 283 616T271 605L200 587L217 604V338L210 347H549L542 338V602L558 585L473 604Q473 618 477 626T492 641H697Q697 625
693 616T681 605L610 587L624 604V39L609 56L697 37Q697 24 694 16T678 0H473Q473 16 477 25T489 36L557 54L542 38V312L549 303H210L217 312V39L199 56L287 37Q287 24 284 16T269 0H67Z" />
<glyph unicode="I" horiz-adv-x="351" d="M67 0Q67 16 71 25T83 36L150 54L135 38V602L151 585L67 604Q67 618 71 626T86 641H287Q287 625 283 616T271 605L200 587L217 604V39L199 56L287 37Q287 24 284 16T269 0H67Z" />
<glyph unicode="J" horiz-adv-x="300" d="M-9 -187Q-34 -187 -49 -176T-64 -143Q-64 -136 -62 -128T-56 -114Q5 -114 40 -96T92 -36T108 76V604L125 585L40 604Q40 618 44 626T59 641H261Q261 626 257 617T245 605L174 587L191 604V201Q191 119 177 49T135 -75T72
-157T-9 -187Z" />
<glyph unicode="K" horiz-adv-x="618" d="M553 -11Q535 -11 510 3T454 44T387 112T311 205T227 321L476 608L490 585L390 604Q390 619 394 627T408 641H601Q601 608 580 604L506 585L540 613L280 314L291 345Q323 304 363 256T448 162T534 78T612 18Q602 5 587
-3T553 -11ZM67 0Q67 16 71 25T83 36L150 54L135 38V602L151 585L67 604Q67 618 71 626T86 641H287Q287 625 283 616T271 605L200 587L217 604V39L199 56L287 37Q287 24 284 16T269 0H67Z" />
<glyph unicode="L" horiz-adv-x="566" d="M67 0Q67 16 71 25T83 36L150 54L135 38V602L151 585L67 604Q67 618 71 626T86 641H291Q291 625 287 616T275 605L204 587L217 604V48L207 59L479 41L466 28L487 148Q501 148 511 144T528 132V0H67Z" />
<glyph unicode="M" horiz-adv-x="905" d="M441 -3Q438 -3 433 -2T425 0L199 608H223L171 31L163 54L248 38Q248 24 245 16T230 0H51Q51 16 55 25T67 36L135 52L123 27L178 618L184 587L105 604Q105 618 108 626T123 641H275L478 93H443L643 641H810Q810 625 806
616T794 605L719 587L740 620L787 28L775 55L858 38Q858 24 855 16T840 0H630Q630 16 634 25T646 36L719 55L707 24L659 613H682L466 17Q462 6 455 2T441 -3Z" />
<glyph unicode="N" horiz-adv-x="753" d="M602 -2Q592 -2 584 -1T571 2L176 554L187 560V30L180 54L267 37Q267 24 264 16T249 0H67Q67 16 71 25T83 36L152 52L141 25V606L153 587L67 604Q67 618 71 626T85 641H211L616 77L588 70V610L594 587L507 604Q507 618
511 626T526 641H708Q708 625 704 616T692 605L623 589L634 612V20Q634 14 629 9T616 1T602 -2Z" />
<glyph unicode="O" horiz-adv-x="731" d="M346 -12Q260 -12 195 28T93 139T56 297Q56 374 81 439T152 552T258 628T386 655Q472 655 537 615T639 505T676 347Q676 273 652 208T582 94T477 16T346 -12ZM375 39Q437 39 484 74T557 170T584 309Q584 446 524 524T356
603Q299 603 251 570T175 477T146 334Q146 197 207 118T375 39Z" />
<glyph unicode="P" horiz-adv-x="584" d="M67 0Q67 16 71 25T83 36L152 54L136 38V602L150 585L69 604Q69 618 72 626T86 641H342Q409 641 454 618T523 554T546 466Q546 412 517 365T435 287T306 257Q281 257 253 260T202 271H219V33L200 56L297 37Q297 22 294
14T279 0H67ZM219 301L204 318Q218 311 247 308T305 304Q356 304 389 324T438 379T455 453Q455 522 417 559T309 597Q279 597 252 593T205 584L219 598V301Z" />
<glyph unicode="Q" horiz-adv-x="731" d="M588 -179Q558 -179 516 -159T426 -99T328 0L348 27Q395 -9 453 -39T570 -87T676 -106Q663 -141 640 -160T588 -179ZM346 -12Q260 -12 195 28T93 139T56 297Q56 374 81 439T152 552T258 628T386 655Q472 655 537 615T639
505T676 347Q676 273 652 208T582 94T477 16T346 -12ZM375 39Q437 39 484 74T557 170T584 309Q584 446 524 524T356 603Q299 603 251 570T175 477T146 334Q146 197 207 118T375 39Z" />
<glyph unicode="R" horiz-adv-x="652" d="M67 0Q67 16 71 25T83 36L152 54L136 38V602L150 585L69 604Q69 618 72 626T86 641H342Q407 641 450 619T516 559T539 476Q539 425 511 380T431 307T306 279Q281 279 253 282T202 293H219V33L197 56L294 37Q294 22 291
14T276 0H67ZM219 322L204 339Q218 333 247 330T305 326Q354 326 385 345T433 395T449 463Q449 528 412 562T309 597Q279 597 252 593T205 584L219 598V322ZM574 -11Q552 -11 522 10T459 71T391 169T324 300L385 321Q428 247 473 185T560 79T633 19Q622 7 607 -2T574
-11Z" />
<glyph unicode="S" horiz-adv-x="543" d="M272 -12Q242 -12 204 -6T129 11T60 38L78 173Q86 187 104 187Q109 187 114 187T123 184L130 45L112 84Q132 69 160 58T217 39T274 32Q332 32 368 66T405 153Q405 183 393 205T348 248T255 295Q192 324 155 351T102 412T86
488Q86 564 137 609T274 655Q315 655 362 644T454 611L439 481Q423 481 414 486T403 498L390 598L411 561Q389 584 352 598T273 612Q218 612 186 584T154 509Q154 480 167 458T213 414T306 367Q372 338 410 310T465 250T482 173Q482 118 456 76T383 11T272 -12Z"
/>
<glyph unicode="T" horiz-adv-x="623" d="M186 0Q186 16 190 25T202 36L286 58L271 38V599L282 586L87 600L101 609L75 522Q73 513 65 509T40 504V641H584V504Q568 504 559 508T547 522L523 609L537 600L342 586L353 599V39L337 57L451 37Q451 24 448 16T433 0H186Z" />
<glyph unicode="U" horiz-adv-x="705" d="M368 -12Q275 -12 218 16T135 94T108 211V602L125 585L40 604Q40 618 44 626T59 641H261Q261 625 257 616T245 605L174 587L190 604V220Q190 155 214 114T278 53T368 33Q426 33 468 51T533 112T556 222V608L563 587L483
604Q483 618 487 626T501 641H667Q667 625 663 616T651 605L592 589L602 613V214Q602 150 577 99T501 18T368 -12Z" />
<glyph unicode="V" horiz-adv-x="635" d="M320 -12Q313 -12 301 -10T281 -6L61 607L87 585L3 604Q3 618 7 626T22 641H222Q222 625 218 616T206 605L134 587L147 608L349 42H330L523 609L526 587L445 604Q445 618 449 626T463 641H632Q632 625 628 616T616 605L555
589L573 613L369 15Q365 5 357 -1T339 -9T320 -12Z" />
<glyph unicode="W" horiz-adv-x="941" d="M305 -12Q298 -12 286 -10T266 -6L61 609L87 586L3 604Q3 618 7 626T22 642H222Q222 626 218 617T206 606L135 587L145 614L331 56H318L470 561H509L674 56H662L831 609L832 587L751 604Q751 618 754 626T769 641H938Q938
625 934 616T922 605L862 589L880 613L698 15Q695 5 687 -1T669 -9T650 -12Q643 -12 631 -10T611 -6L460 456H485L353 15Q350 5 342 -1T324 -9T305 -12Z" />
<glyph unicode="X" horiz-adv-x="651" d="M396 0Q396 16 400 25T412 36L486 55L469 28L97 605L127 585L39 604Q39 618 43 626T58 641H267Q267 625 263 616T251 605L176 587L192 610L563 33L535 56L622 38Q622 24 619 16T604 0H396ZM29 0Q29 16 33 25T45 36L114
53L84 29L295 338L335 314L144 34L139 54L224 38Q224 24 221 16T206 0H29ZM357 320L317 343L498 610L501 587L418 604Q418 618 421 626T435 641H612Q612 625 608 616T596 605L528 589L558 615L357 320Z" />
<glyph unicode="Y" horiz-adv-x="605" d="M317 176L57 605L86 585L3 604Q3 618 7 626T22 641H228Q228 625 224 616T212 605L136 587L149 610L347 283L317 280L485 606L493 587L411 604Q411 618 414 626T429 641H602Q602 625 598 616T586 605L521 589L539 611L317
176ZM197 0Q197 16 201 25T213 36L287 54L271 31V275H353V36L336 56L430 37Q430 24 427 16T413 0H197Z" />
<glyph unicode="Z" horiz-adv-x="616" d="M81 0Q55 0 55 25Q55 36 62 46L434 613L440 586L113 600L134 609L109 513Q106 504 98 500T73 496V641H497Q509 641 515 634T522 616Q522 607 515 595L147 34L141 59L497 41L475 28L503 156Q517 156 525 153T539 141V0H81Z" />
<glyph unicode="[" horiz-adv-x="287" d="M67 -258V778H273Q276 772 276 761Q276 753 275 747T271 736H115L150 764V-244L115 -216H269Q273 -221 274 -228T276 -241Q276 -252 275 -258H67Z" />
<glyph unicode="\" horiz-adv-x="420" d="M331 -200Q349 -200 361 -196T381 -181L87 734Q72 734 60 730T36 715L331 -200Z" />
<glyph unicode="]" horiz-adv-x="287" d="M220 -258V778H14Q11 772 11 761Q11 753 12 747T16 736H172L137 764V-244L172 -216H18Q14 -221 13 -228T11 -241Q11 -252 12 -258H220Z" />
<glyph unicode="^" horiz-adv-x="591" d="M122 303Q109 303 101 306T83 319L253 697Q259 702 268 704T286 707Q295 707 304 705T319 697L489 319Q481 310 473 307T450 303L272 675H300L122 303Z" />
<glyph unicode="_" horiz-adv-x="691" d="M108 -171Q105 -166 104 -158T102 -143Q102 -131 104 -125H584Q587 -129 588 -136T589 -151Q589 -166 588 -171H108Z" />
<glyph unicode="`" horiz-adv-x="206" d="M184 515Q117 557 80 580T25 616T4 633T0 643Q0 654 6 664T21 682T40 689Q46 689 52 686T74 669T120 624T206 539Q206 528 199 522T184 515Z" />
<glyph unicode="a" horiz-adv-x="486" d="M151 -12Q104 -12 73 15T42 89Q42 146 78 182T188 235L319 265L306 254V329Q306 382 288 406T232 431Q186 431 161 404T136 324Q131 319 122 316T104 313Q87 313 77 323T67 350Q67 383 90 408T153 447T244 462Q318 462
352 425T387 307V72Q387 55 394 46T414 37Q425 37 438 43T461 56L468 29Q452 10 427 -1T379 -12Q347 -12 329 8T311 67H307Q279 29 238 9T151 -12ZM189 35Q225 35 258 53T313 103L307 86V236L320 234L206 207Q163 197 141 173T118 111Q118 76 137 56T189 35Z" />
<glyph unicode="b" horiz-adv-x="536" d="M240 -12Q202 -12 161 -3T84 26V692L95 677L37 688Q21 691 21 723Q61 729 80 731T112 734Q137 734 148 723T160 688V357L156 363H165Q197 410 242 436T336 462Q386 462 422 436T479 363T500 250Q500 171 470 112T381 21T240
-12ZM261 27Q340 27 376 76T412 231Q412 323 385 366T300 409Q269 409 244 398T196 365T153 313L163 336V44L153 62Q182 43 207 35T261 27Z" />
<glyph unicode="c" horiz-adv-x="464" d="M240 -12Q178 -12 132 15T60 91T35 207Q35 282 64 339T146 429T264 462Q309 462 346 448T404 408T426 353Q426 333 415 322T383 310Q374 310 366 312T350 319Q350 372 326 400T254 428Q190 428 156 378T122 233Q122 135
159 85T271 34Q311 34 348 50T417 98L430 74Q409 48 379 29T313 -1T240 -12Z" />
<glyph unicode="d" horiz-adv-x="562" d="M212 -12Q159 -12 119 14T57 89T35 201Q35 277 64 335T145 428T263 462Q294 462 324 456T385 435L378 420V693L390 678L327 688Q313 689 313 723Q351 729 371 731T403 734Q432 734 445 721T458 676V72Q458 55 465 46T486
37Q497 37 510 42T533 55L540 28Q523 10 498 -1T450 -12Q418 -12 401 9T383 70H379Q353 35 311 12T212 -12ZM253 39Q282 39 306 48T350 74T389 114L379 94V404L389 380Q364 401 337 412T270 424Q200 424 161 372T122 221Q122 132 155 86T253 39Z" />
<glyph unicode="e" horiz-adv-x="468" d="M237 -12Q176 -12 131 15T60 92T35 205Q35 278 65 336T147 428T258 462Q310 462 348 439T409 373T431 276Q431 257 424 251T408 244H93V275L365 282L354 271Q356 319 343 354T305 408T247 428Q192 428 157 377T122 233Q122
173 139 129T191 59T273 34Q313 34 350 54T416 112L429 87Q408 57 377 35T311 0T237 -12Z" />
<glyph unicode="f" horiz-adv-x="339" d="M64 0Q64 30 80 36L137 55L126 41V424Q126 495 144 552T195 650T267 712T353 734Q382 734 396 723T411 694Q411 688 409 681T404 667H343Q298 667 268 648T222 585T207 465V39L194 57L275 37Q275 22 272 15T257 0H64ZM331
396L50 401Q50 415 53 426T64 443L350 454Q353 449 354 445T355 435Q355 419 349 409T331 396Z" />
<glyph unicode="g" horiz-adv-x="484" d="M232 -270Q143 -270 89 -232T35 -130Q35 -87 76 -87Q87 -87 97 -89T116 -98Q116 -166 149 -201T247 -237Q312 -237 351 -206T391 -125Q391 -93 378 -74T332 -46T239 -31Q160 -24 131 -9T102 40Q102 69 121 97T173 141L188
134Q175 123 168 108T161 77Q161 61 168 52T199 39T270 30Q370 22 415 -9T461 -102Q461 -152 433 -190T353 -249T232 -270ZM218 122Q142 122 96 166T49 284Q49 337 73 377T141 439T242 462Q295 462 334 441T396 383T419 296Q419 245 394 206T323 145T218 122ZM236
156Q283 156 312 191T341 283Q341 353 313 390T228 428Q183 428 156 393T128 300Q128 227 154 192T236 156ZM429 405Q415 405 396 406T360 409T333 416L326 429L471 466Q476 460 478 452T481 438Q481 405 429 405Z" />
<glyph unicode="h" horiz-adv-x="589" d="M42 0Q42 32 58 36L115 55L104 38V692L116 677L57 688Q42 691 42 723Q80 729 99 731T131 734Q157 734 168 721T180 679V356L175 362H185Q224 408 276 435T377 462Q493 462 493 301V43L482 56L555 37Q555 22 552 15T539
0H357Q357 32 373 36L423 51L413 34V299Q413 405 332 405Q304 405 276 394T223 365T182 326L185 336V39L173 53L240 37Q240 22 237 15T222 0H42Z" />
<glyph unicode="i" horiz-adv-x="305" d="M50 0Q50 32 66 36L126 55L115 41V413L127 398L65 409Q50 411 50 444Q84 449 106 451T151 454Q197 454 197 397V43L185 56L265 37Q265 22 262 15T247 0H50ZM152 553Q128 553 115 566T102 602Q102 624 117 638T152 652Q176
652 189 639T203 602Q203 581 188 567T152 553Z" />
<glyph unicode="j" horiz-adv-x="282" d="M7 -270Q-17 -270 -29 -259T-42 -230Q-42 -224 -40 -216T-34 -202Q24 -202 56 -185T102 -127T115 -13V413L127 398L65 409Q50 411 50 444Q88 449 110 451T151 454Q197 454 197 397V96Q197 19 183 -47T143 -164T83 -242T7
-270ZM141 553Q117 553 104 566T91 602Q91 624 106 638T141 652Q165 652 178 639T192 602Q192 581 177 567T141 553Z" />
<glyph unicode="k" horiz-adv-x="527" d="M42 0Q42 17 46 25T58 36L118 55L107 41V692L119 677L57 688Q42 691 42 723Q75 728 98 731T142 734Q188 734 188 676V39L175 53L244 37Q244 22 241 15T226 0H42ZM458 -12Q431 -12 394 11T307 92T194 249L364 399L359 388L302
405Q302 427 315 443H489Q489 423 486 416T473 405L393 378L447 410L258 242L267 268Q302 216 344 170T430 88T514 33Q514 13 498 1T458 -12Z" />
<glyph unicode="l" horiz-adv-x="295" d="M42 0Q42 17 46 25T58 36L118 55L107 41V692L119 677L57 688Q42 691 42 723Q75 728 98 731T142 734Q188 734 188 676V43L176 56L257 37Q257 22 254 15T239 0H42Z" />
<glyph unicode="m" horiz-adv-x="879" d="M50 0Q50 32 66 36L123 55L112 41V409L124 394L65 405Q50 408 50 440Q88 446 107 448T140 451Q166 451 177 438T188 396V359L184 362H193Q231 408 281 435T378 462Q434 462 461 422T488 301V39L476 53L544 37Q544 22 541
15T527 0H352Q352 32 368 36L418 51L407 37V299Q407 405 332 405Q304 405 276 394T225 363T185 320L193 339V39L181 53L249 37Q249 22 246 15T231 0H50ZM647 0Q647 32 663 36L713 51L702 37V299Q702 405 627 405Q586 405 547 381T482 321L471 362H486Q525 408 575
435T672 462Q729 462 756 422T783 301V43L771 56L845 37Q845 22 842 15T828 0H647Z" />
<glyph unicode="n" horiz-adv-x="597" d="M50 0Q50 32 66 36L123 55L112 38V409L124 394L65 405Q50 408 50 440Q88 446 107 448T140 451Q166 451 177 438T188 396V359L182 362H193Q233 408 284 435T385 462Q501 462 501 301V43L489 56L563 37Q563 22 560 15T547
0H366Q366 32 382 36L431 51L421 34V299Q421 405 341 405Q311 405 282 394T227 363T185 320L193 339V39L181 53L249 37Q249 22 246 15T231 0H50Z" />
<glyph unicode="o" horiz-adv-x="517" d="M236 -12Q143 -12 89 46T35 201Q35 276 66 335T153 428T279 462Q341 462 386 436T456 361T481 248Q481 172 450 114T364 22T236 -12ZM255 22Q322 22 358 76T395 227Q395 324 361 376T262 428Q195 428 158 375T121 222Q121
125 155 74T255 22Z" />
<glyph unicode="p" horiz-adv-x="555" d="M42 -257Q42 -227 58 -221L115 -203L104 -220V409L116 394L57 405Q42 408 42 440Q80 446 99 448T131 451Q157 451 168 440T180 405V360L177 363H185Q217 410 263 436T357 462Q407 462 443 436T499 363T519 250Q519 171
491 112T410 21T287 -12Q258 -12 228 -6T171 11L185 19V-215L173 -202L254 -220Q254 -234 250 -242T235 -257H42ZM281 27Q360 27 396 76T433 231Q433 323 406 366T320 409Q290 409 265 398T217 365T174 313L184 336V44L174 62Q209 43 231 35T281 27Z" />
<glyph unicode="q" horiz-adv-x="564" d="M312 -257Q312 -227 328 -221L400 -195L381 -225V67H377Q349 30 306 9T212 -12Q159 -12 119 14T57 89T35 201Q35 277 67 335T156 428T286 462Q325 462 368 449T459 404V-223L433 -199L521 -220Q521 -234 518 -242T503
-257H312ZM253 37Q283 37 306 46T350 73T389 114L379 93V401L389 381Q365 402 338 413T270 424Q199 424 160 371T121 221Q121 132 155 85T253 37ZM397 394L420 447Q423 455 431 459T459 463V404L397 394Z" />
<glyph unicode="r" horiz-adv-x="402" d="M50 0Q50 30 66 36L123 55L112 38V409L124 394L65 405Q58 407 54 415T50 440Q89 446 108 448T140 451Q164 451 176 438T188 393V351L182 357H192Q219 404 258 433T334 462Q372 462 388 446T404 404Q404 385 393 371T363
357Q349 383 334 392T301 401Q273 401 242 376T186 316L193 335V39L179 57L266 38Q266 23 263 15T248 0H50Z" />
<glyph unicode="s" horiz-adv-x="416" d="M201 -12Q128 -12 82 19T35 95Q35 118 47 129T77 140Q100 140 113 125Q113 72 137 45T209 18Q253 18 278 40T303 102Q303 133 287 152T245 183T189 206Q157 218 126 234T75 275T55 339Q55 394 99 428T217 462Q259 462
293 451T347 421T367 376Q367 357 355 347T325 336Q309 336 295 347Q295 388 272 410T209 432Q172 432 150 414T128 365Q128 339 142 323T181 295T232 273Q267 260 301 243T359 200T382 129Q382 86 359 55T295 6T201 -12Z" />
<glyph unicode="t" horiz-adv-x="335" d="M191 -12Q143 -12 120 18T96 109V537Q105 545 118 551T147 563T177 569V121Q177 82 188 65T229 47Q252 47 278 57T330 89L344 64Q334 50 311 32T256 1T191 -12ZM303 396L28 401Q28 415 31 426T42 443L322 454Q324 449
325 445T326 435Q326 419 320 409T303 396Z" />
<glyph unicode="u" horiz-adv-x="573" d="M219 -12Q162 -12 131 25T100 144V404L115 389L53 400Q46 401 42 409T38 435Q76 440 95 442T127 445Q154 445 167 432T181 391V146Q181 92 202 67T266 41Q293 41 316 50T358 74T390 109L383 92V404L398 389L335 400Q328
401 325 409T321 435Q359 440 378 442T409 445Q437 445 450 432T463 391V72Q463 55 470 46T491 37Q502 37 514 42T537 56L545 29Q528 10 503 -1T455 -12Q424 -12 406 8T388 67H383Q315 -12 219 -12Z" />
<glyph unicode="v" horiz-adv-x="497" d="M251 -9Q244 -9 235 -7T221 -4L60 401L78 388L3 406Q3 421 7 428T21 443H203Q203 410 187 406L127 389L140 406L280 57H257L390 401L395 388L325 406Q325 424 328 431T342 443H494Q494 426 490 418T478 407L421 389L439
407L287 13Q279 -9 251 -9Z" />
<glyph unicode="w" horiz-adv-x="707" d="M225 -9Q217 -9 209 -7T194 -4L60 401L78 388L3 406Q3 421 7 428T21 443H203Q203 410 187 406L127 389L139 406L254 57H231L349 391H386L514 57H494L599 401L606 388L535 406Q535 424 539 431T553 443H704Q704 426 700
418T688 407L631 389L649 407L525 13Q517 -9 489 -9Q482 -9 473 -7T459 -4L339 307H364L260 13Q252 -9 225 -9Z" />
<glyph unicode="x" horiz-adv-x="499" d="M279 0Q279 32 295 36L362 55L343 28L75 404L106 385L22 406Q22 421 26 428T41 443H229Q229 411 213 407L147 388L164 414L432 40L403 58L486 37Q486 22 483 15T468 0H279ZM14 0Q14 32 30 36L105 60L63 32L216 235L245
200L115 24L114 56L186 37Q186 19 183 12T168 0H14ZM280 214L251 251L376 420L374 388L300 406Q300 424 303 431T317 443H472Q472 412 456 407L386 384L427 411L280 214Z" />
<glyph unicode="y" horiz-adv-x="501" d="M62 -270Q34 -270 19 -259T3 -230Q3 -224 5 -216T11 -201H32Q77 -201 107 -191T159 -156T200 -91T243 13L239 -34L64 401L82 388L7 406Q7 421 11 428T25 443H207Q207 411 191 406L131 389L145 406L284 57H261L393 401L399
388L329 406Q329 424 332 431T347 443H498Q498 426 494 418T482 407L425 389L443 407L283 -9Q237 -128 179 -199T62 -270Z" />
<glyph unicode="z" horiz-adv-x="438" d="M58 0Q45 0 38 7T31 24Q31 31 34 38T41 52L302 412L335 391L89 402L107 423L93 313Q92 307 86 305T71 301T56 300L44 443H354Q373 443 381 436T390 418Q390 411 387 404T379 389L120 30L81 53L368 41L342 16L355 153Q366
153 376 151T395 142L403 0H58Z" />
<glyph unicode="{" horiz-adv-x="370" d="M356 -270Q320 -270 288 -264T228 -244T180 -208T149 -152T138 -74Q138 -48 139 -22T142 29T143 73Q143 122 133 157T96 212T20 231Q16 236 14 244T12 259Q12 264 12 268T14 277Q64 277 92 297T131 353T143 436Q143 461
142 488T140 542T138 590Q138 632 149 663T182 716T230 751T290 771T357 778Q358 776 358 773T358 767Q358 760 357 753T353 741Q280 736 250 701T219 591Q219 564 222 529T225 445Q225 361 191 314T93 258Q93 256 95 252Q157 244 191 197T225 63Q225 14 222 -21T219
-83Q219 -132 231 -163T272 -211T353 -234Q356 -238 357 -245T359 -259Q359 -265 356 -270Z" />
<glyph unicode="|" horiz-adv-x="225" d="M143 -200Q121 -200 104 -196T82 -186V734Q104 734 120 730T143 720V-200Z" />
<glyph unicode="}" horiz-adv-x="370" d="M14 -270Q50 -270 82 -264T142 -244T190 -208T221 -152T232 -74Q232 -48 231 -22T228 29T227 73Q227 122 237 157T274 212T350 231Q354 236 356 244T358 259Q358 264 358 268T356 277Q306 277 278 297T239 353T227 436Q227
461 228 488T230 542T232 590Q232 632 221 663T188 716T140 751T80 771T13 778Q12 776 12 773T12 767Q12 760 13 753T17 741Q90 736 120 701T151 591Q151 564 148 529T145 445Q145 361 179 314T277 258Q277 256 275 252Q213 244 179 197T145 63Q145 14 148 -21T151
-83Q151 -132 139 -163T98 -211T17 -234Q14 -238 13 -245T11 -259Q11 -265 14 -270Z" />
<glyph unicode="~" horiz-adv-x="572" d="M98 228Q94 234 91 243T87 260Q87 275 98 294T132 327T191 342Q224 342 261 331T334 307T398 295Q424 295 443 309T474 350Q485 335 485 318Q485 304 473 284T438 250T378 235Q347 235 310 247T238 271T174 283Q148 283
130 269T98 228Z" />
<glyph unicode="&#xa0;" horiz-adv-x="225" />
<glyph unicode="&#xa1;" horiz-adv-x="230" d="M115 294Q127 294 138 291Q142 222 145 155T152 31T157 -67T159 -126Q159 -155 150 -169T115 -183Q91 -183 82 -169T72 -126Q72 -108 74 -67T79 31T85 155T92 291Q102 294 115 294ZM114 484Q137 484 150 471T163
435Q163 414 148 401T114 387Q90 387 77 400T64 435Q64 456 79 470T114 484Z" />
<glyph unicode="&#xa2;" horiz-adv-x="464" d="M260 -99Q250 -99 239 -97T220 -91V740Q230 740 241 738T260 732V-99ZM240 83Q178 83 132 110T60 186T35 302Q35 377 64 434T146 524T264 557Q309 557 346 543T404 503T426 448Q426 428 415 417T383 405Q374 405
366 407T350 414Q350 467 326 495T254 523Q190 523 156 473T122 328Q122 230 159 180T271 129Q311 129 348 145T417 193L430 169Q409 143 379 124T313 94T240 83Z" />
<glyph unicode="&#xa3;" horiz-adv-x="539" d="M120 0Q104 5 97 12T89 45Q147 95 170 131T193 197Q193 230 180 259T150 317T119 381T106 461Q106 511 130 553T199 620T310 645Q362 645 401 630T462 592T484 540Q484 520 474 511T446 501Q436 501 428 504T414
511Q414 552 384 577T307 602Q249 602 213 571T177 480Q177 444 189 412T218 350T246 287T259 217Q259 187 249 160T213 104T143 42L142 58L448 38L424 12L446 152Q462 152 472 148T485 135V0H120ZM51 308Q51 317 53 328T59 347H380Q380 338 379 327T373 308H51Z"
/>
<glyph unicode="&#xa4;" horiz-adv-x="650" d="M323 75Q233 75 179 127T124 271Q124 332 151 384T225 468T335 501Q425 501 479 449T533 306Q533 245 507 193T434 108T323 75ZM222 127L98 -11Q91 -10 83 -5T68 7T59 21L188 165L222 127ZM433 127L467 164L595 20Q593
14 586 7T571 -5T555 -11L433 127ZM190 404L59 552Q61 558 68 565T83 577T98 583L223 441L190 404ZM471 410L438 448L556 583Q564 583 572 578T588 565T596 552L471 410ZM327 126Q376 126 405 147T448 204T462 283Q462 331 447 368T402 427T330 449Q282 449 253
428T209 371T195 294Q195 248 210 210T254 149T327 126Z" />
<glyph unicode="&#xa5;" horiz-adv-x="605" d="M166 246Q166 255 168 266T174 285H458Q458 276 457 265T450 246H166ZM166 126Q166 135 168 146T174 165H458Q458 156 457 145T450 126H166ZM317 176L57 605L86 585L3 604Q3 618 7 626T22 641H228Q228 625 224 616T212
605L136 587L149 610L347 283L317 280L485 606L493 587L411 604Q411 618 414 626T429 641H602Q602 625 598 616T586 605L521 589L539 611L317 176ZM197 0Q197 16 201 25T213 36L287 54L271 31V275H353V36L336 56L430 37Q430 24 427 16T413 0H197Z" />
<glyph unicode="&#xa6;" horiz-adv-x="225" d="M82 361V734Q104 734 120 730T143 720V361H82ZM143 -200Q121 -200 104 -196T82 -186V173H143V-200Z" />
<glyph unicode="&#xa7;" horiz-adv-x="478" d="M234 -12Q160 -12 114 19T67 95Q67 118 78 129T108 140Q132 140 145 125Q145 18 240 18Q284 18 310 41T336 104Q336 136 321 155T280 187T221 211Q181 226 151 243T104 283T87 341Q87 385 116 415T197 456L223 423Q194
419 177 401T160 355Q160 330 173 314T209 287T264 263Q309 247 342 229T395 186T414 122Q414 82 391 52T328 5T234 -12ZM321 200L295 232Q336 256 336 303Q336 334 321 353T281 384T221 409Q181 425 151 442T104 483T87 540Q87 590 131 622T248 655Q291 655 325
644T379 614T399 569Q399 550 387 540T358 529Q341 529 328 540Q328 581 305 603T242 625Q204 625 182 606T160 555Q160 530 173 513T209 484T264 461Q308 446 342 428T395 384T414 318Q414 277 390 246T321 200Z" />
<glyph unicode="&#xa8;" horiz-adv-x="275" d="M226 554Q201 554 190 567T178 602Q178 616 185 626T203 643T226 650Q251 650 263 637T275 602Q275 589 268 578T250 561T226 554ZM48 554Q24 554 12 567T0 602Q0 616 7 626T25 643T48 650Q72 650 84 637T97 602Q97
589 90 578T72 561T48 554Z" />
<glyph unicode="&#xa9;" horiz-adv-x="701" d="M351 140Q267 140 200 178T95 283T56 435Q56 520 94 586T200 691T351 730Q436 730 502 692T607 587T646 435Q646 350 608 284T503 179T351 140ZM351 164Q429 164 490 199T587 295T622 435Q622 513 587 574T491 671T351
706Q273 706 212 671T115 575T80 435Q80 357 115 296T211 199T351 164ZM361 239Q301 239 257 262T187 328T162 425Q162 487 191 536T269 614T380 643Q415 643 447 635T505 613L493 519Q481 519 472 522T463 531L454 592L464 575Q424 608 368 608Q302 608 264 562T225
435Q225 387 243 351T293 294T367 273Q394 273 419 283T464 316L453 293L463 378Q477 378 485 376T499 370L506 290Q476 264 440 252T361 239Z" />
<glyph unicode="&#xaa;" horiz-adv-x="372" d="M109 391Q73 391 51 411T28 466Q28 509 57 535T138 573L235 595L227 585V635Q227 672 215 690T175 708Q144 708 128 689T110 632Q106 628 98 626T81 623Q65 623 56 631T47 654Q47 677 65 696T115 726T187 737Q247
737 274 708T302 624V462Q302 449 307 442T321 435Q329 435 338 438T355 447L362 424Q348 411 328 401T287 391Q259 391 245 407T230 452H226Q207 428 177 410T109 391ZM145 437Q171 437 194 450T236 485L227 468V570L237 568L161 551Q128 543 113 526T97 486Q97
462 110 450T145 437ZM313 267H53Q52 270 51 275T50 288Q50 316 62 326H322Q323 323 324 317T325 304Q325 279 313 267Z" />
<glyph unicode="&#xab;" horiz-adv-x="444" d="M197 83L59 228Q45 242 39 250T33 267Q33 277 39 285T59 307L197 452Q207 449 213 443T221 425L86 249V285L221 110Q220 99 214 93T197 83ZM368 83L230 228Q216 242 210 250T204 267Q204 277 210 285T230 307L368
452Q378 449 384 443T392 425L257 249V285L392 110Q391 99 385 93T368 83Z" />
<glyph unicode="&#xac;" horiz-adv-x="572" d="M468 124Q458 124 450 126T434 134V287L465 265H86Q76 277 76 295Q76 299 77 304T79 314H486V127Q481 126 477 125T468 124Z" />
<glyph unicode="&#xad;" horiz-adv-x="360" d="M65 229Q62 234 60 240T58 255Q58 288 102 288Q138 288 167 287T230 286Q248 286 264 287T296 293Q299 287 300 281T302 267Q302 234 259 234Q222 234 194 235T131 236Q112 236 96 235T65 229Z" />
<glyph unicode="&#xae;" horiz-adv-x="619" d="M311 242Q241 242 186 274T99 361T67 486Q67 556 99 611T186 698T311 730Q381 730 436 698T523 611T555 486Q555 416 523 361T436 274T311 242ZM311 262Q376 262 426 291T506 371T535 486Q535 551 506 601T427 681T311
710Q247 710 196 681T116 602T87 486Q87 422 116 371T196 291T311 262ZM173 331Q173 338 175 344T181 351L220 365L214 356V621L220 614L173 626Q173 644 183 650H322Q372 651 402 628T432 569Q432 526 398 498T309 469Q295 469 281 471T257 476L264 478V357L257
366L307 355Q307 344 305 339T296 331H173ZM264 493L258 501Q264 498 278 497T302 495Q337 495 355 513T374 562Q374 591 356 606T308 622Q298 622 285 621T258 615L264 622V493ZM444 324Q428 324 413 332T383 357T350 405T312 481L357 494Q384 441 417 400T481
337Q474 332 464 328T444 324Z" />
<glyph unicode="&#xaf;" horiz-adv-x="275" d="M263 573H3Q2 576 1 581T0 594Q0 622 12 632H272Q273 629 274 623T275 610Q275 585 263 573Z" />
<glyph unicode="&#xb0;" horiz-adv-x="447" d="M208 405Q141 405 102 443T63 549Q63 600 85 639T147 701T237 723Q302 723 342 684T383 577Q383 527 361 488T299 427T208 405ZM213 457Q263 457 294 490T326 573Q326 617 300 644T232 671Q184 671 153 638T122 553Q122
510 146 484T213 457Z" />
<glyph unicode="&#xb1;" horiz-adv-x="600" d="M293 282Q285 282 276 284T261 293V566Q264 568 269 568T279 569Q288 569 297 567T311 557V285Q307 284 303 283T293 282ZM86 404Q76 416 76 434Q76 438 77 443T79 453H481Q492 442 492 423Q492 419 492 414T489
404H86ZM86 176Q76 188 76 206Q76 210 77 215T79 225H481Q492 214 492 195Q492 191 492 186T489 176H86Z" />
<glyph unicode="&#xb2;" horiz-adv-x="369" d="M55 351Q45 357 42 365T39 386Q139 462 186 522T233 638Q233 670 216 686T167 703Q147 703 128 696T91 673L100 693L92 634Q91 622 60 622L48 709Q115 743 178 743Q240 743 276 716T313 641Q313 586 257 519T91 377L81
401L295 387L270 380L289 453Q301 453 309 450T321 442V351H55Z" />
<glyph unicode="&#xb3;" horiz-adv-x="370" d="M176 343Q130 343 101 354T57 382T43 416Q43 431 49 441T66 456T91 462Q91 424 112 404T170 383Q205 383 225 400T245 448Q245 479 223 499T154 533Q147 536 145 542T143 563Q191 576 214 596T237 645Q237 671 219
686T172 702Q150 702 128 693T84 664L109 701L100 639Q99 633 91 630T67 626L56 708Q90 726 122 734T185 743Q244 743 279 718T315 650Q315 614 287 589T203 548L204 555Q263 544 294 516T326 447Q326 400 285 372T176 343Z" />
<glyph unicode="&#xb4;" horiz-adv-x="206" d="M22 515Q14 515 7 521T0 539Q55 593 86 624T132 668T153 685T166 689Q176 689 185 682T200 665T206 643Q206 638 202 633T181 616T127 581T22 515Z" />
<glyph unicode="&#xb5;" horiz-adv-x="583" d="M38 -258Q38 -247 40 -235T54 -220L119 -205L110 -224V404L125 389L63 400Q56 401 52 409T48 435Q86 440 105 442T137 445Q164 445 177 432T191 391V146Q191 92 212 67T276 41Q303 41 326 50T368 74T400 109L393
92V404L408 389L345 400Q338 401 335 409T331 435Q369 440 388 442T419 445Q447 445 460 432T473 391V72Q473 55 480 46T501 37Q512 37 524 42T547 56L555 29Q538 10 513 -1T465 -12Q434 -12 416 8T398 67H393Q368 30 331 9T249 -12Q217 -12 195 3T162 46H176V-211Q177
-224 171 -233T155 -248T133 -255T110 -258H38Z" />
<glyph unicode="&#xb6;" horiz-adv-x="482" d="M181 -68Q156 -68 143 -57T130 -29Q130 -22 132 -14T139 0Q197 0 229 17T274 75T288 189V575Q304 575 326 576T370 578T411 580T436 583Q444 570 444 557Q444 528 410 517T318 517L367 556L368 298Q368 221 354 155T315
38T255 -40T181 -68ZM256 248Q161 248 109 292T56 415Q56 464 75 501T128 560T206 581Q212 581 216 581T229 580T256 577V248Z" />
<glyph unicode="&#xb7;" horiz-adv-x="225" d="M112 214Q87 214 74 229T60 266Q60 288 76 303T112 318Q138 318 151 304T165 266Q165 244 149 229T112 214Z" />
<glyph unicode="&#xb8;" horiz-adv-x="303" d="M146 -259Q98 -259 67 -235T36 -174Q36 -162 42 -156T60 -149Q76 -149 89 -159Q89 -200 103 -219T152 -239Q181 -239 199 -220T217 -169Q217 -129 193 -113T135 -97Q126 -97 120 -97T109 -100L136 0H159L136 -84L125
-76Q134 -74 143 -73T161 -72Q188 -72 212 -81T252 -111T268 -163Q268 -185 255 -207T214 -244T146 -259Z" />
<glyph unicode="&#xb9;" horiz-adv-x="281" d="M53 351Q53 378 63 380L127 398L116 379V706L129 675L41 660Q38 665 37 670T35 683Q35 689 35 694T39 704L157 743H191V381L177 400L249 382Q249 372 247 365T238 351H53Z" />
<glyph unicode="&#xba;" horiz-adv-x="401" d="M183 391Q111 391 69 433T27 547Q27 602 51 645T117 712T214 737Q286 737 330 694T375 579Q375 524 351 482T283 415T183 391ZM200 422Q245 422 269 459T294 563Q294 631 270 669T201 707Q157 707 133 670T108 564Q108
497 132 460T200 422ZM326 267H66Q65 270 64 275T63 288Q63 316 75 326H335Q336 323 337 317T338 304Q338 279 326 267Z" />
<glyph unicode="&#xbb;" horiz-adv-x="444" d="M76 83L214 228Q228 242 234 250T240 267Q240 277 234 285T214 307L76 452Q66 449 60 443T52 425L187 249V285L52 110Q53 99 59 93T76 83ZM247 83L385 228Q399 242 405 250T411 267Q411 277 405 285T385 307L247
452Q237 449 231 443T223 425L358 249V285L223 110Q224 99 230 93T247 83Z" />
<glyph unicode="&#xbc;" horiz-adv-x="931" d="M96 263Q96 290 106 292L170 310L159 291V618L172 587L84 572Q81 577 80 582T78 595Q78 601 78 606T82 616L200 655H234V293L220 312L292 294Q292 284 290 277T281 263H96ZM325 -12Q307 -12 296 -9T275 5L570 655Q586
655 597 652T620 638L325 -12ZM729 0V342H756L585 116L570 135H841V98H565Q546 104 546 133L742 393Q771 393 786 381T802 347V0H729Z" />
<glyph unicode="&#xbd;" horiz-adv-x="931" d="M94 263Q94 290 104 292L168 310L157 291V618L170 587L82 572Q79 577 78 582T76 595Q76 601 76 606T80 616L198 655H232V293L218 312L290 294Q290 284 288 277T279 263H94ZM301 -12Q283 -12 272 -9T251 5L546 655Q562
655 573 652T596 638L301 -12ZM581 1Q571 7 568 15T565 36Q665 112 712 172T759 288Q759 320 742 336T693 353Q673 353 654 346T617 323L626 343L618 284Q617 272 586 272L574 359Q641 393 704 393Q766 393 802 366T839 291Q839 236 783 169T617 27L607 51L821
37L796 30L815 103Q827 103 835 100T847 92V1H581Z" />
<glyph unicode="&#xbe;" horiz-adv-x="931" d="M189 255Q143 255 114 266T70 294T56 328Q56 343 62 353T79 368T104 374Q104 336 125 316T183 295Q218 295 238 312T258 360Q258 391 236 411T167 445Q160 448 158 454T156 475Q204 488 227 508T250 557Q250 583
232 598T185 614Q163 614 141 605T97 576L122 613L113 551Q112 545 104 542T80 538L69 620Q103 638 135 646T198 655Q257 655 292 630T328 562Q328 526 300 501T216 460L217 467Q276 456 307 428T339 359Q339 312 298 284T189 255ZM363 -12Q345 -12 334 -9T313
5L608 655Q624 655 635 652T658 638L363 -12ZM767 0V342H794L623 116L608 135H879V98H603Q584 104 584 133L780 393Q809 393 824 381T840 347V0H767Z" />
<glyph unicode="&#xbf;" horiz-adv-x="435" d="M257 294Q269 294 280 291L288 165Q258 156 227 142T169 106T126 53T109 -21Q109 -79 137 -113T219 -148Q268 -148 297 -117T326 -23Q332 -20 339 -18T360 -15Q380 -15 392 -28T405 -64Q405 -112 356 -147T219 -183Q131
-183 81 -141T30 -26Q30 12 45 44T84 101T137 144T192 174T237 189L227 177L234 291Q243 294 257 294ZM257 484Q280 484 293 471T306 435Q306 414 291 401T257 387Q233 387 220 400T207 435Q207 456 222 470T257 484Z" />
<glyph unicode="&#xc0;" horiz-adv-x="645" d="M3 0Q3 16 7 25T19 36L78 54L53 28L275 636Q278 644 285 648T301 653T317 655Q323 655 329 655T343 652L585 31L553 56L642 37Q642 24 638 16T623 0H422Q422 16 426 25T438 36L506 54L497 34L283 581L304 583L101
28L98 56L187 37Q187 24 184 16T167 0H3ZM155 216L166 258H429L442 216H155ZM408 734Q331 758 288 771T225 792T200 805T195 817Q195 835 205 850T229 866Q235 866 244 862T274 848T330 816T423 762Q423 752 420 743T408 734Z" />
<glyph unicode="&#xc1;" horiz-adv-x="645" d="M3 0Q3 16 7 25T19 36L78 54L53 28L275 636Q278 644 285 648T301 653T317 655Q323 655 329 655T343 652L585 31L553 56L642 37Q642 24 638 16T623 0H422Q422 16 426 25T438 36L506 54L497 34L283 581L304 583L101
28L98 56L187 37Q187 24 184 16T167 0H3ZM155 216L166 258H429L442 216H155ZM211 734Q202 734 199 743T195 762Q252 795 288 816T344 847T373 862T388 866Q403 866 413 851T423 817Q423 811 418 806T394 793T331 772T211 734Z" />
<glyph unicode="&#xc2;" horiz-adv-x="645" d="M3 0Q3 16 7 25T19 36L78 54L53 28L275 636Q278 644 285 648T301 653T317 655Q323 655 329 655T343 652L585 31L553 56L642 37Q642 24 638 16T623 0H422Q422 16 426 25T438 36L506 54L497 34L283 581L304 583L101
28L98 56L187 37Q187 24 184 16T167 0H3ZM155 216L166 258H429L442 216H155ZM309 879Q320 879 329 874T353 855T391 811T454 734Q454 725 449 719T432 713L297 820H319L184 713Q174 713 168 719T162 734Q201 782 225 811T263 854T288 874T309 879Z" />
<glyph unicode="&#xc3;" horiz-adv-x="645" d="M3 0Q3 16 7 25T19 36L78 54L53 28L275 636Q278 644 285 648T301 653T317 655Q323 655 329 655T343 652L585 31L553 56L642 37Q642 24 638 16T623 0H422Q422 16 426 25T438 36L506 54L497 34L283 581L304 583L101
28L98 56L187 37Q187 24 184 16T167 0H3ZM155 216L166 258H429L442 216H155ZM236 793Q214 793 198 777T182 735Q166 735 159 739T151 751Q151 779 163 802T196 840T240 854Q266 854 289 843T336 819T382 807Q405 807 420 823T436 865Q452 865 459 862T466 850Q466
822 454 799T422 761T377 746Q352 746 329 758T283 781T236 793Z" />
<glyph unicode="&#xc4;" horiz-adv-x="645" d="M3 0Q3 16 7 25T19 36L78 54L53 28L275 636Q278 644 285 648T301 653T317 655Q323 655 329 655T343 652L585 31L553 56L642 37Q642 24 638 16T623 0H422Q422 16 426 25T438 36L506 54L497 34L283 581L304 583L101
28L98 56L187 37Q187 24 184 16T167 0H3ZM155 216L166 258H429L442 216H155ZM397 752Q372 752 361 765T349 800Q349 814 356 824T374 841T397 848Q422 848 434 835T446 800Q446 787 439 776T421 759T397 752ZM219 752Q195 752 183 765T171 800Q171 814 178 824T196
841T219 848Q243 848 255 835T268 800Q268 787 261 776T243 759T219 752Z" />
<glyph unicode="&#xc5;" horiz-adv-x="645" d="M3 0Q3 16 7 25T19 36L78 54L53 28L275 636Q278 644 285 648T301 653T317 655Q323 655 329 655T343 652L585 31L553 56L642 37Q642 24 638 16T623 0H422Q422 16 426 25T438 36L506 54L497 34L283 581L304 583L101
28L98 56L187 37Q187 24 184 16T167 0H3ZM155 216L166 258H429L442 216H155ZM302 692Q256 692 226 717T196 781Q196 812 211 836T253 874T312 888Q361 888 391 862T421 794Q421 749 388 721T302 692ZM310 723Q334 724 347 741T361 788Q361 818 346 837T307 857Q256
855 256 791Q256 760 270 742T310 723Z" />
<glyph unicode="&#xc6;" horiz-adv-x="933" d="M-3 0Q-3 16 1 24T13 36L71 56L42 21L466 617L494 586L378 604Q378 618 382 626T397 641H840V515Q824 515 815 519T803 532L778 613L792 604L546 586L557 599V325L547 332H720L709 325L726 388Q740 388 749 385T768
369V249Q759 237 750 234T726 231L708 295L720 287H547L557 295V48L547 59L819 38L806 25L834 148Q848 148 856 144T871 132V0H407Q407 16 411 25T423 36L490 54L475 38V280L483 267H263L285 281L107 31L98 57L201 37Q201 24 198 16T182 0H-3ZM292 296L287 311H483L475
298V576L482 563L292 296Z" />
<glyph unicode="&#xc7;" horiz-adv-x="650" d="M353 -12Q265 -12 198 27T94 136T56 297Q56 374 82 439T154 552T263 628T399 655Q450 655 497 643T583 606L564 466Q548 466 538 471T527 483L518 582L534 557Q509 578 466 590T376 603Q306 603 254 570T174 474T146
327Q146 240 174 175T254 74T372 38Q424 38 469 59T537 114L519 75L531 212Q553 212 563 208T576 196L582 66Q542 30 480 9T353 -12ZM354 -270Q306 -270 274 -245T242 -182Q242 -165 249 -157T267 -149Q280 -149 286 -153T296 -160Q296 -200 315 -221T365 -243Q394
-243 414 -223T434 -169Q434 -145 421 -130T387 -106T344 -98Q335 -98 329 -98T318 -100L343 0H372L354 -74L342 -62Q363 -59 387 -62T434 -77T471 -110T485 -163Q485 -187 471 -212T427 -253T354 -270Z" />
<glyph unicode="&#xc8;" horiz-adv-x="600" d="M67 0Q67 16 71 25T83 36L150 54L135 38V602L149 585L67 604Q67 618 71 626T86 641H507V515Q491 515 482 519T470 532L445 609L459 600L206 586L217 599V340L207 347H416L403 340L418 410Q428 410 438 407T455 395V254Q448
245 438 243T418 240L402 312L416 303H207L217 312V48L207 59L486 41L473 28L500 148Q514 148 522 144T538 132V0H67ZM411 734Q334 758 291 771T228 792T203 805T198 817Q198 835 208 850T232 866Q238 866 247 862T277 848T333 816T426 762Q426 752 423 743T411
734Z" />
<glyph unicode="&#xc9;" horiz-adv-x="600" d="M67 0Q67 16 71 25T83 36L150 54L135 38V602L149 585L67 604Q67 618 71 626T86 641H507V515Q491 515 482 519T470 532L445 609L459 600L206 586L217 599V340L207 347H416L403 340L418 410Q428 410 438 407T455 395V254Q448
245 438 243T418 240L402 312L416 303H207L217 312V48L207 59L486 41L473 28L500 148Q514 148 522 144T538 132V0H67ZM214 734Q205 734 202 743T198 762Q255 795 291 816T347 847T376 862T391 866Q406 866 416 851T426 817Q426 811 421 806T397 793T334 772T214
734Z" />
<glyph unicode="&#xca;" horiz-adv-x="600" d="M67 0Q67 16 71 25T83 36L150 54L135 38V602L149 585L67 604Q67 618 71 626T86 641H507V515Q491 515 482 519T470 532L445 609L459 600L206 586L217 599V340L207 347H416L403 340L418 410Q428 410 438 407T455 395V254Q448
245 438 243T418 240L402 312L416 303H207L217 312V48L207 59L486 41L473 28L500 148Q514 148 522 144T538 132V0H67ZM312 879Q323 879 332 874T356 855T394 811T457 734Q457 725 452 719T435 713L300 820H322L187 713Q177 713 171 719T165 734Q204 782 228 811T266
854T291 874T312 879Z" />
<glyph unicode="&#xcb;" horiz-adv-x="600" d="M67 0Q67 16 71 25T83 36L150 54L135 38V602L149 585L67 604Q67 618 71 626T86 641H507V515Q491 515 482 519T470 532L445 609L459 600L206 586L217 599V340L207 347H416L403 340L418 410Q428 410 438 407T455 395V254Q448
245 438 243T418 240L402 312L416 303H207L217 312V48L207 59L486 41L473 28L500 148Q514 148 522 144T538 132V0H67ZM400 752Q375 752 364 765T352 800Q352 814 359 824T377 841T400 848Q425 848 437 835T449 800Q449 787 442 776T424 759T400 752ZM222 752Q198
752 186 765T174 800Q174 814 181 824T199 841T222 848Q246 848 258 835T271 800Q271 787 264 776T246 759T222 752Z" />
<glyph unicode="&#xcc;" horiz-adv-x="351" d="M67 0Q67 16 71 25T83 36L150 54L135 38V602L151 585L67 604Q67 618 71 626T86 641H287Q287 625 283 616T271 605L200 587L217 604V39L199 56L287 37Q287 24 284 16T269 0H67ZM274 734Q197 758 154 771T91 792T66
805T61 817Q61 835 71 850T95 866Q101 866 110 862T140 848T196 816T289 762Q289 752 286 743T274 734Z" />
<glyph unicode="&#xcd;" horiz-adv-x="351" d="M67 0Q67 16 71 25T83 36L150 54L135 38V602L151 585L67 604Q67 618 71 626T86 641H287Q287 625 283 616T271 605L200 587L217 604V39L199 56L287 37Q287 24 284 16T269 0H67ZM77 734Q68 734 65 743T61 762Q118 795
154 816T210 847T239 862T254 866Q269 866 279 851T289 817Q289 811 284 806T260 793T197 772T77 734Z" />
<glyph unicode="&#xce;" horiz-adv-x="351" d="M67 0Q67 16 71 25T83 36L150 54L135 38V602L151 585L67 604Q67 618 71 626T86 641H287Q287 625 283 616T271 605L200 587L217 604V39L199 56L287 37Q287 24 284 16T269 0H67ZM175 879Q186 879 195 874T219 855T257
811T320 734Q320 725 315 719T298 713L163 820H185L50 713Q40 713 34 719T28 734Q67 782 91 811T129 854T154 874T175 879Z" />
<glyph unicode="&#xcf;" horiz-adv-x="351" d="M67 0Q67 16 71 25T83 36L150 54L135 38V602L151 585L67 604Q67 618 71 626T86 641H287Q287 625 283 616T271 605L200 587L217 604V39L199 56L287 37Q287 24 284 16T269 0H67ZM263 752Q238 752 227 765T215 800Q215
814 222 824T240 841T263 848Q288 848 300 835T312 800Q312 787 305 776T287 759T263 752ZM85 752Q61 752 49 765T37 800Q37 814 44 824T62 841T85 848Q109 848 121 835T134 800Q134 787 127 776T109 759T85 752Z" />
<glyph unicode="&#xd0;" horiz-adv-x="716" d="M67 0Q67 16 71 25T83 36L150 54L135 38V602L149 585L67 604Q67 618 70 626T84 641H371Q444 641 498 617T589 551T643 456T661 345Q661 284 640 223T579 111T482 31T350 0H67ZM345 45Q401 45 443 67T513 128T556
216T571 318Q571 393 545 457T468 559T342 598Q298 598 263 593T204 580L217 595V48L207 62Q236 53 272 49T345 45ZM59 550Q59 560 60 570T63 590T69 603L326 599Q326 585 323 575T313 561L59 550Z" />
<glyph unicode="&#xd1;" horiz-adv-x="753" d="M602 -2Q592 -2 584 -1T571 2L176 554L187 560V30L180 54L267 37Q267 24 264 16T249 0H67Q67 16 71 25T83 36L152 52L141 25V606L153 587L67 604Q67 618 71 626T85 641H211L616 77L588 70V610L594 587L507 604Q507
618 511 626T526 641H708Q708 625 704 616T692 605L623 589L634 612V20Q634 14 629 9T616 1T602 -2ZM315 793Q293 793 277 777T261 735Q245 735 238 739T230 751Q230 779 242 802T275 840T319 854Q345 854 368 843T415 819T461 807Q484 807 499 823T515 865Q531
865 538 862T545 850Q545 822 533 799T501 761T456 746Q431 746 408 758T362 781T315 793Z" />
<glyph unicode="&#xd2;" horiz-adv-x="731" d="M346 -12Q260 -12 195 28T93 139T56 297Q56 374 81 439T152 552T258 628T386 655Q472 655 537 615T639 505T676 347Q676 273 652 208T582 94T477 16T346 -12ZM375 39Q437 39 484 74T557 170T584 309Q584 446 524
524T356 603Q299 603 251 570T175 477T146 334Q146 197 207 118T375 39ZM465 734Q388 758 345 771T282 792T257 805T252 817Q252 835 262 850T286 866Q292 866 301 862T331 848T387 816T480 762Q480 752 477 743T465 734Z" />
<glyph unicode="&#xd3;" horiz-adv-x="731" d="M346 -12Q260 -12 195 28T93 139T56 297Q56 374 81 439T152 552T258 628T386 655Q472 655 537 615T639 505T676 347Q676 273 652 208T582 94T477 16T346 -12ZM375 39Q437 39 484 74T557 170T584 309Q584 446 524
524T356 603Q299 603 251 570T175 477T146 334Q146 197 207 118T375 39ZM268 734Q259 734 256 743T252 762Q309 795 345 816T401 847T430 862T445 866Q460 866 470 851T480 817Q480 811 475 806T451 793T388 772T268 734Z" />
<glyph unicode="&#xd4;" horiz-adv-x="731" d="M346 -12Q260 -12 195 28T93 139T56 297Q56 374 81 439T152 552T258 628T386 655Q472 655 537 615T639 505T676 347Q676 273 652 208T582 94T477 16T346 -12ZM375 39Q437 39 484 74T557 170T584 309Q584 446 524
524T356 603Q299 603 251 570T175 477T146 334Q146 197 207 118T375 39ZM366 879Q377 879 386 874T410 855T448 811T511 734Q511 725 506 719T489 713L354 820H376L241 713Q231 713 225 719T219 734Q258 782 282 811T320 854T345 874T366 879Z" />
<glyph unicode="&#xd5;" horiz-adv-x="731" d="M346 -12Q260 -12 195 28T93 139T56 297Q56 374 81 439T152 552T258 628T386 655Q472 655 537 615T639 505T676 347Q676 273 652 208T582 94T477 16T346 -12ZM375 39Q437 39 484 74T557 170T584 309Q584 446 524
524T356 603Q299 603 251 570T175 477T146 334Q146 197 207 118T375 39ZM293 793Q271 793 255 777T239 735Q223 735 216 739T208 751Q208 779 220 802T253 840T297 854Q323 854 346 843T393 819T439 807Q462 807 477 823T493 865Q509 865 516 862T523 850Q523 822
511 799T479 761T434 746Q409 746 386 758T340 781T293 793Z" />
<glyph unicode="&#xd6;" horiz-adv-x="731" d="M346 -12Q260 -12 195 28T93 139T56 297Q56 374 81 439T152 552T258 628T386 655Q472 655 537 615T639 505T676 347Q676 273 652 208T582 94T477 16T346 -12ZM375 39Q437 39 484 74T557 170T584 309Q584 446 524
524T356 603Q299 603 251 570T175 477T146 334Q146 197 207 118T375 39ZM454 752Q429 752 418 765T406 800Q406 814 413 824T431 841T454 848Q479 848 491 835T503 800Q503 787 496 776T478 759T454 752ZM276 752Q252 752 240 765T228 800Q228 814 235 824T253
841T276 848Q300 848 312 835T325 800Q325 787 318 776T300 759T276 752Z" />
<glyph unicode="&#xd7;" horiz-adv-x="572" d="M414 129L277 265H295L163 134Q151 134 141 141T125 161L262 299V281L130 413Q130 424 137 435T158 450L295 314H277L409 445Q420 445 431 438T447 418L310 281V299L442 167Q442 155 435 145T414 129Z" />
<glyph unicode="&#xd8;" horiz-adv-x="731" d="M346 -12Q260 -12 195 28T93 139T56 297Q56 374 81 439T152 552T258 628T386 655Q472 655 537 615T639 505T676 347Q676 273 652 208T582 94T477 16T346 -12ZM375 39Q437 39 484 74T557 170T584 309Q584 446 524
524T356 603Q299 603 251 570T175 477T146 334Q146 197 207 118T375 39ZM194 -117Q181 -117 169 -113T150 -99L537 759Q550 759 562 755T581 741L194 -117Z" />
<glyph unicode="&#xd9;" horiz-adv-x="705" d="M368 -12Q275 -12 218 16T135 94T108 211V602L125 585L40 604Q40 618 44 626T59 641H261Q261 625 257 616T245 605L174 587L190 604V220Q190 155 214 114T278 53T368 33Q426 33 468 51T533 112T556 222V608L563 587L483
604Q483 618 487 626T501 641H667Q667 625 663 616T651 605L592 589L602 613V214Q602 150 577 99T501 18T368 -12ZM470 734Q393 758 350 771T287 792T262 805T257 817Q257 835 267 850T291 866Q297 866 306 862T336 848T392 816T485 762Q485 752 482 743T470 734Z"
/>
<glyph unicode="&#xda;" horiz-adv-x="705" d="M368 -12Q275 -12 218 16T135 94T108 211V602L125 585L40 604Q40 618 44 626T59 641H261Q261 625 257 616T245 605L174 587L190 604V220Q190 155 214 114T278 53T368 33Q426 33 468 51T533 112T556 222V608L563 587L483
604Q483 618 487 626T501 641H667Q667 625 663 616T651 605L592 589L602 613V214Q602 150 577 99T501 18T368 -12ZM273 734Q264 734 261 743T257 762Q314 795 350 816T406 847T435 862T450 866Q465 866 475 851T485 817Q485 811 480 806T456 793T393 772T273 734Z"
/>
<glyph unicode="&#xdb;" horiz-adv-x="705" d="M368 -12Q275 -12 218 16T135 94T108 211V602L125 585L40 604Q40 618 44 626T59 641H261Q261 625 257 616T245 605L174 587L190 604V220Q190 155 214 114T278 53T368 33Q426 33 468 51T533 112T556 222V608L563 587L483
604Q483 618 487 626T501 641H667Q667 625 663 616T651 605L592 589L602 613V214Q602 150 577 99T501 18T368 -12ZM371 879Q382 879 391 874T415 855T453 811T516 734Q516 725 511 719T494 713L359 820H381L246 713Q236 713 230 719T224 734Q263 782 287 811T325
854T350 874T371 879Z" />
<glyph unicode="&#xdc;" horiz-adv-x="705" d="M368 -12Q275 -12 218 16T135 94T108 211V602L125 585L40 604Q40 618 44 626T59 641H261Q261 625 257 616T245 605L174 587L190 604V220Q190 155 214 114T278 53T368 33Q426 33 468 51T533 112T556 222V608L563 587L483
604Q483 618 487 626T501 641H667Q667 625 663 616T651 605L592 589L602 613V214Q602 150 577 99T501 18T368 -12ZM459 752Q434 752 423 765T411 800Q411 814 418 824T436 841T459 848Q484 848 496 835T508 800Q508 787 501 776T483 759T459 752ZM281 752Q257 752
245 765T233 800Q233 814 240 824T258 841T281 848Q305 848 317 835T330 800Q330 787 323 776T305 759T281 752Z" />
<glyph unicode="&#xdd;" horiz-adv-x="605" d="M317 176L57 605L86 585L3 604Q3 618 7 626T22 641H228Q228 625 224 616T212 605L136 587L149 610L347 283L317 280L485 606L493 587L411 604Q411 618 414 626T429 641H602Q602 625 598 616T586 605L521 589L539
611L317 176ZM197 0Q197 16 201 25T213 36L287 54L271 31V275H353V36L336 56L430 37Q430 24 427 16T413 0H197ZM224 734Q215 734 212 743T208 762Q265 795 301 816T357 847T386 862T401 866Q416 866 426 851T436 817Q436 811 431 806T407 793T344 772T224 734Z"
/>
<glyph unicode="&#xde;" horiz-adv-x="555" d="M67 0Q67 16 71 25T83 36L150 54L135 38V602L151 585L67 604Q67 618 71 626T85 641H287Q287 625 283 616T271 605L200 587L217 604V502L202 517H338Q407 517 452 493T519 429T541 344Q541 292 514 244T434 164T305
133Q282 133 255 136T208 144L217 152V33L199 56L297 37Q297 24 294 16T279 0H67ZM217 177L212 190Q230 185 255 183T305 181Q355 181 387 202T435 257T451 328Q451 393 414 432T313 472Q282 472 256 469T209 460L217 470V177Z" />
<glyph unicode="&#xdf;" horiz-adv-x="669" d="M454 -12Q407 -12 370 2T312 41T291 95Q291 118 303 129T333 140Q343 140 353 137T369 125Q369 72 393 45T466 18Q508 18 534 40T561 102Q561 133 544 152T500 183T442 206Q410 218 379 234T328 275T308 339Q308
375 325 397T367 436T418 468T461 509T478 572Q478 629 446 661T359 694Q306 694 272 670T223 594T207 459V0H64Q64 30 80 36L137 55L126 41V414L140 400L50 401Q50 415 53 426T64 443L143 445L126 431Q126 528 157 595T243 698T369 734Q429 734 471 714T535 661T558
586Q558 541 540 515T496 472T442 444T397 414T379 365Q379 339 394 323T433 295T485 273Q520 260 554 243T612 200T635 129Q635 86 612 55T548 6T454 -12Z" />
<glyph unicode="&#xe0;" horiz-adv-x="486" d="M151 -12Q104 -12 73 15T42 89Q42 146 78 182T188 235L319 265L306 254V329Q306 382 288 406T232 431Q186 431 161 404T136 324Q131 319 122 316T104 313Q87 313 77 323T67 350Q67 383 90 408T153 447T244 462Q318
462 352 425T387 307V72Q387 55 394 46T414 37Q425 37 438 43T461 56L468 29Q452 10 427 -1T379 -12Q347 -12 329 8T311 67H307Q279 29 238 9T151 -12ZM189 35Q225 35 258 53T313 103L307 86V236L320 234L206 207Q163 197 141 173T118 111Q118 76 137 56T189 35ZM313
515Q246 557 209 580T154 616T133 633T129 643Q129 654 135 664T150 682T169 689Q175 689 181 686T203 669T249 624T335 539Q335 528 328 522T313 515Z" />
<glyph unicode="&#xe1;" horiz-adv-x="486" d="M151 -12Q104 -12 73 15T42 89Q42 146 78 182T188 235L319 265L306 254V329Q306 382 288 406T232 431Q186 431 161 404T136 324Q131 319 122 316T104 313Q87 313 77 323T67 350Q67 383 90 408T153 447T244 462Q318
462 352 425T387 307V72Q387 55 394 46T414 37Q425 37 438 43T461 56L468 29Q452 10 427 -1T379 -12Q347 -12 329 8T311 67H307Q279 29 238 9T151 -12ZM189 35Q225 35 258 53T313 103L307 86V236L320 234L206 207Q163 197 141 173T118 111Q118 76 137 56T189 35ZM151
515Q143 515 136 521T129 539Q184 593 215 624T261 668T282 685T295 689Q305 689 314 682T329 665T335 643Q335 638 331 633T310 616T256 581T151 515Z" />
<glyph unicode="&#xe2;" horiz-adv-x="486" d="M151 -12Q104 -12 73 15T42 89Q42 146 78 182T188 235L319 265L306 254V329Q306 382 288 406T232 431Q186 431 161 404T136 324Q131 319 122 316T104 313Q87 313 77 323T67 350Q67 383 90 408T153 447T244 462Q318
462 352 425T387 307V72Q387 55 394 46T414 37Q425 37 438 43T461 56L468 29Q452 10 427 -1T379 -12Q347 -12 329 8T311 67H307Q279 29 238 9T151 -12ZM189 35Q225 35 258 53T313 103L307 86V236L320 234L206 207Q163 197 141 173T118 111Q118 76 137 56T189 35ZM231
693Q238 693 245 689T267 669T307 621T376 531Q376 522 371 517T354 511Q307 552 278 579T231 623Q213 607 183 580T106 511Q96 511 90 516T84 531Q127 588 153 620T193 668T215 688T231 693Z" />
<glyph unicode="&#xe3;" horiz-adv-x="486" d="M151 -12Q104 -12 73 15T42 89Q42 146 78 182T188 235L319 265L306 254V329Q306 382 288 406T232 431Q186 431 161 404T136 324Q131 319 122 316T104 313Q87 313 77 323T67 350Q67 383 90 408T153 447T244 462Q318
462 352 425T387 307V72Q387 55 394 46T414 37Q425 37 438 43T461 56L468 29Q452 10 427 -1T379 -12Q347 -12 329 8T311 67H307Q279 29 238 9T151 -12ZM189 35Q225 35 258 53T313 103L307 86V236L320 234L206 207Q163 197 141 173T118 111Q118 76 137 56T189 35ZM158
595Q136 595 120 579T104 537Q88 537 81 541T73 553Q73 581 85 604T118 642T162 656Q188 656 211 645T258 621T304 609Q327 609 342 625T358 667Q374 667 381 664T388 652Q388 624 376 601T344 563T299 548Q274 548 251 560T205 583T158 595Z" />
<glyph unicode="&#xe4;" horiz-adv-x="486" d="M151 -12Q104 -12 73 15T42 89Q42 146 78 182T188 235L319 265L306 254V329Q306 382 288 406T232 431Q186 431 161 404T136 324Q131 319 122 316T104 313Q87 313 77 323T67 350Q67 383 90 408T153 447T244 462Q318
462 352 425T387 307V72Q387 55 394 46T414 37Q425 37 438 43T461 56L468 29Q452 10 427 -1T379 -12Q347 -12 329 8T311 67H307Q279 29 238 9T151 -12ZM189 35Q225 35 258 53T313 103L307 86V236L320 234L206 207Q163 197 141 173T118 111Q118 76 137 56T189 35ZM319
554Q294 554 283 567T271 602Q271 616 278 626T296 643T319 650Q344 650 356 637T368 602Q368 589 361 578T343 561T319 554ZM141 554Q117 554 105 567T93 602Q93 616 100 626T118 643T141 650Q165 650 177 637T190 602Q190 589 183 578T165 561T141 554Z" />
<glyph unicode="&#xe5;" horiz-adv-x="486" d="M151 -12Q104 -12 73 15T42 89Q42 146 78 182T188 235L319 265L306 254V329Q306 382 288 406T232 431Q186 431 161 404T136 324Q131 319 122 316T104 313Q87 313 77 323T67 350Q67 383 90 408T153 447T244 462Q318
462 352 425T387 307V72Q387 55 394 46T414 37Q425 37 438 43T461 56L468 29Q452 10 427 -1T379 -12Q347 -12 329 8T311 67H307Q279 29 238 9T151 -12ZM189 35Q225 35 258 53T313 103L307 86V236L320 234L206 207Q163 197 141 173T118 111Q118 76 137 56T189 35ZM224
494Q178 494 148 522T118 593Q118 627 133 653T175 695T234 710Q283 710 313 682T343 606Q343 557 310 526T224 494ZM232 525Q256 526 269 546T283 600Q283 635 268 656T229 679Q205 678 192 659T178 603Q178 567 192 547T232 525Z" />
<glyph unicode="&#xe6;" horiz-adv-x="732" d="M151 -12Q104 -12 74 15T43 90Q43 146 79 182T188 235L306 263L308 309Q311 377 291 404T232 431Q187 431 162 404T136 324Q131 318 122 316T104 313Q87 313 77 322T67 351Q67 383 90 408T153 447T244 462Q295 462
324 441T365 372Q393 413 434 437T522 462Q574 462 613 439T673 373T695 271Q695 255 688 250T673 244H389Q389 183 405 136T454 61T539 34Q579 34 616 54T682 112L695 87Q674 57 643 35T577 0T503 -12Q442 -12 398 15T329 90Q295 41 249 15T151 -12ZM190 35Q227
35 260 54T319 110Q308 136 306 168T304 230L207 207Q164 197 141 173T118 111Q118 75 137 55T190 35ZM389 276L619 282Q619 348 590 388T512 428Q464 428 431 389T389 276Z" />
<glyph unicode="&#xe7;" horiz-adv-x="464" d="M240 -12Q178 -12 132 15T60 91T35 207Q35 282 64 339T146 429T264 462Q309 462 346 448T404 408T426 353Q426 333 415 322T383 310Q374 310 366 312T350 319Q350 372 326 400T254 428Q190 428 156 378T122 233Q122
135 159 85T271 34Q311 34 348 50T417 98L430 74Q409 48 379 29T313 -1T240 -12ZM253 -259Q205 -259 174 -235T143 -174Q143 -162 149 -156T167 -149Q183 -149 196 -159Q196 -200 210 -219T259 -239Q288 -239 306 -220T324 -169Q324 -129 300 -113T242 -97Q233
-97 227 -97T216 -100L243 0H266L243 -84L232 -76Q241 -74 250 -73T268 -72Q295 -72 319 -81T359 -111T375 -163Q375 -185 362 -207T321 -244T253 -259Z" />
<glyph unicode="&#xe8;" horiz-adv-x="468" d="M237 -12Q176 -12 131 15T60 92T35 205Q35 278 65 336T147 428T258 462Q310 462 348 439T409 373T431 276Q431 257 424 251T408 244H93V275L365 282L354 271Q356 319 343 354T305 408T247 428Q192 428 157 377T122
233Q122 173 139 129T191 59T273 34Q313 34 350 54T416 112L429 87Q408 57 377 35T311 0T237 -12ZM327 515Q260 557 223 580T168 616T147 633T143 643Q143 654 149 664T164 682T183 689Q189 689 195 686T217 669T263 624T349 539Q349 528 342 522T327 515Z" />
<glyph unicode="&#xe9;" horiz-adv-x="468" d="M237 -12Q176 -12 131 15T60 92T35 205Q35 278 65 336T147 428T258 462Q310 462 348 439T409 373T431 276Q431 257 424 251T408 244H93V275L365 282L354 271Q356 319 343 354T305 408T247 428Q192 428 157 377T122
233Q122 173 139 129T191 59T273 34Q313 34 350 54T416 112L429 87Q408 57 377 35T311 0T237 -12ZM165 515Q157 515 150 521T143 539Q198 593 229 624T275 668T296 685T309 689Q319 689 328 682T343 665T349 643Q349 638 345 633T324 616T270 581T165 515Z" />
<glyph unicode="&#xea;" horiz-adv-x="468" d="M237 -12Q176 -12 131 15T60 92T35 205Q35 278 65 336T147 428T258 462Q310 462 348 439T409 373T431 276Q431 257 424 251T408 244H93V275L365 282L354 271Q356 319 343 354T305 408T247 428Q192 428 157 377T122
233Q122 173 139 129T191 59T273 34Q313 34 350 54T416 112L429 87Q408 57 377 35T311 0T237 -12ZM245 693Q252 693 259 689T281 669T321 621T390 531Q390 522 385 517T368 511Q321 552 292 579T245 623Q227 607 197 580T120 511Q110 511 104 516T98 531Q141 588
167 620T207 668T229 688T245 693Z" />
<glyph unicode="&#xeb;" horiz-adv-x="468" d="M237 -12Q176 -12 131 15T60 92T35 205Q35 278 65 336T147 428T258 462Q310 462 348 439T409 373T431 276Q431 257 424 251T408 244H93V275L365 282L354 271Q356 319 343 354T305 408T247 428Q192 428 157 377T122
233Q122 173 139 129T191 59T273 34Q313 34 350 54T416 112L429 87Q408 57 377 35T311 0T237 -12ZM333 554Q308 554 297 567T285 602Q285 616 292 626T310 643T333 650Q358 650 370 637T382 602Q382 589 375 578T357 561T333 554ZM155 554Q131 554 119 567T107
602Q107 616 114 626T132 643T155 650Q179 650 191 637T204 602Q204 589 197 578T179 561T155 554Z" />
<glyph unicode="&#xec;" horiz-adv-x="305" d="M50 0Q50 32 66 36L126 55L115 41V413L127 398L65 409Q50 411 50 444Q84 449 106 451T151 454Q197 454 197 397V43L185 56L265 37Q265 22 262 15T247 0H50ZM234 515Q167 557 130 580T75 616T54 633T50 643Q50 654
56 664T71 682T90 689Q96 689 102 686T124 669T170 624T256 539Q256 528 249 522T234 515Z" />
<glyph unicode="&#xed;" horiz-adv-x="305" d="M50 0Q50 32 66 36L126 55L115 41V413L127 398L65 409Q50 411 50 444Q84 449 106 451T151 454Q197 454 197 397V43L185 56L265 37Q265 22 262 15T247 0H50ZM72 515Q64 515 57 521T50 539Q105 593 136 624T182 668T203
685T216 689Q226 689 235 682T250 665T256 643Q256 638 252 633T231 616T177 581T72 515Z" />
<glyph unicode="&#xee;" horiz-adv-x="305" d="M50 0Q50 32 66 36L126 55L115 41V413L127 398L65 409Q50 411 50 444Q84 449 106 451T151 454Q197 454 197 397V43L185 56L265 37Q265 22 262 15T247 0H50ZM152 693Q159 693 166 689T188 669T228 621T297 531Q297
522 292 517T275 511Q228 552 199 579T152 623Q134 607 104 580T27 511Q17 511 11 516T5 531Q48 588 74 620T114 668T136 688T152 693Z" />
<glyph unicode="&#xef;" horiz-adv-x="305" d="M50 0Q50 32 66 36L126 55L115 41V413L127 398L65 409Q50 411 50 444Q84 449 106 451T151 454Q197 454 197 397V43L185 56L265 37Q265 22 262 15T247 0H50ZM240 554Q215 554 204 567T192 602Q192 616 199 626T217
643T240 650Q265 650 277 637T289 602Q289 589 282 578T264 561T240 554ZM62 554Q38 554 26 567T14 602Q14 616 21 626T39 643T62 650Q86 650 98 637T111 602Q111 589 104 578T86 561T62 554Z" />
<glyph unicode="&#xf0;" horiz-adv-x="527" d="M243 -12Q147 -12 91 40T35 182Q35 251 65 304T150 386T276 416Q317 416 353 400T415 357L400 352Q395 403 371 453T306 550T212 632T94 690Q94 703 100 708T122 714Q149 714 189 697T273 650T349 584Q417 519 454
440T491 271Q491 187 460 124T373 24T243 -12ZM252 21Q300 21 334 53T386 143T404 279Q404 294 404 308T401 335L430 293Q401 336 358 359T265 383Q197 383 159 334T121 198Q121 114 155 68T252 21ZM199 556L437 631Q444 625 447 616T450 596L212 522Q205 528 202
537T199 556Z" />
<glyph unicode="&#xf1;" horiz-adv-x="597" d="M50 0Q50 32 66 36L123 55L112 38V409L124 394L65 405Q50 408 50 440Q88 446 107 448T140 451Q166 451 177 438T188 396V359L182 362H193Q233 408 284 435T385 462Q501 462 501 301V43L489 56L563 37Q563 22 560
15T547 0H366Q366 32 382 36L431 51L421 34V299Q421 405 341 405Q311 405 282 394T227 363T185 320L193 339V39L181 53L249 37Q249 22 246 15T231 0H50ZM234 595Q212 595 196 579T180 537Q164 537 157 541T149 553Q149 581 161 604T194 642T238 656Q264 656 287
645T334 621T380 609Q403 609 418 625T434 667Q450 667 457 664T464 652Q464 624 452 601T420 563T375 548Q350 548 327 560T281 583T234 595Z" />
<glyph unicode="&#xf2;" horiz-adv-x="517" d="M236 -12Q143 -12 89 46T35 201Q35 276 66 335T153 428T279 462Q341 462 386 436T456 361T481 248Q481 172 450 114T364 22T236 -12ZM255 22Q322 22 358 76T395 227Q395 324 361 376T262 428Q195 428 158 375T121
222Q121 125 155 74T255 22ZM339 515Q272 557 235 580T180 616T159 633T155 643Q155 654 161 664T176 682T195 689Q201 689 207 686T229 669T275 624T361 539Q361 528 354 522T339 515Z" />
<glyph unicode="&#xf3;" horiz-adv-x="517" d="M236 -12Q143 -12 89 46T35 201Q35 276 66 335T153 428T279 462Q341 462 386 436T456 361T481 248Q481 172 450 114T364 22T236 -12ZM255 22Q322 22 358 76T395 227Q395 324 361 376T262 428Q195 428 158 375T121
222Q121 125 155 74T255 22ZM177 515Q169 515 162 521T155 539Q210 593 241 624T287 668T308 685T321 689Q331 689 340 682T355 665T361 643Q361 638 357 633T336 616T282 581T177 515Z" />
<glyph unicode="&#xf4;" horiz-adv-x="517" d="M236 -12Q143 -12 89 46T35 201Q35 276 66 335T153 428T279 462Q341 462 386 436T456 361T481 248Q481 172 450 114T364 22T236 -12ZM255 22Q322 22 358 76T395 227Q395 324 361 376T262 428Q195 428 158 375T121
222Q121 125 155 74T255 22ZM257 693Q264 693 271 689T293 669T333 621T402 531Q402 522 397 517T380 511Q333 552 304 579T257 623Q239 607 209 580T132 511Q122 511 116 516T110 531Q153 588 179 620T219 668T241 688T257 693Z" />
<glyph unicode="&#xf5;" horiz-adv-x="517" d="M236 -12Q143 -12 89 46T35 201Q35 276 66 335T153 428T279 462Q341 462 386 436T456 361T481 248Q481 172 450 114T364 22T236 -12ZM255 22Q322 22 358 76T395 227Q395 324 361 376T262 428Q195 428 158 375T121
222Q121 125 155 74T255 22ZM184 595Q162 595 146 579T130 537Q114 537 107 541T99 553Q99 581 111 604T144 642T188 656Q214 656 237 645T284 621T330 609Q353 609 368 625T384 667Q400 667 407 664T414 652Q414 624 402 601T370 563T325 548Q300 548 277 560T231
583T184 595Z" />
<glyph unicode="&#xf6;" horiz-adv-x="517" d="M236 -12Q143 -12 89 46T35 201Q35 276 66 335T153 428T279 462Q341 462 386 436T456 361T481 248Q481 172 450 114T364 22T236 -12ZM255 22Q322 22 358 76T395 227Q395 324 361 376T262 428Q195 428 158 375T121
222Q121 125 155 74T255 22ZM345 554Q320 554 309 567T297 602Q297 616 304 626T322 643T345 650Q370 650 382 637T394 602Q394 589 387 578T369 561T345 554ZM167 554Q143 554 131 567T119 602Q119 616 126 626T144 643T167 650Q191 650 203 637T216 602Q216 589
209 578T191 561T167 554Z" />
<glyph unicode="&#xf7;" horiz-adv-x="572" d="M286 397Q265 397 254 409T242 441Q242 460 255 472T286 485Q308 485 319 473T331 441Q331 423 318 410T286 397ZM285 95Q264 95 253 107T241 139Q241 157 254 170T285 183Q307 183 318 171T330 139Q330 120 317
108T285 95ZM86 265Q76 277 76 295Q76 299 77 304T79 314H481Q492 303 492 284Q492 280 492 275T489 265H86Z" />
<glyph unicode="&#xf8;" horiz-adv-x="517" d="M236 -12Q143 -12 89 46T35 201Q35 276 66 335T153 428T279 462Q341 462 386 436T456 361T481 248Q481 172 450 114T364 22T236 -12ZM255 22Q322 22 358 76T395 227Q395 324 361 376T262 428Q195 428 158 375T121
222Q121 125 155 74T255 22ZM137 -85Q128 -85 119 -82T106 -72L377 529Q386 529 394 526T408 516L137 -85Z" />
<glyph unicode="&#xf9;" horiz-adv-x="573" d="M219 -12Q162 -12 131 25T100 144V404L115 389L53 400Q46 401 42 409T38 435Q76 440 95 442T127 445Q154 445 167 432T181 391V146Q181 92 202 67T266 41Q293 41 316 50T358 74T390 109L383 92V404L398 389L335 400Q328
401 325 409T321 435Q359 440 378 442T409 445Q437 445 450 432T463 391V72Q463 55 470 46T491 37Q502 37 514 42T537 56L545 29Q528 10 503 -1T455 -12Q424 -12 406 8T388 67H383Q315 -12 219 -12ZM358 515Q291 557 254 580T199 616T178 633T174 643Q174 654 180
664T195 682T214 689Q220 689 226 686T248 669T294 624T380 539Q380 528 373 522T358 515Z" />
<glyph unicode="&#xfa;" horiz-adv-x="573" d="M219 -12Q162 -12 131 25T100 144V404L115 389L53 400Q46 401 42 409T38 435Q76 440 95 442T127 445Q154 445 167 432T181 391V146Q181 92 202 67T266 41Q293 41 316 50T358 74T390 109L383 92V404L398 389L335 400Q328
401 325 409T321 435Q359 440 378 442T409 445Q437 445 450 432T463 391V72Q463 55 470 46T491 37Q502 37 514 42T537 56L545 29Q528 10 503 -1T455 -12Q424 -12 406 8T388 67H383Q315 -12 219 -12ZM196 515Q188 515 181 521T174 539Q229 593 260 624T306 668T327
685T340 689Q350 689 359 682T374 665T380 643Q380 638 376 633T355 616T301 581T196 515Z" />
<glyph unicode="&#xfb;" horiz-adv-x="573" d="M219 -12Q162 -12 131 25T100 144V404L115 389L53 400Q46 401 42 409T38 435Q76 440 95 442T127 445Q154 445 167 432T181 391V146Q181 92 202 67T266 41Q293 41 316 50T358 74T390 109L383 92V404L398 389L335 400Q328
401 325 409T321 435Q359 440 378 442T409 445Q437 445 450 432T463 391V72Q463 55 470 46T491 37Q502 37 514 42T537 56L545 29Q528 10 503 -1T455 -12Q424 -12 406 8T388 67H383Q315 -12 219 -12ZM276 693Q283 693 290 689T312 669T352 621T421 531Q421 522 416
517T399 511Q352 552 323 579T276 623Q258 607 228 580T151 511Q141 511 135 516T129 531Q172 588 198 620T238 668T260 688T276 693Z" />
<glyph unicode="&#xfc;" horiz-adv-x="573" d="M219 -12Q162 -12 131 25T100 144V404L115 389L53 400Q46 401 42 409T38 435Q76 440 95 442T127 445Q154 445 167 432T181 391V146Q181 92 202 67T266 41Q293 41 316 50T358 74T390 109L383 92V404L398 389L335 400Q328
401 325 409T321 435Q359 440 378 442T409 445Q437 445 450 432T463 391V72Q463 55 470 46T491 37Q502 37 514 42T537 56L545 29Q528 10 503 -1T455 -12Q424 -12 406 8T388 67H383Q315 -12 219 -12ZM364 554Q339 554 328 567T316 602Q316 616 323 626T341 643T364
650Q389 650 401 637T413 602Q413 589 406 578T388 561T364 554ZM186 554Q162 554 150 567T138 602Q138 616 145 626T163 643T186 650Q210 650 222 637T235 602Q235 589 228 578T210 561T186 554Z" />
<glyph unicode="&#xfd;" horiz-adv-x="501" d="M62 -270Q34 -270 19 -259T3 -230Q3 -224 5 -216T11 -201H32Q77 -201 107 -191T159 -156T200 -91T243 13L239 -34L64 401L82 388L7 406Q7 421 11 428T25 443H207Q207 411 191 406L131 389L145 406L284 57H261L393
401L399 388L329 406Q329 424 332 431T347 443H498Q498 426 494 418T482 407L425 389L443 407L283 -9Q237 -128 179 -199T62 -270ZM186 515Q178 515 171 521T164 539Q219 593 250 624T296 668T317 685T330 689Q340 689 349 682T364 665T370 643Q370 638 366 633T345
616T291 581T186 515Z" />
<glyph unicode="&#xfe;" horiz-adv-x="558" d="M45 -257Q45 -227 61 -221L118 -203L107 -220V692L119 677L57 688Q42 691 42 723Q75 728 98 731T135 734Q161 734 172 723T183 688V360L180 363H188Q220 410 266 436T360 462Q410 462 446 436T502 363T522 250Q522
171 494 112T413 21T290 -12Q261 -12 231 -6T174 11L188 19V-215L176 -202L257 -220Q257 -234 254 -242T239 -257H45ZM285 27Q364 27 400 76T436 231Q436 323 409 366T324 409Q293 409 268 398T220 365T177 313L186 336V44L177 62Q212 43 234 35T285 27Z" />
<glyph unicode="&#xff;" horiz-adv-x="501" d="M62 -270Q34 -270 19 -259T3 -230Q3 -224 5 -216T11 -201H32Q77 -201 107 -191T159 -156T200 -91T243 13L239 -34L64 401L82 388L7 406Q7 421 11 428T25 443H207Q207 411 191 406L131 389L145 406L284 57H261L393
401L399 388L329 406Q329 424 332 431T347 443H498Q498 426 494 418T482 407L425 389L443 407L283 -9Q237 -128 179 -199T62 -270ZM354 554Q329 554 318 567T306 602Q306 616 313 626T331 643T354 650Q379 650 391 637T403 602Q403 589 396 578T378 561T354 554ZM176
554Q152 554 140 567T128 602Q128 616 135 626T153 643T176 650Q200 650 212 637T225 602Q225 589 218 578T200 561T176 554Z" />
<glyph unicode="&#x2013;" horiz-adv-x="651" d="M62 244Q59 249 58 257T56 272Q56 284 59 290H586Q590 286 591 279T592 264Q592 249 591 244H62Z" />
<glyph unicode="&#x2014;" horiz-adv-x="846" d="M81 244Q77 249 75 257T73 272Q73 284 76 290H761Q766 286 767 279T769 264Q769 249 767 244H81Z" />
<glyph unicode="&#x2018;" horiz-adv-x="206" d="M154 701Q159 700 163 694T168 677Q133 667 119 651T105 615Q105 599 113 590T131 573T150 557T158 531Q158 511 145 498T111 485Q80 485 63 509T45 569Q45 610 63 638T106 682T154 701Z" />
<glyph unicode="&#x2019;" horiz-adv-x="206" d="M53 485Q49 487 44 492T38 508Q73 520 87 536T102 570Q102 587 94 596T75 612T56 629T48 655Q48 675 62 688T96 701Q127 701 143 677T160 618Q160 577 143 549T100 504T53 485Z" />
<glyph unicode="&#x201a;" horiz-adv-x="208" d="M53 -132Q48 -130 43 -124T38 -107Q73 -96 87 -80T101 -46Q101 -29 93 -20T75 -4T56 12T48 39Q48 59 62 71T95 84Q126 84 143 60T160 1Q160 -40 143 -68T100 -112T53 -132Z" />
<glyph unicode="&#x201c;" horiz-adv-x="369" d="M154 701Q159 700 163 694T168 677Q133 667 119 651T105 615Q105 599 113 590T131 573T150 557T158 531Q158 511 145 498T111 485Q80 485 63 509T45 569Q45 610 63 638T106 682T154 701ZM317 701Q322 700 326 694T331
677Q296 667 282 651T268 615Q268 599 276 590T294 573T313 557T321 531Q321 511 308 498T274 485Q243 485 226 509T208 569Q208 610 226 638T269 682T317 701Z" />
<glyph unicode="&#x201d;" horiz-adv-x="368" d="M53 485Q49 487 44 492T38 508Q73 520 87 536T102 570Q102 587 94 596T75 612T56 629T48 655Q48 675 62 688T96 701Q127 701 143 677T160 618Q160 577 143 549T100 504T53 485ZM215 485Q211 487 206 492T200 508Q235
520 249 536T264 570Q264 587 256 596T237 612T218 629T210 655Q210 675 224 688T258 701Q289 701 305 677T322 618Q322 577 305 549T262 504T215 485Z" />
<glyph unicode="&#x201e;" horiz-adv-x="370" d="M53 -132Q48 -130 43 -124T38 -107Q73 -96 87 -80T101 -46Q101 -29 93 -20T75 -4T56 12T48 39Q48 59 62 71T95 84Q126 84 143 60T160 1Q160 -40 143 -68T100 -112T53 -132ZM215 -132Q210 -130 205 -124T200 -107Q235
-96 249 -80T263 -46Q263 -29 255 -20T237 -4T218 12T210 39Q210 59 224 71T257 84Q288 84 305 60T322 1Q322 -40 305 -68T262 -112T215 -132Z" />
<glyph unicode="&#x2022;" horiz-adv-x="321" d="M160 187Q120 187 100 209T80 267Q80 289 91 307T121 336T160 347Q201 347 221 325T241 267Q241 233 217 210T160 187Z" />
<glyph unicode="&#x2039;" horiz-adv-x="273" d="M197 83L59 228Q45 242 39 250T33 267Q33 277 39 285T59 307L197 452Q207 449 213 443T221 425L86 249V285L221 110Q220 99 214 93T197 83Z" />
<glyph unicode="&#x203a;" horiz-adv-x="273" d="M76 83L214 228Q228 242 234 250T240 267Q240 277 234 285T214 307L76 452Q66 449 60 443T52 425L187 249V285L52 110Q53 99 59 93T76 83Z" />
</font>
</defs>
</svg>
