<?xml version="1.0" standalone="no"?>
<!DOCTYPE svg PUBLIC "-//W3C//DTD SVG 1.1//EN" "http://www.w3.org/Graphics/SVG/1.1/DTD/svg11.dtd">
<svg xmlns="http://www.w3.org/2000/svg">
<defs >
<font id="RedHatText" horiz-adv-x="525" ><font-face
    font-family="Red Hat Text"
    units-per-em="1000"
    panose-1="2 1 5 3 4 2 1 13 3 3"
    ascent="1018"
    descent="-305"
    alphabetic="0" />
<glyph unicode=" " glyph-name="space" horiz-adv-x="233" />
<glyph unicode="!" glyph-name="exclam" horiz-adv-x="215" d="M67 205L170 717H244L124 205H67ZM58 -8Q38 -8 25 6T11 40Q11 63 28 80T69 98Q89 98 102 84T115 51Q115 28 98 10T58 -8Z" />
<glyph unicode="&quot;" glyph-name="quotedbl" horiz-adv-x="354" d="M129 530L162 750H234L180 530H129ZM272 530L305 750H377L323 530H272Z" />
<glyph unicode="#" glyph-name="numbersign" horiz-adv-x="675" d="M-8 0L112 219H18L30 277H144L224 423H108L121 481H256L376 700H443L323 481H504L624 700H690L570 481H664L651 423H538L458 277H573L561 219H426L306 0H240L360 219H178L58 0H-8ZM210 277H392L472
423H291L210 277Z" />
<glyph unicode="$" glyph-name="dollar" horiz-adv-x="538" d="M175 -75L196 25Q148 33 105 56T21 117L63 167Q98 134 134 114T209 86L261 331L216 347Q163 368 133 407T102 493Q102 580 163 630T329 681H335L352 759H400L382 676Q425 667 466 644T543 587L497
539Q469 568 436 587T369 615L320 383L356 370Q422 344 453 308T485 222Q485 132 420 76T250 20H243L223 -75H175ZM243 408L275 396L323 621H319Q250 621 210 589T169 502Q169 471 188 447T243 408ZM327 309L306 317L256 82Q328 83 373 118T418 210Q418 243 396
266T327 309Z" />
<glyph unicode="%" glyph-name="percent" horiz-adv-x="761" d="M208 345Q151 345 117 382T83 483Q83 528 96 568T133 639T188 687T255 705Q312 705 346 668T380 567Q380 522 367 482T330 411T275 363T208 345ZM213 391Q237 391 258 405T296 443T321 499T331 566Q331
609 309 634T249 660Q225 660 204 646T167 608T142 552T132 485Q132 441 154 416T213 391ZM161 0H107L641 700H698L161 0ZM547 -5Q490 -5 456 32T422 133Q422 178 435 218T472 289T527 337T594 355Q651 355 685 318T719 217Q719 172 706 132T669 61T614 13T547
-5ZM552 41Q576 41 597 55T635 93T660 149T670 216Q670 259 648 284T588 310Q564 310 543 296T506 258T481 202T471 135Q471 91 493 66T552 41Z" />
<glyph unicode="&amp;" glyph-name="ampersand" horiz-adv-x="656" d="M596 39L547 -11Q525 7 503 28T458 73Q412 33 357 12T242 -9Q143 -9 82 40T21 171Q21 238 60 287T184 380L221 398Q202 433 194 464T185 526Q185 604 237 656T367 708Q431 708 472 673T513
582Q513 528 479 485T367 404L311 376Q346 322 385 270T465 170Q497 207 524 253T572 353L637 335Q611 272 579 220T507 124Q529 101 551 80T596 39ZM253 531Q253 506 260 482T285 426L346 456Q396 481 419 509T443 573Q443 607 421 628T362 650Q315 650 284 616T253
531ZM92 184Q92 125 135 89T249 53Q294 53 337 70T417 118Q372 169 329 228T248 347L215 331Q152 301 122 265T92 184Z" />
<glyph unicode="&apos;" glyph-name="quotesingle" horiz-adv-x="209" d="M129 530L162 750H234L180 530H129Z" />
<glyph unicode="(" glyph-name="parenleft" horiz-adv-x="393" d="M61 137Q61 230 85 317T152 479T259 613T399 711L427 657Q362 626 307 573T213 451T152 304T130 143Q130 42 162 -38T258 -170L210 -216Q136 -156 99 -66T61 137Z" />
<glyph unicode=")" glyph-name="parenright" horiz-adv-x="393" d="M331 358Q331 265 307 178T240 16T133 -118T-7 -216L-35 -162Q30 -131 85 -78T179 44T240 191T262 352Q262 453 230 533T134 665L182 711Q256 651 293 561T331 358Z" />
<glyph unicode="*" glyph-name="asterisk" horiz-adv-x="446" d="M388 398L295 478L267 341H216L248 480L124 414L104 463L235 528L138 607L173 648L266 568L292 700H342L314 569L434 631L455 584L325 520L425 440L388 398Z" />
<glyph unicode="+" glyph-name="plus" horiz-adv-x="519" d="M266 145H207L246 327H82L95 389H259L297 567H356L318 389H482L469 327H305L266 145Z" />
<glyph unicode="," glyph-name="comma" horiz-adv-x="215" d="M47 74H125L0 -157H-57L47 74Z" />
<glyph unicode="-" glyph-name="hyphen" horiz-adv-x="447" d="M74 313H399L385 250H59L74 313Z" />
<glyph unicode="." glyph-name="period" horiz-adv-x="215" d="M69 101Q88 101 101 87T115 52Q115 29 98 11T58 -8Q38 -8 25 6T11 41Q11 65 28 83T69 101Z" />
<glyph unicode="/" glyph-name="slash" horiz-adv-x="460" d="M-145 -205L438 700H514L-70 -205H-145Z" />
<glyph unicode="0" glyph-name="zero" horiz-adv-x="654" d="M302 -9Q198 -9 135 65T71 263Q71 353 97 434T167 576T270 673T394 709Q498 709 561 635T625 437Q625 347 599 266T529 124T426 27T302 -9ZM311 55Q360 55 404 86T481 169T533 291T553 438Q553 534
508 589T385 645Q336 645 292 614T215 531T163 409T143 262Q143 166 188 111T311 55Z" />
<glyph unicode="1" glyph-name="one" horiz-adv-x="301" d="M316 700L167 0H97L228 622L108 572L122 638L272 700H316Z" />
<glyph unicode="2" glyph-name="two" horiz-adv-x="538" d="M-4 0L7 53L382 395Q424 433 444 469T464 543Q464 588 428 616T334 645Q290 645 248 628T149 569L118 621Q178 665 234 686T347 708Q430 708 482 665T535 552Q535 498 510 454T424 355L102 62L450 63L437 0H-4Z" />
<glyph unicode="3" glyph-name="three" horiz-adv-x="574" d="M505 204Q505 159 486 120T432 53T351 8T251 -9Q170 -9 109 20T6 108L60 151Q94 102 142 78T255 54Q330 54 382 96T434 201Q434 255 399 291T312 327H229L242 389H321Q390 389 433 425T477 519Q477
573 438 608T337 643Q289 643 246 626T157 572L119 623Q171 665 228 686T346 707Q389 707 426 694T491 657T533 601T549 531Q549 466 503 418T383 355Q440 336 472 296T505 204Z" />
<glyph unicode="4" glyph-name="four" horiz-adv-x="606" d="M573 700L477 250H573L559 187H464L424 0H354L394 187H24L37 244L498 700H573ZM123 250H407L483 607L123 250Z" />
<glyph unicode="5" glyph-name="five" horiz-adv-x="559" d="M90 363L175 700H568L554 637H223L163 403Q198 418 229 424T294 431Q390 431 447 380T504 240Q504 189 483 144T427 64T343 11T240 -9Q167 -9 106 20T6 102L55 148Q93 99 139 76T244 53Q324 53 377
105T431 233Q431 299 389 337T272 375Q241 375 208 367T135 343L90 363Z" />
<glyph unicode="6" glyph-name="six" horiz-adv-x="611" d="M298 -6Q195 -6 132 67T69 261Q69 351 98 432T177 574T294 671T435 707Q485 707 531 692T614 649L567 596Q537 618 501 630T427 643Q377 643 332 621T249 559T186 466T148 349Q191 392 244 415T349 438Q438
438 496 382T554 242Q554 191 534 146T479 67T397 14T298 -6ZM139 256Q139 165 183 111T303 57Q340 57 373 71T430 109T468 165T483 233Q483 296 440 338T334 380Q283 380 233 358T140 295Q140 285 140 276T139 256Z" />
<glyph unicode="7" glyph-name="seven" horiz-adv-x="547" d="M43 0L519 636H111L125 700H613L601 644L129 0H43Z" />
<glyph unicode="8" glyph-name="eight" horiz-adv-x="602" d="M274 -9Q173 -9 108 42T43 173Q43 210 58 243T100 304T163 350T243 375Q195 394 168 430T140 513Q140 554 158 590T208 652T283 694T375 710Q462 710 520 662T578 541Q578 478 530 429T409 363Q466
344 500 302T535 206Q535 161 515 122T459 53T376 8T274 -9ZM347 398Q414 398 461 438T509 536Q509 585 469 619T369 653Q303 653 256 613T208 515Q208 465 247 432T347 398ZM278 50Q316 50 350 62T410 96T451 145T466 206Q466 263 419 301T300 339Q262 339 228
327T169 293T129 244T114 184Q114 127 160 89T278 50Z" />
<glyph unicode="9" glyph-name="nine" horiz-adv-x="608" d="M348 705Q451 705 514 632T577 438Q577 348 548 267T469 125T352 28T211 -8Q161 -8 115 7T32 50L79 103Q109 81 145 69T219 56Q269 56 314 78T397 140T460 233T498 350Q455 307 402 284T297 261Q208
261 150 317T92 457Q92 508 112 553T167 632T249 685T348 705ZM507 443Q507 534 463 588T343 642Q306 642 273 628T216 590T178 534T163 466Q163 403 206 361T312 319Q363 319 413 341T506 404Q506 414 506 423T507 443Z" />
<glyph unicode=":" glyph-name="colon" horiz-adv-x="220" d="M71 101Q90 101 103 87T117 52Q117 29 100 11T60 -8Q40 -8 27 6T13 41Q13 65 30 83T71 101ZM156 498Q175 498 188 484T202 449Q202 426 185 408T145 389Q125 389 112 403T98 438Q98 462 115 480T156 498Z" />
<glyph unicode=";" glyph-name="semicolon" horiz-adv-x="222" d="M160 498Q179 498 192 484T206 449Q206 426 189 408T149 389Q129 389 116 403T102 438Q102 462 119 480T160 498ZM301 74H379L254 -157H197L301 74Z" />
<glyph unicode="&lt;" glyph-name="less" horiz-adv-x="470" d="M305 103L46 349L410 594L439 545L137 346L351 148L305 103Z" />
<glyph unicode="=" glyph-name="equal" horiz-adv-x="520" d="M721 562L708 500H321L334 562H721ZM500 469L487 407H100L113 469H500Z" />
<glyph unicode="&gt;" glyph-name="greater" horiz-adv-x="470" d="M208 594L467 348L103 103L74 152L376 351L162 549L208 594Z" />
<glyph unicode="?" glyph-name="question" horiz-adv-x="501" d="M385 371L326 336Q286 313 266 283T238 207H177Q187 273 214 314T293 385L355 421Q395 446 417 478T440 545Q440 587 406 614T317 641Q274 641 232 620T152 562L107 603Q155 653 212 680T327 707Q408
707 459 665T511 554Q511 499 481 455T385 371ZM184 98Q203 98 216 84T229 51Q229 28 212 10T172 -8Q152 -8 139 6T126 40Q126 63 143 80T184 98Z" />
<glyph unicode="@" glyph-name="at" horiz-adv-x="763" d="M349 51Q291 51 252 94T212 202Q212 239 224 271T259 327T310 365T374 379Q402 379 427 369T469 340L474 366H529L491 174Q484 138 498 119T544 99Q594 99 627 147T661 267Q661 324 640 372T583 456T496
512T387 532Q327 532 274 507T182 439T121 336T98 209Q98 143 120 86T182 -12T277 -76T396 -99Q439 -99 480 -89T558 -58L575 -99Q534 -121 488 -132T393 -144Q320 -144 258 -118T150 -44T78 67T52 207Q52 286 78 353T148 470T255 548T389 576Q457 576 515 553T615
488T682 391T707 269Q707 223 694 184T659 116T606 71T539 55Q508 55 485 66T450 96Q426 74 400 63T349 51ZM266 206Q266 158 292 128T360 98Q381 98 401 107T437 134Q436 144 436 155T439 179L459 285Q446 307 423 319T372 331Q329 331 298 294T266 206Z" />
<glyph unicode="A" glyph-name="A" horiz-adv-x="647" d="M-44 0L372 700H463L585 0H508L472 220H168L41 0H-44ZM203 281H462L404 631L203 281Z" />
<glyph unicode="B" glyph-name="B" horiz-adv-x="656" d="M183 700H442Q527 700 577 659T627 545Q627 477 585 427T474 359Q528 343 558 306T589 217Q589 170 571 130T519 62T440 17T341 0H34L183 700ZM429 634H244L193 394H395Q464 394 507 433T550 532Q550 579
518 606T429 634ZM340 66Q416 66 464 108T513 218Q513 270 477 300T377 331H179L123 66H340Z" />
<glyph unicode="C" glyph-name="C" horiz-adv-x="713" d="M406 58Q464 58 520 81T619 147L659 95Q604 44 537 17T401 -11Q332 -11 273 14T170 84T101 188T76 320Q76 400 106 471T186 595T306 679T451 710Q534 710 600 678T710 584L653 534Q621 584 567 612T447
640Q386 640 332 616T239 548T176 447T153 323Q153 266 172 217T224 133T305 78T406 58Z" />
<glyph unicode="D" glyph-name="D" horiz-adv-x="717" d="M34 0L183 700H382Q449 700 504 678T599 615T659 517T681 391Q681 311 650 240T567 115T443 31T291 0H34ZM379 631H243L124 69H302Q364 69 419 94T515 162T579 264T603 389Q603 497 541 564T379 631Z" />
<glyph unicode="E" glyph-name="E" horiz-adv-x="607" d="M34 0L183 700H651L636 633H244L191 387H464L450 320H177L123 67H520L506 0H34Z" />
<glyph unicode="F" glyph-name="F" horiz-adv-x="598" d="M34 0L183 700H651L636 633H244L190 382H459L445 315H176L109 0H34Z" />
<glyph unicode="G" glyph-name="G" horiz-adv-x="785" d="M743 314Q731 243 699 184T621 81T517 14T394 -10Q326 -10 267 15T165 85T98 190T73 321Q73 400 103 471T184 595T303 679T448 711Q535 711 605 677T723 579L664 529Q630 581 571 611T443 641Q383 641
329 616T236 548T173 447T149 323Q149 266 168 218T220 134T300 79T399 59Q448 59 491 76T570 125T629 201T664 298H433L444 366H752L743 314Z" />
<glyph unicode="H" glyph-name="H" horiz-adv-x="717" d="M32 0L181 700H257L190 387H584L651 700H727L578 0H502L570 318H176L108 0H32Z" />
<glyph unicode="I" glyph-name="I" horiz-adv-x="247" d="M32 0L181 700H256L107 0H32Z" />
<glyph unicode="J" glyph-name="J" horiz-adv-x="588" d="M516 257Q488 129 415 59T235 -11Q147 -11 88 37T11 171L79 196Q93 128 132 94T235 59Q311 59 365 113T441 264L534 700H610L516 257Z" />
<glyph unicode="K" glyph-name="K" horiz-adv-x="597" d="M34 0L183 700H258L189 378L588 700H689L263 357L544 0H449L182 344L109 0H34Z" />
<glyph unicode="L" glyph-name="L" horiz-adv-x="595" d="M34 0L183 700H258L123 68H510L496 0H34Z" />
<glyph unicode="M" glyph-name="M" horiz-adv-x="844" d="M380 50L235 612L105 0H34L183 700H284L409 201L743 700H851L702 0H632L761 609L380 50Z" />
<glyph unicode="N" glyph-name="N" horiz-adv-x="725" d="M182 700H260L540 113L661 700H732L584 0H516L229 599L105 0H34L182 700Z" />
<glyph unicode="O" glyph-name="O" horiz-adv-x="795" d="M759 380Q759 301 730 230T651 105T534 21T392 -11Q325 -11 267 14T166 84T100 189T75 320Q75 399 104 470T183 595T300 679T442 711Q510 711 568 686T668 616T735 511T759 380ZM683 376Q683 433 665 481T613
565T535 621T438 641Q379 641 327 616T235 547T174 447T151 324Q151 268 169 219T221 135T299 80T397 59Q456 59 508 84T599 152T660 253T683 376Z" />
<glyph unicode="P" glyph-name="P" horiz-adv-x="641" d="M34 0L183 700H445Q535 700 588 652T642 520Q642 469 624 426T573 352T495 304T397 286H170L109 0H34ZM432 632H244L184 352H394Q470 352 518 397T567 515Q567 569 531 600T432 632Z" />
<glyph unicode="Q" glyph-name="Q" horiz-adv-x="793" d="M759 380Q759 290 722 211T621 77L670 3L616 -33L569 39Q529 15 485 2T392 -11Q325 -11 267 14T166 84T100 189T75 320Q75 399 104 470T183 595T300 679T442 711Q510 711 568 686T668 616T735 511T759
380ZM513 240L582 135Q628 179 655 241T683 376Q683 433 665 481T613 565T535 621T438 641Q379 641 327 616T235 547T174 447T151 324Q151 268 169 219T221 135T299 80T397 59Q433 59 467 69T531 96L460 204L513 240Z" />
<glyph unicode="R" glyph-name="R" horiz-adv-x="634" d="M34 0L183 700H446Q535 700 587 652T640 523Q640 439 588 379T451 304L542 0H463L375 299H173L109 0H34ZM435 632H244L186 363H397Q470 363 517 406T565 518Q565 570 530 601T435 632Z" />
<glyph unicode="S" glyph-name="S" horiz-adv-x="612" d="M17 131L68 183Q128 118 186 86T308 54Q386 54 438 95T491 198Q491 241 461 267T356 315L249 342Q171 362 132 405T92 511Q92 600 158 654T333 709Q412 709 485 681T612 599L564 544Q515 592 454 618T330
644Q256 644 211 610T166 521Q166 478 194 451T280 408L385 382Q479 356 522 315T566 209Q566 160 547 120T494 51T412 6T306 -10Q224 -10 151 26T17 131Z" />
<glyph unicode="T" glyph-name="T" horiz-adv-x="605" d="M108 632L123 700H671L656 632H421L286 0H211L346 632H108Z" />
<glyph unicode="U" glyph-name="U" horiz-adv-x="698" d="M631 289Q600 145 520 67T322 -11Q255 -11 204 12T122 77T80 176T85 303L169 700H245L159 299Q148 246 154 202T183 127T241 77T325 59Q410 59 471 121T557 293L644 700H719L631 289Z" />
<glyph unicode="V" glyph-name="V" horiz-adv-x="647" d="M227 0L105 700H181L285 72L651 700H733L318 0H227Z" />
<glyph unicode="W" glyph-name="W" horiz-adv-x="879" d="M212 0H136V700H210L206 124L497 700H570L618 124L857 700H934L637 0H560L512 594L212 0Z" />
<glyph unicode="X" glyph-name="X" horiz-adv-x="641" d="M51 0H-46L300 367L127 700H212L354 422L615 700H710L387 359L574 0H490L334 304L51 0Z" />
<glyph unicode="Y" glyph-name="Y" horiz-adv-x="633" d="M224 0L285 287L107 700H187L334 353L627 700H717L360 283L300 0H224Z" />
<glyph unicode="Z" glyph-name="Z" horiz-adv-x="593" d="M-17 0L-5 54L533 635L120 633L134 700H648L635 646L97 65L522 67L507 0H-17Z" />
<glyph unicode="[" glyph-name="bracketleft" horiz-adv-x="355" d="M204 -215H-32L163 700H399L386 640H219L50 -155H217L204 -215Z" />
<glyph unicode="\" glyph-name="backslash" horiz-adv-x="413" d="M384 -205H315L115 700H184L384 -205Z" />
<glyph unicode="]" glyph-name="bracketright" horiz-adv-x="355" d="M146 700H382L187 -215H-49L-36 -155H131L300 640H133L146 700Z" />
<glyph unicode="^" glyph-name="asciicircum" horiz-adv-x="529" d="M80 350L328 700H391L489 350H426L346 634L147 350H80Z" />
<glyph unicode="_" glyph-name="underscore" horiz-adv-x="447" d="M378 -80L366 -137H-84L-72 -80H378Z" />
<glyph unicode="`" glyph-name="grave" horiz-adv-x="513" d="M257 706L366 584H299L157 706H257Z" />
<glyph unicode="a" glyph-name="a" horiz-adv-x="516" d="M191 -7Q119 -7 74 30T29 130Q29 199 81 243T216 287Q263 287 304 275T377 240L390 299Q405 366 377 400T279 435Q249 435 216 426T139 398L119 455Q167 475 209 485T292 495Q390 495 435 444T462 305L394
0H323L333 46Q299 19 264 6T191 -7ZM98 138Q98 95 128 72T212 48Q248 48 280 60T345 98L366 191Q338 213 303 223T223 233Q169 233 134 206T98 138Z" />
<glyph unicode="b" glyph-name="b" horiz-adv-x="571" d="M520 271Q520 214 500 163T446 74T365 14T267 -8Q216 -8 175 14T109 78L92 0H21L171 715L245 730L183 433Q212 461 248 476T325 492Q367 492 403 476T464 430T505 359T520 271ZM299 430Q263 430 231 416T171
375L121 136Q140 100 177 78T258 56Q298 56 333 72T393 117T434 183T449 265Q449 338 407 384T299 430Z" />
<glyph unicode="c" glyph-name="c" horiz-adv-x="497" d="M272 55Q308 55 342 68T404 103L438 56Q400 24 354 8T261 -9Q216 -9 178 7T111 53T67 122T51 210Q51 268 72 320T129 410T214 471T316 494Q370 494 420 469T499 401L445 356Q422 391 388 409T313 428Q275
428 240 411T179 365T138 296T122 214Q122 147 165 101T272 55Z" />
<glyph unicode="d" glyph-name="d" horiz-adv-x="571" d="M371 0L381 46Q353 21 319 7T245 -7Q203 -7 168 10T106 56T66 126T51 214Q51 271 71 322T125 411T205 471T303 493Q352 493 392 473T458 415L520 715L594 730L442 0H371ZM122 220Q122 148 163 102T271
56Q305 56 336 68T393 104L445 356Q426 389 390 409T312 429Q272 429 238 413T178 368T137 302T122 220Z" />
<glyph unicode="e" glyph-name="e" horiz-adv-x="545" d="M443 45Q400 17 359 4T273 -9Q175 -9 113 54T51 216Q51 273 71 324T124 414T204 474T302 496Q387 496 442 435T498 281Q498 268 497 255T495 228H121V218Q121 148 165 101T276 54Q311 54 345 65T405 97L443
45ZM297 432Q237 432 191 389T128 280H430Q431 343 393 387T297 432Z" />
<glyph unicode="f" glyph-name="f" horiz-adv-x="362" d="M80 488H184L209 605Q224 672 265 708T368 745Q390 745 409 742T444 731L431 666Q415 673 400 676T366 679Q329 679 309 661T280 599L256 488H395L381 428H243L152 0H80L171 428H66L80 488Z" />
<glyph unicode="g" glyph-name="g" horiz-adv-x="565" d="M246 -6Q204 -6 168 10T106 56T66 126T51 214Q51 271 71 322T125 411T205 471T303 493Q352 493 392 473T458 415L473 488H544L432 -49Q415 -130 363 -173T232 -216Q179 -216 122 -196T23 -143L61 -90Q104
-121 145 -136T228 -152Q282 -152 317 -124T363 -43L382 48Q354 22 320 8T246 -6ZM122 220Q122 148 163 102T271 56Q305 56 336 68T394 105L446 357Q426 390 390 409T312 429Q272 429 238 413T178 368T137 302T122 220Z" />
<glyph unicode="h" glyph-name="h" horiz-adv-x="542" d="M21 0L170 715L245 730L179 411Q213 453 252 474T337 495Q419 495 460 440T482 300L418 0H346L408 285Q423 352 395 393T306 435Q266 435 230 416T168 361L93 0H21Z" />
<glyph unicode="i" glyph-name="i" horiz-adv-x="220" d="M189 608Q169 608 156 621T143 655Q143 677 160 695T200 713Q219 713 232 699T246 666Q246 643 229 626T189 608ZM199 488L93 0H21L128 488H199Z" />
<glyph unicode="j" glyph-name="j" horiz-adv-x="220" d="M189 608Q169 608 156 621T143 655Q143 677 160 695T200 713Q219 713 232 699T246 666Q246 643 229 626T189 608ZM-62 -212Q-75 -212 -89 -210T-114 -204L-100 -141Q-93 -144 -83 -145T-60 -147Q-33 -147
-18 -133T5 -86L128 488H200L74 -93Q63 -150 27 -181T-62 -212Z" />
<glyph unicode="k" glyph-name="k" horiz-adv-x="478" d="M21 0L171 715L245 730L150 273L421 488H517L213 250L415 0H330L142 236L93 0H21Z" />
<glyph unicode="l" glyph-name="l" horiz-adv-x="220" d="M245 730L93 0H21L171 715L245 730Z" />
<glyph unicode="m" glyph-name="m" horiz-adv-x="828" d="M21 0L128 488H199L183 413Q217 454 254 474T332 495Q383 495 418 468T465 396Q505 446 548 470T639 495Q713 495 750 441T769 306L703 0H632L696 298Q709 358 684 396T606 435Q570 435 537 416T470 354Q470
343 469 331T465 306L399 0H327L390 291Q404 354 379 394T301 435Q265 435 233 417T172 363L93 0H21Z" />
<glyph unicode="n" glyph-name="n" horiz-adv-x="542" d="M21 0L128 488H199L184 417Q216 456 255 475T337 495Q419 495 460 440T482 300L418 0H346L408 285Q423 352 395 393T306 435Q269 435 235 418T173 367L93 0H21Z" />
<glyph unicode="o" glyph-name="o" horiz-adv-x="570" d="M51 218Q51 275 71 326T126 415T207 475T307 497Q400 497 459 433T518 269Q518 212 498 161T443 72T361 12T261 -10Q215 -10 177 7T110 54T67 126T51 218ZM265 55Q303 55 336 72T393 117T432 185T446 269Q446
341 407 387T304 433Q266 433 233 416T176 370T137 302T122 219Q122 147 162 101T265 55Z" />
<glyph unicode="p" glyph-name="p" horiz-adv-x="571" d="M-22 -209L128 488H198L187 436Q215 463 250 477T325 492Q367 492 403 476T464 430T505 359T520 271Q520 214 500 163T446 74T365 14T267 -8Q217 -8 177 13T111 74L50 -209H-22ZM299 430Q265 430 234 417T176
380L123 133Q142 99 178 78T258 56Q298 56 333 72T393 117T434 183T449 265Q449 338 407 384T299 430Z" />
<glyph unicode="q" glyph-name="q" horiz-adv-x="571" d="M245 -7Q203 -7 168 10T106 56T66 126T51 214Q51 271 71 322T125 411T205 471T303 493Q353 493 393 472T460 410L477 488H549L399 -209H327L382 47Q354 21 320 7T245 -7ZM122 220Q122 148 163 102T271
56Q305 56 337 68T395 106L448 353Q429 387 392 408T312 429Q272 429 238 413T178 368T137 302T122 220Z" />
<glyph unicode="r" glyph-name="r" horiz-adv-x="344" d="M19 0L126 488H198L178 399Q206 446 244 471T325 497Q338 497 352 495T376 488L361 422Q352 427 337 430T306 433Q266 433 230 410T166 342L91 0H19Z" />
<glyph unicode="s" glyph-name="s" horiz-adv-x="443" d="M3 76L47 122Q90 81 125 65T205 49Q254 49 287 75T321 139Q321 164 304 180T247 208L170 228Q113 244 85 275T57 353Q57 416 105 456T229 497Q281 497 329 479T420 423L376 374Q340 404 301 420T225 437Q179
437 151 416T122 360Q122 333 138 317T192 290L270 268Q333 250 361 222T389 148Q389 81 336 36T204 -10Q145 -10 94 12T3 76Z" />
<glyph unicode="t" glyph-name="t" horiz-adv-x="371" d="M103 117L169 428H71L85 488H182L210 622L287 639L254 488H392L378 428H241L177 133Q168 91 183 73T244 55Q256 55 267 57T300 65L286 0Q269 -4 251 -6T215 -9Q149 -9 120 24T103 117Z" />
<glyph unicode="u" glyph-name="u" horiz-adv-x="541" d="M195 488L132 203Q117 136 145 95T234 53Q271 53 305 70T367 121L447 488H519L413 0H341L356 70Q323 32 285 13T203 -7Q122 -7 81 49T58 189L123 488H195Z" />
<glyph unicode="v" glyph-name="v" horiz-adv-x="491" d="M156 0L68 488H143L210 91L448 488H528L224 0H156Z" />
<glyph unicode="w" glyph-name="w" horiz-adv-x="684" d="M176 0H106L81 488H149L165 98L362 488H426L457 98L639 488H710L473 0H403L374 393L176 0Z" />
<glyph unicode="x" glyph-name="x" horiz-adv-x="477" d="M-43 0L200 257L79 488H159L251 304L421 488H507L279 249L409 0H330L229 199L45 0H-43Z" />
<glyph unicode="y" glyph-name="y" horiz-adv-x="489" d="M107 -82L152 -5L68 488H144L207 84L445 488H526L173 -106Q139 -160 103 -184T18 -208Q7 -208 -6 -206T-37 -198L-24 -133Q-10 -136 0 -137T17 -139Q46 -139 67 -125T107 -82Z" />
<glyph unicode="z" glyph-name="z" horiz-adv-x="449" d="M-14 0L-2 58L347 422L82 421L95 488H456L444 431L94 65L367 66L353 0H-14Z" />
<glyph unicode="{" glyph-name="braceleft" horiz-adv-x="386" d="M213 78L144 -39Q113 -90 123 -125T179 -165Q193 -166 206 -164T236 -157L237 -215Q215 -221 198 -223T163 -224Q122 -222 95 -205T58 -160T54 -96T86 -18L146 79Q180 133 168 173T106 213H32L45
274H119Q171 274 198 311T215 404L194 517Q186 559 194 595T224 656T278 696T352 707Q373 706 391 702T428 688L402 632Q388 639 374 642T346 647Q298 649 273 617T257 530L279 396Q288 340 258 296T172 239Q221 220 232 175T213 78Z" />
<glyph unicode="|" glyph-name="bar" horiz-adv-x="285" d="M14 -206L206 700H272L79 -206H14Z" />
<glyph unicode="}" glyph-name="braceright" horiz-adv-x="386" d="M169 408L238 525Q269 576 259 611T203 651Q189 652 176 650T146 643L145 701Q167 707 184 709T219 710Q260 708 287 691T324 646T328 582T296 504L236 407Q202 353 214 313T276 273H350L337
212H263Q211 212 184 175T167 82L188 -31Q196 -73 188 -109T158 -170T104 -210T30 -221Q9 -220 -9 -216T-46 -202L-20 -146Q-6 -153 8 -156T36 -161Q84 -163 109 -131T125 -44L103 90Q94 146 124 190T210 247Q161 266 150 311T169 408Z" />
<glyph unicode="~" glyph-name="asciitilde" horiz-adv-x="569" d="M304 421L367 379Q389 365 401 360T425 355Q451 355 471 376T506 439L559 426Q538 362 504 328T426 293Q404 293 384 301T330 330L267 372Q245 386 233 390T208 395Q183 395 163 374T129 312L75
325Q96 388 131 422T209 457Q229 457 250 450T304 421Z" />
<glyph unicode="&#xa0;" glyph-name="nbspace" horiz-adv-x="233" />
<glyph unicode="&#xa1;" glyph-name="exclamdown" horiz-adv-x="214" d="M190 499L87 -13H13L133 499H190ZM199 712Q219 712 232 698T246 664Q246 641 229 624T188 606Q168 606 155 620T142 653Q142 676 159 694T199 712Z" />
<glyph unicode="&#xa2;" glyph-name="cent" horiz-adv-x="510" d="M182 -118L206 -2Q137 15 94 72T51 210Q51 268 72 320T129 410T212 471T312 494L336 609H385L360 490Q403 482 440 459T499 401L445 356Q426 384 401 401T346 425L267 55H272Q308 55 342 68T404
103L438 56Q400 24 354 8T261 -9H253L230 -118H182ZM122 214Q122 161 150 121T221 64L297 427Q261 424 229 406T174 359T136 293T122 214Z" />
<glyph unicode="&#xa3;" glyph-name="sterling" horiz-adv-x="606" d="M159 31Q110 45 75 34T10 -18L-36 23Q-3 63 33 82T113 102Q135 112 148 135T162 192L168 312H66L79 369H170L174 447Q176 565 235 635T390 706Q482 706 535 656T596 513L530 499Q526 571 490
607T387 644Q321 644 283 595T243 458L239 369H433L420 312H237L232 206Q231 168 218 138T182 92L184 91L368 41Q413 29 446 39T507 83L553 44Q510 -8 458 -23T337 -19L159 31Z" />
<glyph unicode="&#xa4;" glyph-name="uni00A4" horiz-adv-x="701" d="M95 64L56 104L149 198Q124 231 110 273T95 361Q95 407 109 448T150 523L56 618L96 659L190 564Q223 591 264 606T351 621Q397 621 438 606T512 564L606 659L645 619L550 524Q576 491 591 450T606
361Q606 315 592 274T552 199L646 104L606 63L512 157Q479 130 438 115T351 100Q305 100 263 115T188 158L95 64ZM351 166Q389 166 422 181T480 222T519 284T533 361Q533 402 519 437T481 499T423 540T351 555Q313 555 280 540T222 499T183 438T168 361Q168 320
182 285T220 223T279 181T351 166Z" />
<glyph unicode="&#xa5;" glyph-name="yen" horiz-adv-x="642" d="M224 0L258 158H85L96 209H268L285 286H113L123 338H263L107 700H187L334 353L627 700H717L407 338H544L534 286H363L360 283L344 209H517L506 158H333L300 0H224Z" />
<glyph unicode="&#xa6;" glyph-name="uni00A6" horiz-adv-x="294" d="M189 287H121L209 700H277L189 287ZM16 -206L104 207H172L84 -206H16Z" />
<glyph unicode="&#xa7;" glyph-name="section" horiz-adv-x="556" d="M403 94Q403 30 358 -10T241 -51Q193 -51 145 -33T57 17L96 66Q136 35 173 20T246 5Q288 5 313 27T338 86Q338 109 325 127T284 159L190 206Q135 234 111 264T87 334Q87 389 125 428T226 479Q208
496 199 518T190 565Q190 629 235 669T352 710Q398 710 446 692T535 642L496 593Q456 624 419 639T347 654Q305 654 280 632T254 573Q254 550 267 532T309 500L403 453Q458 425 482 396T506 326Q506 269 469 230T368 178Q386 161 394 140T403 94ZM218 264L316 215Q371
217 406 244T442 312Q442 337 426 357T375 396L280 442Q224 441 188 415T151 348Q151 322 167 302T218 264Z" />
<glyph unicode="&#xa8;" glyph-name="dieresis" horiz-adv-x="533" d="M256 593Q238 593 226 606T213 639Q213 661 229 678T268 696Q286 696 299 683T312 650Q312 628 295 611T256 593ZM434 593Q416 593 403 606T390 639Q390 661 407 678T445 696Q463 696 476
683T489 650Q489 628 473 611T434 593Z" />
<glyph unicode="&#xa9;" glyph-name="copyright" horiz-adv-x="784" d="M73 311Q73 391 102 463T182 589T300 674T443 706Q510 706 567 682T665 616T730 514T754 386Q754 306 725 234T645 108T527 23T384 -9Q317 -9 260 15T162 81T97 183T73 311ZM709 381Q709
442 689 494T633 583T548 642T440 663Q375 663 317 635T215 560T145 449T119 315Q119 255 139 203T194 114T278 55T384 33Q450 33 509 61T612 137T683 248T709 381ZM249 328Q249 369 264 406T306 472T368 516T441 533Q483 533 520 514T577 462L535 426Q519 452
493 467T438 482Q411 482 387 470T344 437T314 389T303 332Q303 283 333 251T409 219Q431 219 453 228T499 254L522 212Q496 190 465 179T401 167Q336 167 293 213T249 328Z" />
<glyph unicode="&#xaa;" glyph-name="ordfeminine" horiz-adv-x="400" d="M203 319Q146 319 111 348T75 425Q75 481 118 515T230 549Q261 549 292 541T348 517L357 559Q368 608 346 632T269 657Q247 657 221 651T157 629L141 677Q180 693 214 701T280 709Q358
709 394 670T417 562L366 325H307L313 355Q288 336 261 328T203 319ZM134 431Q134 400 157 383T221 366Q249 366 275 375T324 403L338 471Q316 487 290 495T231 504Q188 504 161 484T134 431Z" />
<glyph unicode="&#xab;" glyph-name="guillemotleft" horiz-adv-x="625" d="M393 488L123 241L283 0H208L43 245L315 488H393ZM617 488L347 241L507 0H432L267 245L539 488H617Z" />
<glyph unicode="&#xac;" glyph-name="uni00AC" horiz-adv-x="567" d="M73 314H522L455 0H389L442 248H59L73 314Z" />
<glyph unicode="&#xad;" glyph-name="uni00AD" horiz-adv-x="457" d="M74 313H399L385 250H59L74 313Z" />
<glyph unicode="&#xae;" glyph-name="registered" horiz-adv-x="486" d="M278 312Q206 312 159 362T111 488Q111 534 128 575T173 647T240 696T321 714Q393 714 440 664T488 538Q488 492 471 451T426 379T359 330T278 312ZM282 346Q317 346 348 361T402 402T438
462T452 536Q452 600 415 640T317 680Q282 680 251 665T197 624T161 564T147 490Q147 426 184 386T282 346ZM216 420L256 608H320Q345 608 359 594T373 555Q373 536 361 519T330 495L355 420H321L296 491H263L248 420H216ZM313 580H283L269 517H306Q322 517 331
526T340 552Q340 566 334 573T313 580Z" />
<glyph unicode="&#xaf;" glyph-name="overscore" horiz-adv-x="513" d="M483 663L472 611H205L216 663H483Z" />
<glyph unicode="&#xb0;" glyph-name="degree" horiz-adv-x="393" d="M249 423Q195 423 159 459T123 551Q123 582 135 610T169 660T218 694T278 707Q332 707 368 671T404 579Q404 548 392 520T358 470T309 436T249 423ZM252 471Q294 471 324 501T354 574Q354 611
332 635T275 659Q233 659 203 629T173 556Q173 519 195 495T252 471Z" />
<glyph unicode="&#xb1;" glyph-name="plusminus" horiz-adv-x="519" d="M272 173H213L251 350H87L100 412H264L301 585H360L323 412H487L474 350H310L272 173ZM412 60L400 -1H12L25 60H412Z" />
<glyph unicode="&#xb2;" glyph-name="twosuperior" horiz-adv-x="286" d="M48 350L56 387L234 530Q259 549 271 568T284 608Q284 631 266 645T220 660Q198 660 177 651T127 622L105 659Q137 681 168 693T229 705Q275 705 305 681T335 617Q335 586 320 560T267
506L126 393H295L286 350H48Z" />
<glyph unicode="&#xb3;" glyph-name="threesuperior" horiz-adv-x="306" d="M319 453Q319 408 280 377T184 345Q142 345 110 358T54 399L88 434Q108 413 133 402T187 390Q221 390 245 407T270 450Q270 475 251 490T201 505H170L178 546H206Q243 546 267 563T291
606Q291 629 273 644T226 659Q205 659 183 651T132 627L110 666Q141 685 172 695T233 705Q280 705 311 680T343 614Q343 583 318 559T253 526Q284 518 301 499T319 453Z" />
<glyph unicode="&#xb4;" glyph-name="acute" horiz-adv-x="513" d="M382 706H483L317 584H247L382 706Z" />
<glyph unicode="&#xb5;" glyph-name="uni00B5" horiz-adv-x="569" d="M197 501L133 199Q119 133 149 94T243 55Q288 55 327 75T397 133L475 501H549L443 0H369L381 58Q345 24 302 7T210 -10Q175 -10 146 -1T97 27L47 -205H-26L124 501H197Z" />
<glyph unicode="&#xb6;" glyph-name="paragraph" horiz-adv-x="639" d="M258 0L319 289H288Q204 289 153 338T102 468Q102 518 119 561T166 634T238 682T330 700H647L498 0H433L495 289H384L323 0H258ZM508 352L569 637H458L398 352H508ZM294 352H333L393 637H324Q256
637 213 592T169 476Q169 419 203 386T294 352Z" />
<glyph unicode="&#xb7;" glyph-name="middot" horiz-adv-x="219" d="M125 338Q144 338 157 324T171 289Q171 266 154 248T114 229Q94 229 81 243T67 278Q67 302 84 320T125 338Z" />
<glyph unicode="&#xb8;" glyph-name="cedilla" horiz-adv-x="512" d="M306 -138Q306 -181 273 -210T190 -239Q156 -239 128 -228T84 -197L115 -167Q130 -183 148 -191T188 -199Q221 -199 240 -184T260 -144Q260 -123 243 -111T196 -99H168L212 0H254L225 -66Q263
-70 284 -88T306 -138Z" />
<glyph unicode="&#xb9;" glyph-name="onesuperior" horiz-adv-x="162" d="M228 700L153 350H103L167 646L99 620L109 665L196 700H228Z" />
<glyph unicode="&#xba;" glyph-name="ordmasculine" horiz-adv-x="455" d="M92 498Q92 541 108 579T153 647T218 693T297 710Q372 710 423 659T474 529Q474 486 458 448T413 380T348 334T270 317Q194 317 143 368T92 498ZM414 526Q414 581 379 618T293 655Q236
655 194 610T152 501Q152 446 187 409T273 372Q330 372 372 418T414 526Z" />
<glyph unicode="&#xbb;" glyph-name="guillemotright" horiz-adv-x="624" d="M231 0L501 247L341 488H416L581 243L309 0H231ZM8 0L278 247L118 488H193L358 243L86 0H8Z" />
<glyph unicode="&#xbc;" glyph-name="onequarter" horiz-adv-x="603" d="M559 350L512 130H554L544 88H503L484 0H434L453 88H261L269 129L502 350H559ZM326 130H462L496 292L326 130ZM228 700L153 350H103L167 646L99 620L109 665L196 700H228ZM306 0H252L786
700H843L306 0Z" />
<glyph unicode="&#xbd;" glyph-name="onehalf" horiz-adv-x="637" d="M228 700L153 350H103L167 646L99 620L109 665L196 700H228ZM301 0H247L781 700H838L301 0ZM320 0L328 37L506 180Q531 199 543 218T556 258Q556 281 538 295T492 310Q470 310 449 301T399
272L377 309Q409 331 440 343T501 355Q547 355 577 331T607 267Q607 236 592 210T539 156L398 43H567L558 0H320Z" />
<glyph unicode="&#xbe;" glyph-name="threequarters" horiz-adv-x="697" d="M319 453Q319 408 280 377T184 345Q142 345 110 358T54 399L88 434Q108 413 133 402T187 390Q221 390 245 407T270 450Q270 475 251 490T201 505H170L178 546H206Q243 546 267 563T291
606Q291 629 273 644T226 659Q205 659 183 651T132 627L110 666Q141 685 172 695T233 705Q280 705 311 680T343 614Q343 583 318 559T253 526Q284 518 301 499T319 453ZM653 350L606 130H648L638 88H597L578 0H528L547 88H355L363 129L596 350H653ZM420 130H556L590
292L420 130ZM143 0H89L623 700H680L143 0Z" />
<glyph unicode="&#xbf;" glyph-name="questiondown" horiz-adv-x="501" d="M164 332L223 367Q263 390 283 420T311 496H372Q362 430 335 389T256 318L194 282Q154 257 132 225T109 158Q109 116 143 89T232 62Q275 62 317 83T397 141L442 100Q394 50 337 23T222
-4Q141 -4 90 38T38 149Q38 204 68 248T164 332ZM365 605Q346 605 333 619T320 652Q320 675 337 693T377 711Q397 711 410 697T423 663Q423 640 406 623T365 605Z" />
<glyph unicode="&#xc0;" glyph-name="Agrave" horiz-adv-x="647" d="M-44 0L372 700H463L585 0H508L472 220H168L41 0H-44ZM203 281H462L404 631L203 281ZM366 918L475 796H408L266 918H366Z" />
<glyph unicode="&#xc1;" glyph-name="Aacute" horiz-adv-x="647" d="M-44 0L372 700H463L585 0H508L472 220H168L41 0H-44ZM203 281H462L404 631L203 281ZM522 918H623L457 796H387L522 918Z" />
<glyph unicode="&#xc2;" glyph-name="Acircumflex" horiz-adv-x="647" d="M-44 0L372 700H463L585 0H508L472 220H168L41 0H-44ZM203 281H462L404 631L203 281ZM529 791L455 879L345 791H284L421 918H498L585 791H529Z" />
<glyph unicode="&#xc3;" glyph-name="Atilde" horiz-adv-x="647" d="M-44 0L372 700H463L585 0H508L472 220H168L41 0H-44ZM203 281H462L404 631L203 281ZM318 797L269 812Q292 859 319 883T376 908Q398 908 417 898T454 877T486 855T517 845Q532 845 543 857T570
905L619 890Q597 843 571 819T515 794Q493 794 474 803T438 825T406 846T375 856Q358 856 345 843T318 797Z" />
<glyph unicode="&#xc4;" glyph-name="Adieresis" horiz-adv-x="647" d="M-44 0L372 700H463L585 0H508L472 220H168L41 0H-44ZM203 281H462L404 631L203 281ZM351 805Q333 805 321 818T308 851Q308 873 324 890T363 908Q381 908 394 895T407 862Q407 840 390 823T351
805ZM529 805Q511 805 498 818T485 851Q485 873 502 890T540 908Q558 908 571 895T584 862Q584 840 568 823T529 805Z" />
<glyph unicode="&#xc5;" glyph-name="Aring" horiz-adv-x="647" d="M-44 0L372 700H463L585 0H508L472 220H168L41 0H-44ZM203 281H462L404 631L203 281ZM440 784Q397 784 369 811T341 882Q341 931 377 968T461 1006Q505 1006 533 979T561 908Q561 859 525 822T440
784ZM442 824Q473 824 496 848T519 904Q519 930 502 947T459 965Q428 965 405 942T382 885Q382 859 399 842T442 824Z" />
<glyph unicode="&#xc6;" glyph-name="AE" horiz-adv-x="900" d="M-44 0L373 700H947L933 632H481L519 387H751L736 320H530L569 68H813L799 0H505L471 220H166L37 0H-44ZM201 281H461L406 631L201 281Z" />
<glyph unicode="&#xc7;" glyph-name="Ccedilla" horiz-adv-x="713" d="M406 58Q464 58 520 81T619 147L659 95Q604 44 537 17T401 -11H400L376 -66Q414 -70 435 -88T457 -138Q457 -181 424 -210T341 -239Q307 -239 279 -228T235 -197L266 -167Q281 -183 299 -191T339
-199Q372 -199 391 -184T411 -144Q411 -123 394 -111T347 -99H319L359 -9Q298 -2 246 26T156 97T97 198T76 320Q76 400 106 471T186 595T306 679T451 710Q534 710 600 678T710 584L653 534Q621 584 567 612T447 640Q386 640 332 616T239 548T176 447T153 323Q153
266 172 217T224 133T305 78T406 58Z" />
<glyph unicode="&#xc8;" glyph-name="Egrave" horiz-adv-x="607" d="M34 0L183 700H651L636 633H244L191 387H464L450 320H177L123 67H520L506 0H34ZM362 918L471 796H404L262 918H362Z" />
<glyph unicode="&#xc9;" glyph-name="Eacute" horiz-adv-x="607" d="M34 0L183 700H651L636 633H244L191 387H464L450 320H177L123 67H520L506 0H34ZM518 918H619L453 796H383L518 918Z" />
<glyph unicode="&#xca;" glyph-name="Ecircumflex" horiz-adv-x="607" d="M34 0L183 700H651L636 633H244L191 387H464L450 320H177L123 67H520L506 0H34ZM525 791L451 879L341 791H280L417 918H494L581 791H525Z" />
<glyph unicode="&#xcb;" glyph-name="Edieresis" horiz-adv-x="607" d="M34 0L183 700H651L636 633H244L191 387H464L450 320H177L123 67H520L506 0H34ZM347 805Q329 805 317 818T304 851Q304 873 320 890T359 908Q377 908 390 895T403 862Q403 840 386 823T347
805ZM525 805Q507 805 494 818T481 851Q481 873 498 890T536 908Q554 908 567 895T580 862Q580 840 564 823T525 805Z" />
<glyph unicode="&#xcc;" glyph-name="Igrave" horiz-adv-x="247" d="M32 0L181 700H256L107 0H32ZM171 918L280 796H213L71 918H171Z" />
<glyph unicode="&#xcd;" glyph-name="Iacute" horiz-adv-x="247" d="M32 0L181 700H256L107 0H32ZM327 918H428L262 796H192L327 918Z" />
<glyph unicode="&#xce;" glyph-name="Icircumflex" horiz-adv-x="247" d="M32 0L181 700H256L107 0H32ZM334 791L260 879L150 791H89L226 918H303L390 791H334Z" />
<glyph unicode="&#xcf;" glyph-name="Idieresis" horiz-adv-x="247" d="M32 0L181 700H256L107 0H32ZM155 805Q137 805 125 818T112 851Q112 873 128 890T167 908Q185 908 198 895T211 862Q211 840 194 823T155 805ZM333 805Q315 805 302 818T289 851Q289 873
306 890T344 908Q362 908 375 895T388 862Q388 840 372 823T333 805Z" />
<glyph unicode="&#xd0;" glyph-name="Eth" horiz-adv-x="747" d="M64 0L131 317H37L51 383H146L213 700H412Q479 700 534 678T629 615T689 517T711 391Q711 311 680 240T597 115T473 31T321 0H64ZM409 631H273L221 383H384L370 317H206L154 69H332Q394 69 449
94T545 162T609 264T633 389Q633 497 571 564T409 631Z" />
<glyph unicode="&#xd1;" glyph-name="Ntilde" horiz-adv-x="725" d="M182 700H260L540 113L661 700H732L584 0H516L229 599L105 0H34L182 700ZM355 797L306 812Q329 859 356 883T413 908Q435 908 454 898T491 877T523 855T554 845Q569 845 580 857T607 905L656
890Q634 843 608 819T552 794Q530 794 511 803T475 825T443 846T412 856Q395 856 382 843T355 797Z" />
<glyph unicode="&#xd2;" glyph-name="Ograve" horiz-adv-x="795" d="M759 380Q759 301 730 230T651 105T534 21T392 -11Q325 -11 267 14T166 84T100 189T75 320Q75 399 104 470T183 595T300 679T442 711Q510 711 568 686T668 616T735 511T759 380ZM683 376Q683
433 665 481T613 565T535 621T438 641Q379 641 327 616T235 547T174 447T151 324Q151 268 169 219T221 135T299 80T397 59Q456 59 508 84T599 152T660 253T683 376ZM402 918L511 796H444L302 918H402Z" />
<glyph unicode="&#xd3;" glyph-name="Oacute" horiz-adv-x="795" d="M759 380Q759 301 730 230T651 105T534 21T392 -11Q325 -11 267 14T166 84T100 189T75 320Q75 399 104 470T183 595T300 679T442 711Q510 711 568 686T668 616T735 511T759 380ZM683 376Q683
433 665 481T613 565T535 621T438 641Q379 641 327 616T235 547T174 447T151 324Q151 268 169 219T221 135T299 80T397 59Q456 59 508 84T599 152T660 253T683 376ZM558 918H659L493 796H423L558 918Z" />
<glyph unicode="&#xd4;" glyph-name="Ocircumflex" horiz-adv-x="795" d="M759 380Q759 301 730 230T651 105T534 21T392 -11Q325 -11 267 14T166 84T100 189T75 320Q75 399 104 470T183 595T300 679T442 711Q510 711 568 686T668 616T735 511T759 380ZM683 376Q683
433 665 481T613 565T535 621T438 641Q379 641 327 616T235 547T174 447T151 324Q151 268 169 219T221 135T299 80T397 59Q456 59 508 84T599 152T660 253T683 376ZM565 791L491 879L381 791H320L457 918H534L621 791H565Z" />
<glyph unicode="&#xd5;" glyph-name="Otilde" horiz-adv-x="795" d="M759 380Q759 301 730 230T651 105T534 21T392 -11Q325 -11 267 14T166 84T100 189T75 320Q75 399 104 470T183 595T300 679T442 711Q510 711 568 686T668 616T735 511T759 380ZM683 376Q683
433 665 481T613 565T535 621T438 641Q379 641 327 616T235 547T174 447T151 324Q151 268 169 219T221 135T299 80T397 59Q456 59 508 84T599 152T660 253T683 376ZM354 797L305 812Q328 859 355 883T412 908Q434 908 453 898T490 877T522 855T553 845Q568 845
579 857T606 905L655 890Q633 843 607 819T551 794Q529 794 510 803T474 825T442 846T411 856Q394 856 381 843T354 797Z" />
<glyph unicode="&#xd6;" glyph-name="Odieresis" horiz-adv-x="795" d="M759 380Q759 301 730 230T651 105T534 21T392 -11Q325 -11 267 14T166 84T100 189T75 320Q75 399 104 470T183 595T300 679T442 711Q510 711 568 686T668 616T735 511T759 380ZM683 376Q683
433 665 481T613 565T535 621T438 641Q379 641 327 616T235 547T174 447T151 324Q151 268 169 219T221 135T299 80T397 59Q456 59 508 84T599 152T660 253T683 376ZM387 805Q369 805 357 818T344 851Q344 873 360 890T399 908Q417 908 430 895T443 862Q443 840
426 823T387 805ZM565 805Q547 805 534 818T521 851Q521 873 538 890T576 908Q594 908 607 895T620 862Q620 840 604 823T565 805Z" />
<glyph unicode="&#xd7;" glyph-name="multiply" horiz-adv-x="537" d="M107 161L75 203L254 361L142 519L187 556L298 400L474 556L506 514L328 357L440 199L394 162L284 318L107 161Z" />
<glyph unicode="&#xd8;" glyph-name="Oslash" horiz-adv-x="795" d="M99 -5H22L141 113Q110 155 93 208T75 320Q75 399 104 470T183 595T300 679T442 711Q505 711 560 689T657 627L736 705H814L694 586Q725 544 742 492T759 380Q759 301 730 230T651 105T534 21T392
-11Q329 -11 274 11T177 73L99 -5ZM151 324Q151 280 162 240T196 168L604 574Q572 605 530 623T438 641Q379 641 327 616T235 547T174 447T151 324ZM683 376Q683 420 672 460T639 532L230 125Q262 94 305 77T397 59Q456 59 508 84T599 152T660 253T683 376Z" />
<glyph unicode="&#xd9;" glyph-name="Ugrave" horiz-adv-x="698" d="M631 289Q600 145 520 67T322 -11Q255 -11 204 12T122 77T80 176T85 303L169 700H245L159 299Q148 246 154 202T183 127T241 77T325 59Q410 59 471 121T557 293L644 700H719L631 289ZM390 918L499
796H432L290 918H390Z" />
<glyph unicode="&#xda;" glyph-name="Uacute" horiz-adv-x="698" d="M631 289Q600 145 520 67T322 -11Q255 -11 204 12T122 77T80 176T85 303L169 700H245L159 299Q148 246 154 202T183 127T241 77T325 59Q410 59 471 121T557 293L644 700H719L631 289ZM546 918H647L481
796H411L546 918Z" />
<glyph unicode="&#xdb;" glyph-name="Ucircumflex" horiz-adv-x="698" d="M631 289Q600 145 520 67T322 -11Q255 -11 204 12T122 77T80 176T85 303L169 700H245L159 299Q148 246 154 202T183 127T241 77T325 59Q410 59 471 121T557 293L644 700H719L631 289ZM552
791L478 879L368 791H307L444 918H521L608 791H552Z" />
<glyph unicode="&#xdc;" glyph-name="Udieresis" horiz-adv-x="698" d="M631 289Q600 145 520 67T322 -11Q255 -11 204 12T122 77T80 176T85 303L169 700H245L159 299Q148 246 154 202T183 127T241 77T325 59Q410 59 471 121T557 293L644 700H719L631 289ZM374
805Q356 805 344 818T331 851Q331 873 347 890T386 908Q404 908 417 895T430 862Q430 840 413 823T374 805ZM552 805Q534 805 521 818T508 851Q508 873 525 890T563 908Q581 908 594 895T607 862Q607 840 591 823T552 805Z" />
<glyph unicode="&#xdd;" glyph-name="Yacute" horiz-adv-x="633" d="M224 0L285 287L107 700H187L334 353L627 700H717L360 283L300 0H224ZM507 918H608L442 796H372L507 918Z" />
<glyph unicode="&#xde;" glyph-name="Thorn" horiz-adv-x="650" d="M34 0L183 700H258L227 553H407Q508 553 561 509T614 381Q614 277 545 215T359 152H141L109 0H34ZM396 485H212L155 217H358Q444 217 491 259T539 376Q539 431 504 458T396 485Z" />
<glyph unicode="&#xdf;" glyph-name="germandbls" horiz-adv-x="620" d="M359 361Q359 344 369 331T402 307L466 276Q520 251 545 220T570 146Q570 78 520 33T394 -12Q336 -12 290 10T209 75L257 118Q281 83 316 65T395 46Q444 46 473 72T503 141Q503 168 486
187T426 225L360 254Q324 270 307 295T289 351Q289 406 324 433T400 480T476 525T511 601Q511 642 474 671T384 701Q310 701 263 657T198 527L90 0H20L128 533Q150 643 217 704T386 765Q471 765 526 720T582 603Q582 539 547 506T471 452T394 413T359 361Z" />
<glyph unicode="&#xe0;" glyph-name="agrave" horiz-adv-x="516" d="M191 -7Q119 -7 74 30T29 130Q29 199 81 243T216 287Q263 287 304 275T377 240L390 299Q405 366 377 400T279 435Q249 435 216 426T139 398L119 455Q167 475 209 485T292 495Q390 495 435 444T462
305L394 0H323L333 46Q299 19 264 6T191 -7ZM98 138Q98 95 128 72T212 48Q248 48 280 60T345 98L366 191Q338 213 303 223T223 233Q169 233 134 206T98 138ZM503 706L612 584H545L403 706H503Z" />
<glyph unicode="&#xe1;" glyph-name="aacute" horiz-adv-x="516" d="M191 -7Q119 -7 74 30T29 130Q29 199 81 243T216 287Q263 287 304 275T377 240L390 299Q405 366 377 400T279 435Q249 435 216 426T139 398L119 455Q167 475 209 485T292 495Q390 495 435 444T462
305L394 0H323L333 46Q299 19 264 6T191 -7ZM98 138Q98 95 128 72T212 48Q248 48 280 60T345 98L366 191Q338 213 303 223T223 233Q169 233 134 206T98 138ZM403 706H504L338 584H268L403 706Z" />
<glyph unicode="&#xe2;" glyph-name="acircumflex" horiz-adv-x="516" d="M191 -7Q119 -7 74 30T29 130Q29 199 81 243T216 287Q263 287 304 275T377 240L390 299Q405 366 377 400T279 435Q249 435 216 426T139 398L119 455Q167 475 209 485T292 495Q390 495 435
444T462 305L394 0H323L333 46Q299 19 264 6T191 -7ZM98 138Q98 95 128 72T212 48Q248 48 280 60T345 98L366 191Q338 213 303 223T223 233Q169 233 134 206T98 138ZM666 579L592 667L482 579H421L558 706H635L722 579H666Z" />
<glyph unicode="&#xe3;" glyph-name="atilde" horiz-adv-x="516" d="M191 -7Q119 -7 74 30T29 130Q29 199 81 243T216 287Q263 287 304 275T377 240L390 299Q405 366 377 400T279 435Q249 435 216 426T139 398L119 455Q167 475 209 485T292 495Q390 495 435 444T462
305L394 0H323L333 46Q299 19 264 6T191 -7ZM98 138Q98 95 128 72T212 48Q248 48 280 60T345 98L366 191Q338 213 303 223T223 233Q169 233 134 206T98 138ZM455 585L406 600Q429 647 456 671T513 696Q535 696 554 686T591 665T623 643T654 633Q669 633 680 645T707
693L756 678Q734 631 708 607T652 582Q630 582 611 591T575 613T543 634T512 644Q495 644 482 631T455 585Z" />
<glyph unicode="&#xe4;" glyph-name="adieresis" horiz-adv-x="516" d="M191 -7Q119 -7 74 30T29 130Q29 199 81 243T216 287Q263 287 304 275T377 240L390 299Q405 366 377 400T279 435Q249 435 216 426T139 398L119 455Q167 475 209 485T292 495Q390 495 435
444T462 305L394 0H323L333 46Q299 19 264 6T191 -7ZM98 138Q98 95 128 72T212 48Q248 48 280 60T345 98L366 191Q338 213 303 223T223 233Q169 233 134 206T98 138ZM487 593Q469 593 457 606T444 639Q444 661 460 678T499 696Q517 696 530 683T543 650Q543 628
526 611T487 593ZM665 593Q647 593 634 606T621 639Q621 661 638 678T676 696Q694 696 707 683T720 650Q720 628 704 611T665 593Z" />
<glyph unicode="&#xe5;" glyph-name="aring" horiz-adv-x="516" d="M191 -7Q119 -7 74 30T29 130Q29 199 81 243T216 287Q263 287 304 275T377 240L390 299Q405 366 377 400T279 435Q249 435 216 426T139 398L119 455Q167 475 209 485T292 495Q390 495 435 444T462
305L394 0H323L333 46Q299 19 264 6T191 -7ZM98 138Q98 95 128 72T212 48Q248 48 280 60T345 98L366 191Q338 213 303 223T223 233Q169 233 134 206T98 138ZM577 572Q534 572 506 599T478 670Q478 719 514 756T598 794Q642 794 670 767T698 696Q698 647 662 610T577
572ZM579 612Q610 612 633 636T656 692Q656 718 639 735T596 753Q565 753 542 730T519 673Q519 647 536 630T579 612Z" />
<glyph unicode="&#xe6;" glyph-name="ae" horiz-adv-x="851" d="M201 -7Q127 -7 82 31T36 131Q36 200 87 243T220 287Q260 287 297 278T363 251Q364 261 366 270T370 289L372 300Q384 367 357 401T262 435Q232 435 199 426T122 398L102 455Q151 475 193 485T276
495Q336 495 376 473T432 410Q467 451 514 473T613 496Q698 496 753 435T808 281Q808 268 807 255T805 228H431V218Q431 148 476 101T587 54Q621 54 655 65T715 97L753 45Q711 17 670 4T584 -9Q525 -9 478 14T401 80Q355 36 306 15T201 -7ZM608 432Q548 432 501
389T438 280H740Q741 343 703 387T608 432ZM104 138Q104 95 134 72T218 48Q260 48 300 66T379 120Q372 137 368 157T362 198Q334 216 301 224T227 233Q173 233 139 207T104 138Z" />
<glyph unicode="&#xe7;" glyph-name="ccedilla" horiz-adv-x="497" d="M272 55Q308 55 342 68T404 103L438 56Q401 25 358 9T269 -9L244 -66Q282 -70 303 -88T325 -138Q325 -181 292 -210T209 -239Q175 -239 147 -228T103 -197L134 -167Q149 -183 167 -191T207
-199Q240 -199 259 -184T279 -144Q279 -123 262 -111T215 -99H187L228 -7Q150 4 101 64T51 210Q51 268 72 320T129 410T214 471T316 494Q370 494 420 469T499 401L445 356Q422 391 388 409T313 428Q275 428 240 411T179 365T138 296T122 214Q122 147 165 101T272
55Z" />
<glyph unicode="&#xe8;" glyph-name="egrave" horiz-adv-x="545" d="M443 45Q400 17 359 4T273 -9Q175 -9 113 54T51 216Q51 273 71 324T124 414T204 474T302 496Q387 496 442 435T498 281Q498 268 497 255T495 228H121V218Q121 148 165 101T276 54Q311 54 345
65T405 97L443 45ZM297 432Q237 432 191 389T128 280H430Q431 343 393 387T297 432ZM508 706L617 584H550L408 706H508Z" />
<glyph unicode="&#xe9;" glyph-name="eacute" horiz-adv-x="545" d="M443 45Q400 17 359 4T273 -9Q175 -9 113 54T51 216Q51 273 71 324T124 414T204 474T302 496Q387 496 442 435T498 281Q498 268 497 255T495 228H121V218Q121 148 165 101T276 54Q311 54 345
65T405 97L443 45ZM297 432Q237 432 191 389T128 280H430Q431 343 393 387T297 432ZM408 706H509L343 584H273L408 706Z" />
<glyph unicode="&#xea;" glyph-name="ecircumflex" horiz-adv-x="545" d="M443 45Q400 17 359 4T273 -9Q175 -9 113 54T51 216Q51 273 71 324T124 414T204 474T302 496Q387 496 442 435T498 281Q498 268 497 255T495 228H121V218Q121 148 165 101T276 54Q311 54
345 65T405 97L443 45ZM297 432Q237 432 191 389T128 280H430Q431 343 393 387T297 432ZM671 579L597 667L487 579H426L563 706H640L727 579H671Z" />
<glyph unicode="&#xeb;" glyph-name="edieresis" horiz-adv-x="545" d="M443 45Q400 17 359 4T273 -9Q175 -9 113 54T51 216Q51 273 71 324T124 414T204 474T302 496Q387 496 442 435T498 281Q498 268 497 255T495 228H121V218Q121 148 165 101T276 54Q311 54
345 65T405 97L443 45ZM297 432Q237 432 191 389T128 280H430Q431 343 393 387T297 432ZM493 593Q475 593 463 606T450 639Q450 661 466 678T505 696Q523 696 536 683T549 650Q549 628 532 611T493 593ZM671 593Q653 593 640 606T627 639Q627 661 644 678T682 696Q700
696 713 683T726 650Q726 628 710 611T671 593Z" />
<glyph unicode="&#xec;" glyph-name="igrave" horiz-adv-x="220" d="M199 488L93 0H21L128 488H199ZM115 706L224 584H157L15 706H115Z" />
<glyph unicode="&#xed;" glyph-name="iacute" horiz-adv-x="220" d="M199 488L93 0H21L128 488H199ZM527 706H628L462 584H392L527 706Z" />
<glyph unicode="&#xee;" glyph-name="icircumflex" horiz-adv-x="220" d="M199 488L93 0H21L128 488H199ZM278 579L204 667L94 579H33L170 706H247L334 579H278Z" />
<glyph unicode="&#xef;" glyph-name="idieresis" horiz-adv-x="220" d="M199 488L93 0H21L128 488H199ZM100 593Q82 593 70 606T57 639Q57 661 73 678T112 696Q130 696 143 683T156 650Q156 628 139 611T100 593ZM278 593Q260 593 247 606T234 639Q234 661 251
678T289 696Q307 696 320 683T333 650Q333 628 317 611T278 593Z" />
<glyph unicode="&#xf0;" glyph-name="eth" horiz-adv-x="578" d="M316 527L298 573L391 618Q372 637 350 652T302 679L341 729Q374 713 401 693T451 647L565 703L582 658L481 608Q511 563 526 507T542 385Q542 298 521 226T463 101T374 20T260 -9Q169 -9 111 52T52
208Q52 265 71 314T123 400T201 457T297 478Q364 479 413 443T479 351Q482 418 468 476T423 580L316 527ZM264 55Q301 55 335 72T394 117T435 182T450 261Q450 329 409 374T304 419Q267 419 234 403T175 358T135 292T120 213Q120 144 160 100T264 55Z" />
<glyph unicode="&#xf1;" glyph-name="ntilde" horiz-adv-x="542" d="M21 0L128 488H199L184 417Q216 456 255 475T337 495Q419 495 460 440T482 300L418 0H346L408 285Q423 352 395 393T306 435Q269 435 235 418T173 367L93 0H21ZM225 585L176 600Q199 647 226
671T283 696Q305 696 324 686T361 665T393 643T424 633Q439 633 450 645T477 693L526 678Q504 631 478 607T422 582Q400 582 381 591T345 613T313 634T282 644Q265 644 252 631T225 585Z" />
<glyph unicode="&#xf2;" glyph-name="ograve" horiz-adv-x="570" d="M51 218Q51 275 71 326T126 415T207 475T307 497Q400 497 459 433T518 269Q518 212 498 161T443 72T361 12T261 -10Q215 -10 177 7T110 54T67 126T51 218ZM265 55Q303 55 336 72T393 117T432
185T446 269Q446 341 407 387T304 433Q266 433 233 416T176 370T137 302T122 219Q122 147 162 101T265 55ZM261 706L370 584H303L161 706H261Z" />
<glyph unicode="&#xf3;" glyph-name="oacute" horiz-adv-x="570" d="M51 218Q51 275 71 326T126 415T207 475T307 497Q400 497 459 433T518 269Q518 212 498 161T443 72T361 12T261 -10Q215 -10 177 7T110 54T67 126T51 218ZM265 55Q303 55 336 72T393 117T432
185T446 269Q446 341 407 387T304 433Q266 433 233 416T176 370T137 302T122 219Q122 147 162 101T265 55ZM417 706H518L352 584H282L417 706Z" />
<glyph unicode="&#xf4;" glyph-name="ocircumflex" horiz-adv-x="570" d="M51 218Q51 275 71 326T126 415T207 475T307 497Q400 497 459 433T518 269Q518 212 498 161T443 72T361 12T261 -10Q215 -10 177 7T110 54T67 126T51 218ZM265 55Q303 55 336 72T393 117T432
185T446 269Q446 341 407 387T304 433Q266 433 233 416T176 370T137 302T122 219Q122 147 162 101T265 55ZM424 579L350 667L240 579H179L316 706H393L480 579H424Z" />
<glyph unicode="&#xf5;" glyph-name="otilde" horiz-adv-x="570" d="M51 218Q51 275 71 326T126 415T207 475T307 497Q400 497 459 433T518 269Q518 212 498 161T443 72T361 12T261 -10Q215 -10 177 7T110 54T67 126T51 218ZM265 55Q303 55 336 72T393 117T432
185T446 269Q446 341 407 387T304 433Q266 433 233 416T176 370T137 302T122 219Q122 147 162 101T265 55ZM213 585L164 600Q187 647 214 671T271 696Q293 696 312 686T349 665T381 643T412 633Q427 633 438 645T465 693L514 678Q492 631 466 607T410 582Q388 582
369 591T333 613T301 634T270 644Q253 644 240 631T213 585Z" />
<glyph unicode="&#xf6;" glyph-name="odieresis" horiz-adv-x="570" d="M51 218Q51 275 71 326T126 415T207 475T307 497Q400 497 459 433T518 269Q518 212 498 161T443 72T361 12T261 -10Q215 -10 177 7T110 54T67 126T51 218ZM265 55Q303 55 336 72T393 117T432
185T446 269Q446 341 407 387T304 433Q266 433 233 416T176 370T137 302T122 219Q122 147 162 101T265 55ZM502 593Q484 593 472 606T459 639Q459 661 475 678T514 696Q532 696 545 683T558 650Q558 628 541 611T502 593ZM680 593Q662 593 649 606T636 639Q636
661 653 678T691 696Q709 696 722 683T735 650Q735 628 719 611T680 593Z" />
<glyph unicode="&#xf7;" glyph-name="divide" horiz-adv-x="519" d="M315 492Q296 492 283 506T269 539Q269 562 286 580T327 598Q346 598 359 584T373 551Q373 528 355 510T315 492ZM82 327L95 389H482L469 327H82ZM236 120Q216 120 203 134T189 168Q189 191
206 208T247 226Q266 226 279 213T293 179Q293 156 276 138T236 120Z" />
<glyph unicode="&#xf8;" glyph-name="oslash" horiz-adv-x="570" d="M3 -5L89 81Q71 109 61 143T51 218Q51 275 71 326T126 415T207 475T307 497Q350 497 386 483T451 442L502 493H568L481 406Q499 378 508 344T518 269Q518 212 498 161T443 72T361 12T261 -10Q218
-10 182 4T119 46L68 -5H3ZM122 219Q122 194 127 173T141 132L402 393Q383 412 359 422T304 433Q266 433 233 416T176 370T137 302T122 219ZM265 55Q303 55 336 72T393 117T432 185T446 269Q446 293 442 314T428 354L168 94Q186 75 211 65T265 55Z" />
<glyph unicode="&#xf9;" glyph-name="ugrave" horiz-adv-x="541" d="M195 488L132 203Q117 136 145 95T234 53Q271 53 305 70T367 121L447 488H519L413 0H341L356 70Q323 32 285 13T203 -7Q122 -7 81 49T58 189L123 488H195ZM263 706L372 584H305L163 706H263Z" />
<glyph unicode="&#xfa;" glyph-name="uacute" horiz-adv-x="541" d="M195 488L132 203Q117 136 145 95T234 53Q271 53 305 70T367 121L447 488H519L413 0H341L356 70Q323 32 285 13T203 -7Q122 -7 81 49T58 189L123 488H195ZM419 706H520L354 584H284L419 706Z" />
<glyph unicode="&#xfb;" glyph-name="ucircumflex" horiz-adv-x="541" d="M195 488L132 203Q117 136 145 95T234 53Q271 53 305 70T367 121L447 488H519L413 0H341L356 70Q323 32 285 13T203 -7Q122 -7 81 49T58 189L123 488H195ZM426 579L352 667L242 579H181L318
706H395L482 579H426Z" />
<glyph unicode="&#xfc;" glyph-name="udieresis" horiz-adv-x="541" d="M195 488L132 203Q117 136 145 95T234 53Q271 53 305 70T367 121L447 488H519L413 0H341L356 70Q323 32 285 13T203 -7Q122 -7 81 49T58 189L123 488H195ZM504 593Q486 593 474 606T461 639Q461
661 477 678T516 696Q534 696 547 683T560 650Q560 628 543 611T504 593ZM682 593Q664 593 651 606T638 639Q638 661 655 678T693 696Q711 696 724 683T737 650Q737 628 721 611T682 593Z" />
<glyph unicode="&#xfd;" glyph-name="yacute" horiz-adv-x="489" d="M107 -82L152 -5L68 488H144L207 84L445 488H526L173 -106Q139 -160 103 -184T18 -208Q7 -208 -6 -206T-37 -198L-24 -133Q-10 -136 0 -137T17 -139Q46 -139 67 -125T107 -82ZM394 706H495L329
584H259L394 706Z" />
<glyph unicode="&#xfe;" glyph-name="thorn" horiz-adv-x="571" d="M-22 -199L171 715L245 730L182 432Q211 461 247 476T325 492Q367 492 403 476T464 430T505 359T520 271Q520 214 500 163T446 74T365 14T267 -8Q216 -8 175 14T108 78L50 -199H-22ZM299 430Q263
430 230 416T170 375L121 138Q139 101 176 79T258 56Q298 56 333 72T393 117T434 183T449 265Q449 338 407 384T299 430Z" />
<glyph unicode="&#xff;" glyph-name="ydieresis" horiz-adv-x="489" d="M107 -82L152 -5L68 488H144L207 84L445 488H526L173 -106Q139 -160 103 -184T18 -208Q7 -208 -6 -206T-37 -198L-24 -133Q-10 -136 0 -137T17 -139Q46 -139 67 -125T107 -82ZM479 593Q461
593 449 606T436 639Q436 661 452 678T491 696Q509 696 522 683T535 650Q535 628 518 611T479 593ZM657 593Q639 593 626 606T613 639Q613 661 630 678T668 696Q686 696 699 683T712 650Q712 628 696 611T657 593Z" />
<glyph unicode="&#x2013;" glyph-name="endash" horiz-adv-x="540" d="M74 313H492L478 250H59L74 313Z" />
<glyph unicode="&#x2014;" glyph-name="emdash" horiz-adv-x="679" d="M74 313H632L617 250H59L74 313Z" />
<glyph unicode="&#x2018;" glyph-name="quoteleft" horiz-adv-x="220" d="M180 519H102L227 750H284L180 519Z" />
<glyph unicode="&#x2019;" glyph-name="quoteright" horiz-adv-x="220" d="M213 750H291L166 519H109L213 750Z" />
<glyph unicode="&#x201a;" glyph-name="quotesinglbase" horiz-adv-x="198" d="M47 74H125L0 -157H-57L47 74Z" />
<glyph unicode="&#x201c;" glyph-name="quotedblleft" horiz-adv-x="379" d="M179 519H101L226 750H283L179 519ZM338 519H260L385 750H442L338 519Z" />
<glyph unicode="&#x201d;" glyph-name="quotedblright" horiz-adv-x="380" d="M373 750H451L326 519H269L373 750ZM213 750H291L166 519H109L213 750Z" />
<glyph unicode="&#x201e;" glyph-name="quotedblbase" horiz-adv-x="360" d="M210 74H288L163 -157H106L210 74ZM47 74H125L0 -157H-57L47 74Z" />
<glyph unicode="&#x2022;" glyph-name="bullet" horiz-adv-x="336" d="M179 254Q142 254 117 279T92 342Q92 387 124 420T201 454Q238 454 262 429T287 367Q287 321 255 288T179 254Z" />
<glyph unicode="&#x2039;" glyph-name="guilsinglleft" horiz-adv-x="393" d="M393 488L123 241L283 0H208L43 245L315 488H393Z" />
<glyph unicode="&#x203a;" glyph-name="guilsinglright" horiz-adv-x="401" d="M8 0L278 247L118 488H193L358 243L86 0H8Z" />
</font>
</defs>
</svg>
